<svg width="24" height="24" viewBox="0 0 24 24" fill="none" xmlns="http://www.w3.org/2000/svg">
<path fill-rule="evenodd" clip-rule="evenodd" d="M17.8436 9H6.15644L7.24041 16.4329C7.45538 17.907 8.71938 19 10.209 19H13.7911C15.2807 19 16.5447 17.907 16.7597 16.4329L17.8436 9ZM6.15644 8C5.54672 8 5.07892 8.54097 5.16691 9.14431L6.25088 16.5772C6.5375 18.5426 8.22284 20 10.209 20H13.7911C15.7772 20 17.4626 18.5426 17.7492 16.5772L18.8332 9.14431C18.9211 8.54097 18.4533 8 17.8436 8H6.15644Z" fill="#000000"/>
<path fill-rule="evenodd" clip-rule="evenodd" d="M20.2097 12.2668C19.8396 11.8438 19.1531 11.5 18 11.5V10.5C19.347 10.5 20.3479 10.9062 20.9623 11.6082C21.5769 12.3107 21.7338 13.2293 21.552 14.102C21.1908 15.8359 19.4847 17.5 17 17.5V16.5C19.0153 16.5 20.3093 15.1641 20.573 13.898C20.7037 13.2707 20.5795 12.6893 20.2097 12.2668Z" fill="#000000"/>
<path fill-rule="evenodd" clip-rule="evenodd" d="M12 1.5C12.2762 1.5 12.5 1.72386 12.5 2V6C12.5 6.27614 12.2762 6.5 12 6.5C11.7239 6.5 11.5 6.27614 11.5 6V2C11.5 1.72386 11.7239 1.5 12 1.5ZM15 2.3C15.2762 2.3 15.5 2.52386 15.5 2.8V5.43259C15.5 5.70874 15.2762 5.93259 15 5.93259C14.7239 5.93259 14.5 5.70874 14.5 5.43259V2.8C14.5 2.52386 14.7239 2.3 15 2.3ZM9.00003 3.1C9.27618 3.1 9.50003 3.32386 9.50003 3.6V6C9.50003 6.27614 9.27618 6.5 9.00003 6.5C8.72389 6.5 8.50003 6.27614 8.50003 6V3.6C8.50003 3.32386 8.72389 3.1 9.00003 3.1Z" fill="#000000"/>
</svg>
