<svg width="24" height="24" viewBox="0 0 24 24" fill="none" xmlns="http://www.w3.org/2000/svg">
<path fill-rule="evenodd" clip-rule="evenodd" d="M3 14.5C3.27614 14.5 3.5 14.7239 3.5 15V18C3.5 18.2761 3.72386 18.5 4 18.5H20C20.2761 18.5 20.5 18.2761 20.5 18V15C20.5 14.7239 20.7239 14.5 21 14.5C21.2761 14.5 21.5 14.7239 21.5 15V18C21.5 18.8284 20.8284 19.5 20 19.5H4C3.17157 19.5 2.5 18.8284 2.5 18V15C2.5 14.7239 2.72386 14.5 3 14.5Z" fill="#000000"/>
<path fill-rule="evenodd" clip-rule="evenodd" d="M8.5 5C8.5 4.17157 9.17157 3.5 10 3.5H14C14.8284 3.5 15.5 4.17157 15.5 5V7H14.5V5C14.5 4.72386 14.2761 4.5 14 4.5H10C9.72386 4.5 9.5 4.72386 9.5 5V7H8.5V5Z" fill="#000000"/>
<path fill-rule="evenodd" clip-rule="evenodd" d="M2.5 8C2.5 7.17157 3.17157 6.5 4 6.5H20C20.8284 6.5 21.5 7.17157 21.5 8V11.2399C21.5 11.9137 21.0507 12.5048 20.4015 12.6852L12.4015 14.9074C12.1388 14.9804 11.8612 14.9804 11.5985 14.9074L3.59854 12.6852C2.94931 12.5049 2.5 11.9137 2.5 11.2399V8ZM4 7.5C3.72386 7.5 3.5 7.72386 3.5 8V11.2399C3.5 11.4645 3.64977 11.6616 3.86618 11.7217L11.8662 13.9439C11.9537 13.9682 12.0463 13.9682 12.1338 13.9439L20.1338 11.7217C20.3502 11.6616 20.5 11.4645 20.5 11.2399V8C20.5 7.72386 20.2761 7.5 20 7.5H4Z" fill="#000000"/>
</svg>
