<svg width="24" height="24" viewBox="0 0 24 24" fill="none" xmlns="http://www.w3.org/2000/svg">
<path fill-rule="evenodd" clip-rule="evenodd" d="M12 7C13.1046 7 14 6.10457 14 5C14 3.89543 13.1046 3 12 3C10.8954 3 10 3.89543 10 5C10 6.10457 10.8954 7 12 7ZM12 8C13.6569 8 15 6.65685 15 5C15 3.34315 13.6569 2 12 2C10.3431 2 9 3.34315 9 5C9 6.65685 10.3431 8 12 8Z" fill="#000000"/>
<path fill-rule="evenodd" clip-rule="evenodd" d="M9 9H15C16.1046 9 17 9.89543 17 11V14.0769C17 15.1815 16.1046 16.0769 15 16.0769V20C15 21.1046 14.1046 22 13 22H11C9.89543 22 9 21.1046 9 20V16.0769C7.89543 16.0769 7 15.1815 7 14.0769V11C7 9.89543 7.89543 9 9 9ZM15 10C15.5523 10 16 10.4477 16 11V14.0769C16 14.6292 15.5523 15.0769 15 15.0769C14.4477 15.0769 14 15.5246 14 16.0769V20C14 20.5523 13.5523 21 13 21H11C10.4477 21 10 20.5523 10 20V16.0769C10 15.5246 9.55228 15.0769 9 15.0769C8.44772 15.0769 8 14.6292 8 14.0769V11C8 10.4477 8.44772 10 9 10H15Z" fill="#000000"/>
</svg>
