<svg width="24" height="24" viewBox="0 0 24 24" fill="none" xmlns="http://www.w3.org/2000/svg">
<mask id="path-2-inside-1" fill="white">
<path fill-rule="evenodd" clip-rule="evenodd" d="M3.99988 11.9585C3.10468 11.8083 2.34434 11.2615 1.90524 10.5067C1.60659 9.99335 1.7636 9.41798 2.05221 9.04691L6.30495 3.57909C6.58914 3.21371 7.0261 3 7.48898 3H16.5108C16.9737 3 17.4107 3.21371 17.6948 3.57909L21.9476 9.04691C22.2362 9.41798 22.3932 9.99335 22.0946 10.5067C21.6555 11.2615 20.8951 11.8083 19.9999 11.9585V13.9995C19.6921 13.7684 19.3569 13.572 18.9999 13.416V11.9585C18.1663 11.8187 17.4495 11.3352 16.9999 10.6587C16.4626 11.4671 15.5438 12 14.4999 12C13.456 12 12.5372 11.4671 11.9999 10.6587C11.4626 11.4671 10.5438 12 9.4999 12C8.45601 12 7.53723 11.4671 6.9999 10.6587C6.55027 11.3352 5.83352 11.8187 4.99988 11.9585V18.5C4.99988 19.3284 5.67145 20 6.49988 20H9.99988V15C9.99988 14.1716 10.6715 13.5 11.4999 13.5H14.8179C14.2984 13.7524 13.8292 14.0921 13.4293 14.5H11.4999C11.2237 14.5 10.9999 14.7239 10.9999 15V20H12.416C12.572 20.357 12.7685 20.6923 12.9996 21H6.49988C5.11917 21 3.99988 19.8807 3.99988 18.5V11.9585ZM7.09431 4.19303C7.18903 4.07124 7.33469 4 7.48898 4H16.5108C16.6651 4 16.8108 4.07124 16.9055 4.19303L21.1582 9.66085C21.2767 9.81316 21.2649 9.94413 21.2302 10.0039C20.883 10.6006 20.2378 11 19.4999 11C18.5468 11 17.7484 10.3329 17.5483 9.43967C17.4923 9.18971 17.2699 9 16.9999 9C16.7299 9 16.5075 9.18971 16.4515 9.43967C16.2514 10.3329 15.453 11 14.4999 11C13.5468 11 12.7484 10.3329 12.5483 9.43967C12.4923 9.18971 12.2699 9 11.9999 9C11.7299 9 11.5075 9.18971 11.4515 9.43967C11.2514 10.3329 10.453 11 9.4999 11C8.54684 11 7.74841 10.3329 7.54827 9.43967C7.49226 9.18971 7.26991 9 6.9999 9C6.72989 9 6.50754 9.18971 6.45153 9.43967C6.25139 10.3329 5.45296 11 4.4999 11C3.76199 11 3.11678 10.6006 2.76962 10.0039C2.73486 9.94413 2.7231 9.81315 2.84156 9.66085L7.09431 4.19303Z"/>
<path fill-rule="evenodd" clip-rule="evenodd" d="M17 15.75C17.2761 15.75 17.5 15.9739 17.5 16.25V17.5H18.75C19.0261 17.5 19.25 17.7239 19.25 18C19.25 18.2761 19.0261 18.5 18.75 18.5H17.5V19.75C17.5 20.0261 17.2761 20.25 17 20.25C16.7239 20.25 16.5 20.0261 16.5 19.75V18.5H15.25C14.9739 18.5 14.75 18.2761 14.75 18C14.75 17.7239 14.9739 17.5 15.25 17.5H16.5V16.25C16.5 15.9739 16.7239 15.75 17 15.75Z"/>
<path fill-rule="evenodd" clip-rule="evenodd" d="M17 21C18.6569 21 20 19.6569 20 18C20 16.3431 18.6569 15 17 15C15.3431 15 14 16.3431 14 18C14 19.6569 15.3431 21 17 21ZM17 22C19.2091 22 21 20.2091 21 18C21 15.7909 19.2091 14 17 14C14.7909 14 13 15.7909 13 18C13 20.2091 14.7909 22 17 22Z"/>
</mask>
<path fill-rule="evenodd" clip-rule="evenodd" d="M3.99988 11.9585C3.10468 11.8083 2.34434 11.2615 1.90524 10.5067C1.60659 9.99335 1.7636 9.41798 2.05221 9.04691L6.30495 3.57909C6.58914 3.21371 7.0261 3 7.48898 3H16.5108C16.9737 3 17.4107 3.21371 17.6948 3.57909L21.9476 9.04691C22.2362 9.41798 22.3932 9.99335 22.0946 10.5067C21.6555 11.2615 20.8951 11.8083 19.9999 11.9585V13.9995C19.6921 13.7684 19.3569 13.572 18.9999 13.416V11.9585C18.1663 11.8187 17.4495 11.3352 16.9999 10.6587C16.4626 11.4671 15.5438 12 14.4999 12C13.456 12 12.5372 11.4671 11.9999 10.6587C11.4626 11.4671 10.5438 12 9.4999 12C8.45601 12 7.53723 11.4671 6.9999 10.6587C6.55027 11.3352 5.83352 11.8187 4.99988 11.9585V18.5C4.99988 19.3284 5.67145 20 6.49988 20H9.99988V15C9.99988 14.1716 10.6715 13.5 11.4999 13.5H14.8179C14.2984 13.7524 13.8292 14.0921 13.4293 14.5H11.4999C11.2237 14.5 10.9999 14.7239 10.9999 15V20H12.416C12.572 20.357 12.7685 20.6923 12.9996 21H6.49988C5.11917 21 3.99988 19.8807 3.99988 18.5V11.9585ZM7.09431 4.19303C7.18903 4.07124 7.33469 4 7.48898 4H16.5108C16.6651 4 16.8108 4.07124 16.9055 4.19303L21.1582 9.66085C21.2767 9.81316 21.2649 9.94413 21.2302 10.0039C20.883 10.6006 20.2378 11 19.4999 11C18.5468 11 17.7484 10.3329 17.5483 9.43967C17.4923 9.18971 17.2699 9 16.9999 9C16.7299 9 16.5075 9.18971 16.4515 9.43967C16.2514 10.3329 15.453 11 14.4999 11C13.5468 11 12.7484 10.3329 12.5483 9.43967C12.4923 9.18971 12.2699 9 11.9999 9C11.7299 9 11.5075 9.18971 11.4515 9.43967C11.2514 10.3329 10.453 11 9.4999 11C8.54684 11 7.74841 10.3329 7.54827 9.43967C7.49226 9.18971 7.26991 9 6.9999 9C6.72989 9 6.50754 9.18971 6.45153 9.43967C6.25139 10.3329 5.45296 11 4.4999 11C3.76199 11 3.11678 10.6006 2.76962 10.0039C2.73486 9.94413 2.7231 9.81315 2.84156 9.66085L7.09431 4.19303Z" fill="#000000"/>
<path fill-rule="evenodd" clip-rule="evenodd" d="M17 15.75C17.2761 15.75 17.5 15.9739 17.5 16.25V17.5H18.75C19.0261 17.5 19.25 17.7239 19.25 18C19.25 18.2761 19.0261 18.5 18.75 18.5H17.5V19.75C17.5 20.0261 17.2761 20.25 17 20.25C16.7239 20.25 16.5 20.0261 16.5 19.75V18.5H15.25C14.9739 18.5 14.75 18.2761 14.75 18C14.75 17.7239 14.9739 17.5 15.25 17.5H16.5V16.25C16.5 15.9739 16.7239 15.75 17 15.75Z" fill="#000000"/>
<path fill-rule="evenodd" clip-rule="evenodd" d="M17 21C18.6569 21 20 19.6569 20 18C20 16.3431 18.6569 15 17 15C15.3431 15 14 16.3431 14 18C14 19.6569 15.3431 21 17 21ZM17 22C19.2091 22 21 20.2091 21 18C21 15.7909 19.2091 14 17 14C14.7909 14 13 15.7909 13 18C13 20.2091 14.7909 22 17 22Z" fill="#000000"/>
<path d="M7.09431 4.19303L7.88366 4.80697V4.80697L7.09431 4.19303ZM16.9055 4.19303L16.1161 4.80697L16.1161 4.80697L16.9055 4.19303ZM21.1582 9.66085L20.3689 10.2748L20.3689 10.2748L21.1582 9.66085ZM21.2302 10.0039L20.3658 9.50101L20.3658 9.50103L21.2302 10.0039ZM17.5483 9.43967L18.5241 9.22103V9.22103L17.5483 9.43967ZM16.4515 9.43967L15.4757 9.22102L15.4757 9.22102L16.4515 9.43967ZM12.5483 9.43967L11.5725 9.65831L12.5483 9.43967ZM11.4515 9.43967L10.4757 9.22103V9.22103L11.4515 9.43967ZM7.54827 9.43967L6.57247 9.65831V9.65831L7.54827 9.43967ZM6.45153 9.43967L7.42733 9.65831V9.65831L6.45153 9.43967ZM2.76962 10.0039L1.90524 10.5067L1.90524 10.5067L2.76962 10.0039ZM2.84156 9.66085L3.63091 10.2748H3.63091L2.84156 9.66085ZM3.99988 11.9585H4.99988V11.1123L4.1654 10.9723L3.99988 11.9585ZM1.90524 10.5067L2.76962 10.0039L1.90524 10.5067ZM2.05221 9.04691L1.26285 8.43297L1.26285 8.43297L2.05221 9.04691ZM6.30495 3.57909L7.09431 4.19303V4.19303L6.30495 3.57909ZM17.6948 3.57909L18.4842 2.96515V2.96515L17.6948 3.57909ZM21.9476 9.04691L21.1582 9.66085L21.1582 9.66085L21.9476 9.04691ZM22.0946 10.5067L22.9589 11.0096L22.9589 11.0096L22.0946 10.5067ZM19.9999 11.9585L19.8344 10.9723L18.9999 11.1123V11.9585H19.9999ZM19.9999 13.9995L19.3993 14.7991L20.9999 16.0013V13.9995H19.9999ZM18.9999 13.416H17.9999V14.0704L18.5995 14.3324L18.9999 13.416ZM18.9999 11.9585H19.9999V11.1123L19.1653 10.9723L18.9999 11.9585ZM16.9999 10.6587L17.8327 10.1051L16.9999 8.85214L16.1671 10.1051L16.9999 10.6587ZM11.9999 10.6587L12.8327 10.1051L11.9999 8.85214L11.1671 10.1051L11.9999 10.6587ZM6.9999 10.6587L7.83272 10.1051L6.9999 8.85213L6.16708 10.1051L6.9999 10.6587ZM4.99988 11.9585L4.83447 10.9723L3.99988 11.1123V11.9585H4.99988ZM9.99988 20V21H10.9999V20H9.99988ZM14.8179 13.5L15.2549 14.3995L14.8179 12.5V13.5ZM13.4293 14.5V15.5H13.8493L14.1434 15.2L13.4293 14.5ZM10.9999 20H9.99988V21H10.9999V20ZM12.416 20L13.3324 19.5996L13.0704 19H12.416V20ZM12.9996 21V22H15.0014L13.7992 20.3994L12.9996 21ZM17.5 17.5H16.5V18.5H17.5V17.5ZM17.5 18.5V17.5H16.5V18.5H17.5ZM16.5 18.5H17.5V17.5H16.5V18.5ZM16.5 17.5V18.5H17.5V17.5H16.5ZM7.88366 4.80697C7.78893 4.92876 7.64328 5 7.48898 5V3C7.0261 3 6.58914 3.21371 6.30495 3.57909L7.88366 4.80697ZM7.48898 5H16.5108V3H7.48898V5ZM16.5108 5C16.3565 5 16.2109 4.92876 16.1161 4.80697L17.6948 3.57909C17.4107 3.21371 16.9737 3 16.5108 3V5ZM16.1161 4.80697L20.3689 10.2748L21.9476 9.04691L17.6948 3.57909L16.1161 4.80697ZM20.3689 10.2748C20.2978 10.1835 20.1496 9.87267 20.3658 9.50101L22.0945 10.5067C22.3803 10.0156 22.2556 9.44286 21.9476 9.04691L20.3689 10.2748ZM20.3658 9.50103C20.1905 9.80231 19.8677 10 19.4999 10V12C20.6079 12 21.5755 11.399 22.0946 10.5067L20.3658 9.50103ZM19.4999 10C19.0244 10 18.624 9.66688 18.5241 9.22103L16.5725 9.65831C16.8728 10.9989 18.0693 12 19.4999 12V10ZM18.5241 9.22103C18.3693 8.53044 17.7542 8 16.9999 8V10C16.7856 10 16.6152 9.84898 16.5725 9.65831L18.5241 9.22103ZM16.9999 8C16.2456 8 15.6305 8.53044 15.4757 9.22102L17.4273 9.65832C17.3846 9.84898 17.2142 10 16.9999 10V8ZM15.4757 9.22102C15.3758 9.66689 14.9754 10 14.4999 10V12C15.9305 12 17.127 10.9989 17.4273 9.65831L15.4757 9.22102ZM14.4999 10C14.0244 10 13.624 9.66688 13.5241 9.22103L11.5725 9.65831C11.8728 10.9989 13.0693 12 14.4999 12V10ZM13.5241 9.22103C13.3693 8.53044 12.7542 8 11.9999 8V10C11.7856 10 11.6152 9.84898 11.5725 9.65831L13.5241 9.22103ZM11.9999 8C11.2456 8 10.6305 8.53044 10.4757 9.22103L12.4273 9.65831C12.3846 9.84898 12.2142 10 11.9999 10V8ZM10.4757 9.22103C10.3758 9.66688 9.97538 10 9.4999 10V12C10.9305 12 12.127 10.9989 12.4273 9.65831L10.4757 9.22103ZM9.4999 10C9.02442 10 8.62398 9.66689 8.52408 9.22103L6.57247 9.65831C6.87284 10.9989 8.06926 12 9.4999 12V10ZM8.52408 9.22103C8.36934 8.53044 7.75424 8 6.9999 8V10C6.78557 10 6.61519 9.84898 6.57247 9.65831L8.52408 9.22103ZM6.9999 8C6.24556 8 5.63046 8.53044 5.47572 9.22103L7.42733 9.65831C7.38461 9.84898 7.21423 10 6.9999 10V8ZM5.47572 9.22103C5.37582 9.66688 4.97538 10 4.4999 10V12C5.93054 12 7.12696 10.9989 7.42733 9.65831L5.47572 9.22103ZM4.4999 10C4.1321 10 3.80926 9.80231 3.63399 9.50103L1.90524 10.5067C2.42431 11.399 3.39188 12 4.4999 12V10ZM3.63399 9.50103C3.85019 9.87267 3.70196 10.1834 3.63091 10.2748L2.05221 9.04691C1.74424 9.44287 1.61953 10.0156 1.90524 10.5067L3.63399 9.50103ZM3.63091 10.2748L7.88366 4.80697L6.30495 3.57909L2.05221 9.04691L3.63091 10.2748ZM4.1654 10.9723C3.57156 10.8726 3.06341 10.5089 2.76962 10.0039L1.04087 11.0096C1.62528 12.0141 2.63779 12.7439 3.83436 12.9447L4.1654 10.9723ZM2.76962 10.0039C2.74728 9.96549 2.73915 9.92726 2.74753 9.87117C2.75757 9.80391 2.79159 9.7251 2.84156 9.66085L1.26285 8.43297C0.808652 9.01694 0.475362 10.0375 1.04087 11.0096L2.76962 10.0039ZM2.84156 9.66085L7.09431 4.19303L5.5156 2.96515L1.26285 8.43297L2.84156 9.66085ZM7.09431 4.19303C7.18903 4.07124 7.33469 4 7.48898 4V2C6.71751 2 5.98924 2.35618 5.5156 2.96515L7.09431 4.19303ZM7.48898 4H16.5108V2H7.48898V4ZM16.5108 4C16.6651 4 16.8108 4.07124 16.9055 4.19303L18.4842 2.96515C18.0106 2.35618 17.2823 2 16.5108 2V4ZM16.9055 4.19303L21.1582 9.66085L22.7369 8.43297L18.4842 2.96515L16.9055 4.19303ZM21.1582 9.66085C21.2082 9.7251 21.2422 9.80391 21.2523 9.87117C21.2606 9.92726 21.2525 9.96549 21.2302 10.0039L22.9589 11.0096C23.5244 10.0375 23.1911 9.01694 22.7369 8.43297L21.1582 9.66085ZM21.2302 10.0039C20.9364 10.5089 20.4282 10.8726 19.8344 10.9723L20.1654 12.9447C21.362 12.7439 22.3745 12.0142 22.9589 11.0096L21.2302 10.0039ZM18.9999 11.9585V13.9995H20.9999V11.9585H18.9999ZM20.6004 13.2C20.2314 12.9228 19.8291 12.687 19.4002 12.4996L18.5995 14.3324C18.8847 14.4569 19.1529 14.614 19.3993 14.7991L20.6004 13.2ZM19.9999 13.416V11.9585H17.9999V13.416H19.9999ZM19.1653 10.9723C18.6125 10.8796 18.1339 10.5583 17.8327 10.1051L16.1671 11.2122C16.7652 12.112 17.72 12.7578 18.8345 12.9448L19.1653 10.9723ZM16.1671 10.1051C15.8072 10.6466 15.1949 11 14.4999 11V13C15.8927 13 17.118 12.2876 17.8327 11.2122L16.1671 10.1051ZM14.4999 11C13.8049 11 13.1926 10.6466 12.8327 10.1051L11.1671 11.2122C11.8818 12.2876 13.1071 13 14.4999 13V11ZM11.1671 10.1051C10.8072 10.6466 10.1949 11 9.4999 11V13C10.8927 13 12.118 12.2876 12.8327 11.2122L11.1671 10.1051ZM9.4999 11C8.80492 11 8.19262 10.6466 7.83272 10.1051L6.16708 11.2122C6.88184 12.2876 8.1071 13 9.4999 13V11ZM6.16708 10.1051C5.86589 10.5583 5.38724 10.8796 4.83447 10.9723L5.16529 12.9448C6.2798 12.7578 7.23464 12.112 7.83272 11.2122L6.16708 10.1051ZM3.99988 11.9585V18.5H5.99988V11.9585H3.99988ZM3.99988 18.5C3.99988 19.8807 5.11917 21 6.49988 21V19C6.22374 19 5.99988 18.7761 5.99988 18.5H3.99988ZM6.49988 21H9.99988V19H6.49988V21ZM10.9999 20V15H8.99988V20H10.9999ZM10.9999 15C10.9999 14.7239 11.2237 14.5 11.4999 14.5V12.5C10.1192 12.5 8.99988 13.6193 8.99988 15H10.9999ZM11.4999 14.5H14.8179V12.5H11.4999V14.5ZM14.381 12.6005C13.7572 12.9036 13.1944 13.3111 12.7152 13.8L14.1434 15.2C14.4639 14.8731 14.8397 14.6012 15.2549 14.3995L14.381 12.6005ZM13.4293 13.5H11.4999V15.5H13.4293V13.5ZM11.4999 13.5C10.6715 13.5 9.99988 14.1716 9.99988 15H11.9999C11.9999 15.2761 11.776 15.5 11.4999 15.5V13.5ZM9.99988 15V20H11.9999V15H9.99988ZM10.9999 21H12.416V19H10.9999V21ZM11.4997 20.4004C11.6871 20.8292 11.9229 21.2316 12.2001 21.6006L13.7992 20.3994C13.6141 20.153 13.457 19.8848 13.3324 19.5996L11.4997 20.4004ZM12.9996 20H6.49988V22H12.9996V20ZM6.49988 20C5.67145 20 4.99988 19.3284 4.99988 18.5H2.99988C2.99988 20.433 4.56688 22 6.49988 22V20ZM4.99988 18.5V11.9585H2.99988V18.5H4.99988ZM18.5 16.25C18.5 15.4216 17.8284 14.75 17 14.75V16.75C16.7239 16.75 16.5 16.5261 16.5 16.25H18.5ZM18.5 17.5V16.25H16.5V17.5H18.5ZM18.75 16.5H17.5V18.5H18.75V16.5ZM20.25 18C20.25 17.1716 19.5784 16.5 18.75 16.5V18.5C18.4739 18.5 18.25 18.2761 18.25 18H20.25ZM18.75 19.5C19.5784 19.5 20.25 18.8284 20.25 18H18.25C18.25 17.7239 18.4739 17.5 18.75 17.5V19.5ZM17.5 19.5H18.75V17.5H17.5V19.5ZM18.5 19.75V18.5H16.5V19.75H18.5ZM17 21.25C17.8284 21.25 18.5 20.5784 18.5 19.75H16.5C16.5 19.4739 16.7239 19.25 17 19.25V21.25ZM15.5 19.75C15.5 20.5784 16.1716 21.25 17 21.25V19.25C17.2761 19.25 17.5 19.4739 17.5 19.75H15.5ZM15.5 18.5V19.75H17.5V18.5H15.5ZM15.25 19.5H16.5V17.5H15.25V19.5ZM13.75 18C13.75 18.8284 14.4216 19.5 15.25 19.5V17.5C15.5261 17.5 15.75 17.7239 15.75 18H13.75ZM15.25 16.5C14.4216 16.5 13.75 17.1716 13.75 18H15.75C15.75 18.2761 15.5261 18.5 15.25 18.5V16.5ZM16.5 16.5H15.25V18.5H16.5V16.5ZM15.5 16.25V17.5H17.5V16.25H15.5ZM17 14.75C16.1716 14.75 15.5 15.4216 15.5 16.25H17.5C17.5 16.5261 17.2761 16.75 17 16.75V14.75ZM19 18C19 19.1046 18.1046 20 17 20V22C19.2091 22 21 20.2091 21 18H19ZM17 16C18.1046 16 19 16.8954 19 18H21C21 15.7909 19.2091 14 17 14V16ZM15 18C15 16.8954 15.8954 16 17 16V14C14.7909 14 13 15.7909 13 18H15ZM17 20C15.8954 20 15 19.1046 15 18H13C13 20.2091 14.7909 22 17 22V20ZM20 18C20 19.6569 18.6569 21 17 21V23C19.7614 23 22 20.7614 22 18H20ZM17 15C18.6569 15 20 16.3431 20 18H22C22 15.2386 19.7614 13 17 13V15ZM14 18C14 16.3431 15.3431 15 17 15V13C14.2386 13 12 15.2386 12 18H14ZM17 21C15.3431 21 14 19.6569 14 18H12C12 20.7614 14.2386 23 17 23V21Z" fill="#000000" mask="url(#path-2-inside-1)"/>
</svg>
