<svg width="24" height="24" viewBox="0 0 24 24" fill="none" xmlns="http://www.w3.org/2000/svg">
<path fill-rule="evenodd" clip-rule="evenodd" d="M4.99988 11V18.5C4.99988 19.3284 5.67145 20 6.49988 20H17.4999C18.3283 20 18.9999 19.3284 18.9999 18.5V11H19.9999V18.5C19.9999 19.8807 18.8806 21 17.4999 21H6.49988C5.11917 21 3.99988 19.8807 3.99988 18.5V11H4.99988Z" fill="#000000"/>
<path fill-rule="evenodd" clip-rule="evenodd" d="M7.48898 4C7.33469 4 7.18903 4.07124 7.09431 4.19303L2.84156 9.66085C2.7231 9.81315 2.73486 9.94413 2.76962 10.0039C3.11678 10.6006 3.76199 11 4.4999 11C5.45296 11 6.25139 10.3329 6.45153 9.43967C6.50754 9.18971 6.72989 9 6.9999 9C7.26991 9 7.49226 9.18971 7.54827 9.43967C7.74841 10.3329 8.54684 11 9.4999 11C10.453 11 11.2514 10.3329 11.4515 9.43967C11.5075 9.18971 11.7299 9 11.9999 9C12.2699 9 12.4923 9.18971 12.5483 9.43967C12.7484 10.3329 13.5468 11 14.4999 11C15.453 11 16.2514 10.3329 16.4515 9.43967C16.5075 9.18971 16.7299 9 16.9999 9C17.2699 9 17.4923 9.18971 17.5483 9.43967C17.7484 10.3329 18.5468 11 19.4999 11C20.2378 11 20.883 10.6006 21.2302 10.0039C21.2649 9.94413 21.2767 9.81316 21.1582 9.66085L16.9055 4.19303C16.8108 4.07124 16.6651 4 16.5108 4H7.48898ZM6.30495 3.57909C6.58914 3.21371 7.0261 3 7.48898 3H16.5108C16.9737 3 17.4107 3.21371 17.6948 3.57909L21.9476 9.04691C22.2362 9.41798 22.3932 9.99335 22.0946 10.5067C21.5757 11.3986 20.6083 12 19.4999 12C18.456 12 17.5372 11.4671 16.9999 10.6587C16.4626 11.4671 15.5438 12 14.4999 12C13.456 12 12.5372 11.4671 11.9999 10.6587C11.4626 11.4671 10.5438 12 9.4999 12C8.45601 12 7.53723 11.4671 6.9999 10.6587C6.46257 11.4671 5.54378 12 4.4999 12C3.39148 12 2.4241 11.3986 1.90524 10.5067C1.60659 9.99335 1.7636 9.41798 2.05221 9.04691L6.30495 3.57909Z" fill="#000000"/>
<path fill-rule="evenodd" clip-rule="evenodd" d="M9.99988 15C9.99988 14.1716 10.6715 13.5 11.4999 13.5H15.4999C16.3283 13.5 16.9999 14.1716 16.9999 15V20H15.9999V15C15.9999 14.7239 15.776 14.5 15.4999 14.5H11.4999C11.2237 14.5 10.9999 14.7239 10.9999 15V20H9.99988V15Z" fill="#000000"/>
<path d="M14.9999 17.5C14.9999 17.7761 14.776 18 14.4999 18C14.2237 18 13.9999 17.7761 13.9999 17.5C13.9999 17.2239 14.2237 17 14.4999 17C14.776 17 14.9999 17.2239 14.9999 17.5Z" fill="#000000"/>
</svg>
