<svg width="24" height="24" viewBox="0 0 24 24" fill="none" xmlns="http://www.w3.org/2000/svg">
<path fill-rule="evenodd" clip-rule="evenodd" d="M20 6H4C3.44772 6 3 6.44772 3 7V18C3 18.5523 3.44772 19 4 19H20C20.5523 19 21 18.5523 21 18V7C21 6.44772 20.5523 6 20 6ZM4 5C2.89543 5 2 5.89543 2 7V18C2 19.1046 2.89543 20 4 20H20C21.1046 20 22 19.1046 22 18V7C22 5.89543 21.1046 5 20 5H4Z" fill="#000000"/>
<path fill-rule="evenodd" clip-rule="evenodd" d="M6.5 3C6.77614 3 7 3.22386 7 3.5V7.5C7 7.77614 6.77614 8 6.5 8C6.22386 8 6 7.77614 6 7.5V3.5C6 3.22386 6.22386 3 6.5 3ZM17.5 3C17.7761 3 18 3.22386 18 3.5V7.5C18 7.77614 17.7761 8 17.5 8C17.2239 8 17 7.77614 17 7.5V3.5C17 3.22386 17.2239 3 17.5 3Z" fill="#000000"/>
<path fill-rule="evenodd" clip-rule="evenodd" d="M21.5 11H2.5V10H21.5V11Z" fill="#000000"/>
</svg>
