<svg width="24" height="24" viewBox="0 0 24 24" fill="none" xmlns="http://www.w3.org/2000/svg">
<path d="M12.0889 14.6514C12.58 15.1665 13.1726 15.4846 13.7321 15.5484C14.3052 15.6032 14.9104 15.4138 15.5796 14.6664C15.7869 14.4347 16.0141 14.1665 16.3962 14.0384C16.7783 13.9103 17.2375 13.9898 17.7258 14.2527C18.6573 14.9606 19.6179 15.6776 20.5343 16.4056C20.9711 16.8427 21.0836 17.4185 20.9426 17.8707C20.8017 18.3229 20.4997 18.6654 20.2206 18.9521C18.6644 20.5749 16.8211 21.3591 15.0119 21.085C13.2643 20.7822 11.5732 19.5572 9.69868 17.6813C8.89296 16.8749 8.26524 16.2467 7.46781 15.4487C5.59332 13.5728 4.3693 11.8803 4.06675 10.1314C3.70704 7.96839 4.85523 6.20778 6.19798 4.91874C6.48449 4.6394 6.82675 4.33719 7.27858 4.19613C7.73041 4.05508 8.30572 4.1676 8.74256 4.60478C9.47002 5.52183 10.1864 6.48322 10.8938 7.41544C11.1564 7.90407 11.2359 8.3636 11.1079 8.74602C10.9799 9.12844 10.7119 9.35579 10.4805 9.56331C9.73355 10.233 9.54435 10.8386 9.59905 11.4122C9.66287 11.9721 9.98057 12.5652 10.4954 13.0567L12.0889 14.6514ZM9.85801 13.6946C9.25515 13.1085 8.77978 12.3567 8.69775 11.4969C8.61552 10.6346 8.97409 9.70086 9.8779 8.89054C10.0981 8.69314 10.218 8.5568 10.2514 8.45699C10.2842 8.35895 10.2933 8.21635 10.107 7.86395L8.10519 5.24265C7.84712 4.9844 7.74357 4.99205 7.54745 5.05328C7.35133 5.11451 7.08158 5.31674 6.83041 5.56159C5.21705 7.1762 4.71015 8.54374 4.95806 9.97694C5.20599 11.4101 6.28566 12.9899 8.10519 14.8109C8.85202 15.5583 9.67317 16.3801 10.3361 17.0435C12.1556 18.8644 13.7342 19.9449 15.1663 20.193C16.5983 20.4411 17.9648 19.9338 19.5782 18.3192C19.8228 18.0679 20.0249 17.7979 20.0861 17.6016C20.1473 17.4053 20.155 17.3017 19.8969 17.0434L17.2776 15.0401C16.9255 14.8536 16.783 14.8627 16.685 14.8956C16.5853 14.929 16.449 15.049 16.2518 15.2693C15.4421 16.1739 14.5091 16.5327 13.6475 16.4504C12.7883 16.3683 12.0371 15.8926 11.4515 15.2893" fill="#000000"/>
</svg>
