<svg width="24" height="24" viewBox="0 0 24 24" fill="none" xmlns="http://www.w3.org/2000/svg">
<path d="M11 7.42247V19.1132C8.46936 17.6938 5.3872 17.2773 2.5 17.961V5.85023C5.31535 5.12983 8.32774 5.52877 10.7209 6.97224L10.7209 6.97227L10.7253 6.97492L10.7538 6.99165L11.0075 6.56083L10.7538 6.99165C10.9063 7.08152 11 7.24539 11 7.42247Z" stroke="#000000"/>
<path d="M21.5 6.22426V17.9601C18.624 17.2696 15.5281 17.6825 13 19.1242V7.3236C13 7.21006 13.0593 7.10476 13.1563 7.04584L13.1563 7.04586L13.16 7.04359C15.4913 5.60074 18.4163 5.14696 21.1684 5.7771C21.3529 5.81936 21.5 5.99545 21.5 6.22426Z" stroke="#000000"/>
</svg>
