<svg width="24" height="24" viewBox="0 0 24 24" fill="none" xmlns="http://www.w3.org/2000/svg">
<path d="M8.93985 17.4674C8.10017 18.2886 7.12837 18.6718 6.36002 18.8494C5.57338 19.0313 5 18.9975 5 18.9975C5 18.9975 5.37534 18.6223 5.71952 17.953C5.98811 17.4307 6.23773 16.7293 6.27517 15.8876C4.86745 14.6261 4 12.9011 4 10.9988C4 7.13349 7.58172 4 12 4C16.4183 4 20 7.13349 20 10.9988C20 11.6252 19.9059 12.2324 19.7295 12.8101C20.0304 13.0065 20.3089 13.2345 20.5602 13.4893C20.8451 12.7108 21 11.8749 21 10.9988C21 6.45981 16.8408 3 12 3C7.15921 3 3 6.45981 3 10.9988C3 13.0391 3.85707 14.8817 5.23258 16.2749C5.14303 16.8419 4.93981 17.3134 4.73801 17.6653C4.61309 17.8832 4.49171 18.0499 4.40543 18.1581C4.36247 18.212 4.32878 18.2506 4.30849 18.2731C4.29837 18.2844 4.29166 18.2915 4.28888 18.2944L4.28802 18.2953C4.01342 18.5737 3.92616 18.987 4.06527 19.3529C4.2052 19.721 4.54816 19.9727 4.94129 19.9958L4.9999 18.9993C4.94129 19.9958 4.94292 19.9959 4.94292 19.9959L4.94477 19.996L4.94909 19.9962L4.96024 19.9968L4.99235 19.9981C5.01801 19.9989 5.05215 19.9997 5.09406 19.9999C5.17779 20.0004 5.29304 19.9986 5.43407 19.9905C5.71529 19.9743 6.10416 19.9327 6.55335 19.831C7.31374 19.659 8.27445 19.3084 9.17142 18.5951C10.0628 18.8568 11.0142 18.9977 12 18.9977C12.1377 18.9977 12.2749 18.9949 12.4114 18.9894C12.2746 18.6742 12.1693 18.3421 12.0994 17.9972C12.0663 17.9975 12.0332 17.9977 12 17.9977C10.9161 17.9977 9.88254 17.8091 8.93985 17.4674Z" fill="#000000"/>
<path d="M8 12C8.55228 12 9 11.5523 9 11C9 10.4477 8.55228 10 8 10C7.44772 10 7 10.4477 7 11C7 11.5523 7.44772 12 8 12Z" fill="#000000"/>
<path d="M13 11C13 11.5523 12.5523 12 12 12C11.4477 12 11 11.5523 11 11C11 10.4477 11.4477 10 12 10C12.5523 10 13 10.4477 13 11Z" fill="#000000"/>
<path d="M16 12C16.5523 12 17 11.5523 17 11C17 10.4477 16.5523 10 16 10C15.4477 10 15 10.4477 15 11C15 11.5523 15.4477 12 16 12Z" fill="#000000"/>
<path fill-rule="evenodd" clip-rule="evenodd" d="M17 20C18.6569 20 20 18.6569 20 17C20 15.3431 18.6569 14 17 14C15.3431 14 14 15.3431 14 17C14 18.6569 15.3431 20 17 20ZM17 21C19.2091 21 21 19.2091 21 17C21 14.7909 19.2091 13 17 13C14.7909 13 13 14.7909 13 17C13 19.2091 14.7909 21 17 21Z" fill="#000000"/>
<path fill-rule="evenodd" clip-rule="evenodd" d="M17 14.5C17.2761 14.5 17.5 14.7239 17.5 15V16.5H19C19.2761 16.5 19.5 16.7239 19.5 17C19.5 17.2761 19.2761 17.5 19 17.5H17.5V19C17.5 19.2761 17.2761 19.5 17 19.5C16.7239 19.5 16.5 19.2761 16.5 19V17.5H15C14.7239 17.5 14.5 17.2761 14.5 17C14.5 16.7239 14.7239 16.5 15 16.5H16.5V15C16.5 14.7239 16.7239 14.5 17 14.5Z" fill="#000000"/>
</svg>
