<svg width="24" height="24" viewBox="0 0 24 24" fill="none" xmlns="http://www.w3.org/2000/svg">
<path fill-rule="evenodd" clip-rule="evenodd" d="M5.36002 17.8494C6.12837 17.6718 7.10017 17.2886 7.93985 16.4674C8.88254 16.8091 9.91609 16.9977 11 16.9977C15.4183 16.9977 19 13.8642 19 9.99885C19 6.13349 15.4183 3 11 3C6.58172 3 3 6.13349 3 9.99885C3 11.9011 3.86745 13.6261 5.27517 14.8876C5.23773 15.7293 4.98811 16.4307 4.71952 16.953C4.37534 17.6223 4 17.9975 4 17.9975C4 17.9975 4.57338 18.0313 5.36002 17.8494ZM3.29243 17.2909C3.29096 17.2924 3.28949 17.2938 3.28802 17.2953L3.28888 17.2944C3.29166 17.2915 3.29837 17.2844 3.30849 17.2731C3.32878 17.2506 3.36247 17.212 3.40543 17.1581C3.49171 17.0499 3.61309 16.8832 3.73801 16.6653C3.93981 16.3134 4.14303 15.8419 4.23258 15.2749C2.85707 13.8817 2 12.0391 2 9.99885C2 5.45981 6.15921 2 11 2C15.8408 2 20 5.45981 20 9.99885C20 14.5379 15.8408 17.9977 11 17.9977C10.0142 17.9977 9.06285 17.8568 8.17142 17.5951C7.27445 18.3084 6.31374 18.659 5.55335 18.831C5.10416 18.9327 4.71529 18.9743 4.43407 18.9905C4.29304 18.9986 4.17779 19.0004 4.09406 18.9999C4.05215 18.9997 4.01801 18.9989 3.99235 18.9981L3.96024 18.9968L3.94909 18.9962L3.94477 18.996L3.94292 18.9959C3.94292 18.9959 3.94129 18.9958 4 17.9975L3.94129 18.9958C3.54816 18.9727 3.2052 18.721 3.06527 18.3529C2.92616 17.987 3.01342 17.5737 3.28802 17.2953L3.28888 17.2944L3.29103 17.2923L3.29243 17.2909Z" fill="#000000"/>
<path d="M13 19.9977C12.253 19.9977 11.5222 19.9153 10.8205 19.7593C10.1869 19.6184 10.3529 18.9472 11 18.9977C11.3503 18.9977 11.6982 18.9809 12.0426 18.9481C12.3565 18.9808 12.676 18.9977 13 18.9977C14.0839 18.9977 15.1175 18.8091 16.0601 18.4674C16.8998 19.2886 17.8716 19.6718 18.64 19.8494C19.4266 20.0313 20 19.9975 20 19.9975C20 19.9975 19.6247 19.6223 19.2805 18.953C19.0119 18.4307 18.7623 17.7293 18.7248 16.8876C20.0083 15.7375 20.8426 14.2021 20.9799 12.4984C21.0021 12.2231 21.2239 11.9988 21.5 11.9988C21.7761 11.9988 22.0018 12.2231 21.9828 12.4986C21.8554 14.3394 21.0297 15.9964 19.7674 17.2749C19.857 17.8419 20.0602 18.3134 20.262 18.6653C20.3869 18.8832 20.5083 19.0499 20.5946 19.1581C20.6375 19.212 20.6712 19.2506 20.6915 19.2731C20.7016 19.2844 20.7083 19.2915 20.7111 19.2944L20.712 19.2953C20.9866 19.5737 21.0738 19.987 20.9347 20.3529C20.7948 20.721 20.4518 20.9727 20.0587 20.9958L20.0077 20.9981C19.982 20.9989 19.9478 20.9997 19.9059 20.9999C19.8222 21.0004 19.707 20.9986 19.5659 20.9905C19.2847 20.9743 18.8958 20.9327 18.4466 20.831C17.6863 20.659 16.7255 20.3084 15.8286 19.5951C14.9372 19.8568 13.9858 19.9977 13 19.9977Z" fill="#000000"/>
<path d="M8 10C8 10.5523 7.55228 11 7 11C6.44772 11 6 10.5523 6 10C6 9.44772 6.44772 9 7 9C7.55228 9 8 9.44772 8 10Z" fill="#000000"/>
<path d="M12 10C12 10.5523 11.5523 11 11 11C10.4477 11 10 10.5523 10 10C10 9.44772 10.4477 9 11 9C11.5523 9 12 9.44772 12 10Z" fill="#000000"/>
<path d="M16 10C16 10.5523 15.5523 11 15 11C14.4477 11 14 10.5523 14 10C14 9.44772 14.4477 9 15 9C15.5523 9 16 9.44772 16 10Z" fill="#000000"/>
</svg>
