<svg width="24" height="24" viewBox="0 0 24 24" fill="none" xmlns="http://www.w3.org/2000/svg">
<path fill-rule="evenodd" clip-rule="evenodd" d="M12 21C16.9706 21 21 16.9706 21 12C21 7.02944 16.9706 3 12 3C7.02944 3 3 7.02944 3 12C3 16.9706 7.02944 21 12 21ZM12 22C17.5228 22 22 17.5228 22 12C22 6.47715 17.5228 2 12 2C6.47715 2 2 6.47715 2 12C2 17.5228 6.47715 22 12 22Z" fill="#000000"/>
<path fill-rule="evenodd" clip-rule="evenodd" d="M12 4.5C12.2761 4.5 12.5 4.72386 12.5 5V12C12.5 12.1326 12.4473 12.2598 12.3536 12.3536L8.35355 16.3536C8.15829 16.5488 7.84171 16.5488 7.64645 16.3536C7.45118 16.1583 7.45118 15.8417 7.64645 15.6464L11.5 11.7929V5C11.5 4.72386 11.7239 4.5 12 4.5Z" fill="#000000"/>
</svg>
