<svg width="24" height="24" viewBox="0 0 24 24" fill="none" xmlns="http://www.w3.org/2000/svg">
<path fill-rule="evenodd" clip-rule="evenodd" d="M12.3803 6.82617C11.8319 7.53993 10.9697 8 10 8C8.34315 8 7 6.65685 7 5C7 3.34315 8.34315 2 10 2C11.2071 2 12.2478 2.71297 12.7237 3.74078C12.7377 3.77101 12.7512 3.8015 12.7642 3.83226C12.9161 4.19118 13 4.58579 13 5C13 5.68716 12.769 6.32036 12.3803 6.82617ZM12 5C12 6.10457 11.1046 7 10 7C8.89543 7 8 6.10457 8 5C8 3.89543 8.89543 3 10 3C11.1046 3 12 3.89543 12 5Z" fill="#000000"/>
<path fill-rule="evenodd" clip-rule="evenodd" d="M15 11C15 9.89543 14.1046 9 13 9H7C5.89543 9 5 9.89543 5 11V14.0769C5 15.1815 5.89543 16.0769 7 16.0769V20C7 21.1046 7.89543 22 9 22H11C12.1046 22 13 21.1046 13 20V16.0769C14.1046 16.0769 15 15.1815 15 14.0769V11ZM14 11C14 10.4477 13.5523 10 13 10H7C6.44772 10 6 10.4477 6 11V14.0769C6 14.6292 6.44772 15.0769 7 15.0769C7.55228 15.0769 8 15.5246 8 16.0769V20C8 20.5523 8.44772 21 9 21H11C11.5523 21 12 20.5523 12 20V16.0769C12 15.5246 12.4477 15.0769 13 15.0769C13.5523 15.0769 14 14.6292 14 14.0769V11Z" fill="#000000"/>
<path d="M13.5 20.9845C13.5819 20.9947 13.6653 21 13.75 21H15.25C16.3546 21 17.25 20.1046 17.25 19V15.6113C18.2273 15.547 19 14.7339 19 13.7404V11C19 9.89543 18.1046 9 17 9H15.7324C15.9026 9.29417 16 9.63571 16 10H17C17.5523 10 18 10.4477 18 11V13.7404C18 14.2236 17.6082 14.6154 17.125 14.6154C16.6418 14.6154 16.25 15.0071 16.25 15.4904V19C16.25 19.5523 15.8023 20 15.25 20H13.75C13.6637 20 13.5799 19.9891 13.5 19.9685V20.9845Z" fill="#000000"/>
<path d="M13.9036 4.12324C13.8295 3.79186 13.7143 3.47599 13.5636 3.18129C13.8528 3.06437 14.1689 3 14.5 3C15.8807 3 17 4.11929 17 5.5C17 6.88071 15.8807 8 14.5 8C13.9713 8 13.481 7.83589 13.0771 7.55584C13.2901 7.29964 13.4718 7.01641 13.6161 6.71206C13.864 6.89313 14.1695 7 14.5 7C15.3284 7 16 6.32843 16 5.5C16 4.67157 15.3284 4 14.5 4C14.2881 4 14.0864 4.04395 13.9036 4.12324Z" fill="#000000"/>
</svg>
