<svg width="24" height="24" viewBox="0 0 24 24" fill="none" xmlns="http://www.w3.org/2000/svg">
<path d="M19.7648 20C19.3566 20 19.1304 19.5073 19.3654 19.1735C20.3953 17.7099 21 15.9256 21 14C21 9.02944 16.9706 5 12 5C7.02944 5 3 9.02944 3 14C3 15.9256 3.60472 17.7099 4.63461 19.1735C4.86956 19.5073 4.64345 20 4.23519 20C4.08666 20 3.9462 19.9305 3.85981 19.8097C2.68899 18.1722 2 16.1665 2 14C2 8.47715 6.47715 4 12 4C17.5228 4 22 8.47715 22 14C22 16.1665 21.311 18.1722 20.1402 19.8097C20.0538 19.9305 19.9133 20 19.7648 20Z" fill="#000000"/>
<path d="M10.5517 14.6207L12 11L13.4483 14.6207C13.7901 14.9795 14 15.4653 14 16C14 17.1046 13.1046 18 12 18C10.8954 18 10 17.1046 10 16C10 15.4653 10.2099 14.9795 10.5517 14.6207Z" fill="#000000"/>
<path d="M8.71059 7.66615C8.60368 7.40605 8.7154 7.10636 8.97543 6.9993C9.2356 6.8922 9.52857 7.02573 9.63554 7.28595L10.0176 8.21533C10.12 8.46447 9.98493 8.74713 9.73585 8.84969C9.48667 8.95229 9.19503 8.84479 9.09259 8.59555L8.71059 7.66615Z" fill="#000000"/>
<path d="M7.77638 10.1574C7.96693 9.96682 7.98119 9.65509 7.79064 9.46454L7.08045 8.75434C6.88161 8.55551 6.561 8.54428 6.36217 8.74313C6.16332 8.94198 6.17454 9.26263 6.37338 9.46148L7.08354 10.1716C7.27409 10.3622 7.58583 10.3479 7.77638 10.1574Z" fill="#000000"/>
<path d="M6.47579 12.0998C6.57917 11.8509 6.47259 11.559 6.22368 11.4558L5.29531 11.0709C5.03556 10.9632 4.73555 11.074 4.6277 11.3336C4.51979 11.5935 4.65241 11.8868 4.91229 11.9946L5.84057 12.3795C6.08938 12.4827 6.37244 12.3485 6.47579 12.0998Z" fill="#000000"/>
<path d="M17.5623 12.0998C17.6656 12.3485 17.9487 12.4826 18.1975 12.3795L19.1257 11.9946C19.3856 11.8869 19.5182 11.5935 19.4103 11.3337C19.3024 11.074 19.0024 10.9632 18.7427 11.0709L17.8144 11.4558C17.5655 11.559 17.4589 11.8509 17.5623 12.0998Z" fill="#000000"/>
<path d="M16.2617 10.1574C16.4523 10.3479 16.764 10.3622 16.9545 10.1716L17.6646 9.46151C17.8635 9.26266 17.8747 8.94202 17.6759 8.74316C17.477 8.54432 17.1564 8.55554 16.9576 8.75438L16.2474 9.46452C16.0569 9.65507 16.0712 9.9668 16.2617 10.1574Z" fill="#000000"/>
<path d="M14.3022 8.84969C14.5514 8.95229 14.843 8.8448 14.9454 8.59559L15.3274 7.66615C15.4343 7.40607 15.3226 7.10639 15.0626 6.99934C14.8025 6.89223 14.5095 7.02575 14.4026 7.28596L14.0206 8.21537C13.9182 8.46449 14.0532 8.74712 14.3022 8.84969Z" fill="#000000"/>
<path d="M12.019 8.4C12.2886 8.4 12.519 8.18951 12.519 7.91998V6.91575C12.519 6.63455 12.3002 6.4 12.019 6.4C11.7379 6.4 11.519 6.63449 11.519 6.91562V7.91998C11.519 8.18951 11.7495 8.4 12.019 8.4Z" fill="#000000"/>
</svg>
