<svg width="24" height="24" viewBox="0 0 24 24" fill="none" xmlns="http://www.w3.org/2000/svg">
<path fill-rule="evenodd" clip-rule="evenodd" d="M18.2929 9.2929C18.6834 8.90237 19.3166 8.90237 19.7071 9.2929C20.0976 9.68342 20.0976 10.3166 19.7071 10.7071L12.7071 17.7071C12.3166 18.0976 11.6834 18.0976 11.2929 17.7071L4.29289 10.7071C3.90236 10.3166 3.90236 9.68342 4.29289 9.2929C4.68341 8.90237 5.31658 8.90237 5.7071 9.2929L11 14.5858L11 3C11 2.44771 11.4477 2 12 2C12.5523 2 13 2.44772 13 3V14.5858L18.2929 9.2929Z" fill="#000000"/>
<path fill-rule="evenodd" clip-rule="evenodd" d="M2 20C2 19.4477 2.44772 19 3 19H21C21.5523 19 22 19.4477 22 20C22 20.5523 21.5523 21 21 21H3C2.44772 21 2 20.5523 2 20Z" fill="#000000"/>
</svg>
