<svg width="24" height="24" viewBox="0 0 24 24" fill="none" xmlns="http://www.w3.org/2000/svg">
<path fill-rule="evenodd" clip-rule="evenodd" d="M2.29289 17.7071C2.10536 17.8946 2 18.149 2 18.4142V21C2 21.5523 2.44772 22 3 22H5.58579C5.851 22 6.10536 21.8946 6.29289 21.7071L21.2929 6.70708C21.6834 6.31655 21.6834 5.68339 21.2929 5.29286L18.7071 2.70708C18.3166 2.31655 17.6834 2.31655 17.2929 2.70708L2.29289 17.7071ZM3 18.4142V21H5.58579L20.5858 5.99997L18 3.41418L3 18.4142Z" fill="#000000"/>
<path fill-rule="evenodd" clip-rule="evenodd" d="M18 10L14 6L14.7071 5.29289L18.7071 9.29289L18 10Z" fill="#000000"/>
</svg>
