<svg width="24" height="24" viewBox="0 0 24 24" fill="none" xmlns="http://www.w3.org/2000/svg">
<path fill-rule="evenodd" clip-rule="evenodd" d="M20 6H4C3.9244 6 3.85076 6.00839 3.77997 6.02429L11.6678 13.0357C11.8573 13.2041 12.1428 13.2041 12.3322 13.0357L20.2201 6.0243C20.1493 6.00839 20.0756 6 20 6ZM3 7C3 6.89825 3.0152 6.80006 3.04344 6.70755L8.99744 12L3.04344 17.2924C3.0152 17.1999 3 17.1017 3 17V7ZM3.77997 17.9757C3.85076 17.9916 3.9244 18 4 18H20C20.0756 18 20.1493 17.9916 20.2201 17.9757L14.25 12.669L12.9966 13.7831C12.4282 14.2883 11.5718 14.2883 11.0035 13.7831L9.75004 12.669L3.77997 17.9757ZM15.0026 12L20.9566 17.2924C20.9848 17.1999 21 17.1017 21 17V7C21 6.89827 20.9848 6.80008 20.9566 6.70759L15.0026 12ZM4 5C2.89543 5 2 5.89543 2 7V17C2 18.1046 2.89543 19 4 19H20C21.1046 19 22 18.1046 22 17V7C22 5.89543 21.1046 5 20 5H4Z" fill="#000000"/>
</svg>
