<svg width="24" height="24" viewBox="0 0 24 24" fill="none" xmlns="http://www.w3.org/2000/svg">
<path fill-rule="evenodd" clip-rule="evenodd" d="M11 4C11 3.72386 10.7761 3.5 10.5 3.5H5C4.17157 3.5 3.5 4.17157 3.5 5V19C3.5 19.8284 4.17157 20.5 5 20.5H19C19.8284 20.5 20.5 19.8284 20.5 19V13.5C20.5 13.2239 20.2761 13 20 13C19.7239 13 19.5 13.2239 19.5 13.5V19C19.5 19.2761 19.2761 19.5 19 19.5H5C4.72386 19.5 4.5 19.2761 4.5 19V5C4.5 4.72386 4.72386 4.5 5 4.5H10.5C10.7761 4.5 11 4.27614 11 4Z" fill="#000000"/>
<path fill-rule="evenodd" clip-rule="evenodd" d="M15.5001 3.5L20.0001 3.5C20.2762 3.5 20.5001 3.72386 20.5001 4L20.5001 8.5C20.5001 8.77614 20.2762 9 20.0001 9C19.7239 9 19.5001 8.77614 19.5001 8.5L19.5001 5.20711L12.3536 12.3536C12.1584 12.5488 11.8418 12.5488 11.6465 12.3536C11.4513 12.1583 11.4513 11.8417 11.6465 11.6464L18.793 4.5L15.5001 4.5C15.2239 4.5 15.0001 4.27614 15.0001 4C15.0001 3.72386 15.2239 3.5 15.5001 3.5Z" fill="#000000"/>
</svg>
