<svg width="24" height="24" viewBox="0 0 24 24" fill="none" xmlns="http://www.w3.org/2000/svg">
<path fill-rule="evenodd" clip-rule="evenodd" d="M20 19C20 20.1046 19.1046 21 18 21H6C4.89543 21 4 20.1046 4 19V4C4 2.89543 4.89543 2 6 2H13.1716C13.702 2 14.2107 2.21071 14.5858 2.58579L19.4142 7.41421C19.7893 7.78929 20 8.29799 20 8.82843V19ZM6 20H18C18.5523 20 19 19.5523 19 19V9H15.5C14.1193 9 13 7.88071 13 6.5V3H6C5.44772 3 5 3.44772 5 4V19C5 19.5523 5.44771 20 6 20ZM14 3.41421V6.5C14 7.32843 14.6716 8 15.5 8H18.5858L14 3.41421Z" fill="#000000"/>
</svg>
