<svg width="24" height="24" viewBox="0 0 24 24" fill="none" xmlns="http://www.w3.org/2000/svg">
<mask id="path-2-inside-1" fill="white">
<path fill-rule="evenodd" clip-rule="evenodd" d="M13.3149 12.714L13.3149 18.8957L10.6853 20.0094L10.6853 12.7141L4.00361 4L19.9965 4L13.3149 12.714ZM9.68532 13.0534L3.21005 4.60848C2.70564 3.95065 3.17466 3 4.00361 3H19.9965C20.8255 3 21.2945 3.95065 20.7901 4.60848L14.3149 13.0533V18.8957C14.3149 19.2973 14.0747 19.6599 13.7049 19.8165L11.0753 20.9303C10.4159 21.2095 9.68532 20.7255 9.68532 20.0094V13.0534Z"/>
</mask>
<path d="M13.3149 12.714H12.3149L12.3149 12.3748L12.5213 12.1055L13.3149 12.714ZM13.3149 18.8957H14.3149V19.5582L13.7049 19.8165L13.3149 18.8957ZM10.6853 20.0094L11.0753 20.9303L9.68532 21.519V20.0094H10.6853ZM10.6853 12.7141L11.4789 12.1057L11.6853 12.3749V12.7141H10.6853ZM4.00361 4L3.21005 4.60848L1.97672 3L4.00361 3V4ZM19.9965 4L19.9965 3L22.0234 3L20.7901 4.60848L19.9965 4ZM3.21005 4.60848L4.00361 4V4L3.21005 4.60848ZM9.68532 13.0534L10.4789 12.4449L10.6853 12.7141V13.0534H9.68532ZM20.7901 4.60848L19.9965 4L20.7901 4.60848ZM14.3149 13.0533H13.3149V12.714L13.5213 12.4448L14.3149 13.0533ZM13.7049 19.8165L14.0949 20.7373H14.0949L13.7049 19.8165ZM11.0753 20.9303L10.6853 20.0094L11.0753 20.9303ZM10.2953 19.0886L12.9249 17.9749L13.7049 19.8165L11.0753 20.9303L10.2953 19.0886ZM19.9965 5L4.00361 5V3L19.9965 3L19.9965 5ZM4.00361 4L10.4789 12.4449L8.89175 13.6619L2.41648 5.21696L4.00361 4ZM4.00361 4V4L2.41648 5.21696C1.40767 3.90129 2.3457 2 4.00361 2V4ZM19.9965 4H4.00361V2H19.9965V4ZM19.9965 4L19.9965 4V2C21.6544 2 22.5925 3.9013 21.5837 5.21696L19.9965 4ZM13.5213 12.4448L19.9965 4L21.5837 5.21696L15.1085 13.6618L13.5213 12.4448ZM13.3149 18.8957V13.0533H15.3149V18.8957H13.3149ZM13.3149 18.8957L13.3149 18.8957H15.3149C15.3149 19.6988 14.8345 20.4241 14.0949 20.7373L13.3149 18.8957ZM10.6853 20.0094L13.3149 18.8957L14.0949 20.7373L11.4653 21.8511L10.6853 20.0094ZM10.6853 20.0094L10.6853 20.0094L11.4653 21.8511C10.1466 22.4096 8.68532 21.4416 8.68532 20.0094H10.6853ZM10.6853 13.0534V20.0094H8.68532V13.0534H10.6853ZM12.3149 18.8957L12.3149 12.714H14.3149L14.3149 18.8957H12.3149ZM11.6853 12.7141L11.6853 20.0094H9.68532L9.68532 12.7141H11.6853ZM4.79718 3.39152L11.4789 12.1057L9.89175 13.3226L3.21005 4.60848L4.79718 3.39152ZM12.5213 12.1055L19.2029 3.39152L20.7901 4.60848L14.1085 13.3225L12.5213 12.1055Z" fill="#000000" mask="url(#path-2-inside-1)"/>
</svg>
