<svg width="24" height="24" viewBox="0 0 24 24" fill="none" xmlns="http://www.w3.org/2000/svg">
<path d="M12.4305 13.9533L14.6276 9.98667C14.6579 9.93195 14.6988 9.88374 14.7477 9.8448C14.7967 9.80585 14.8528 9.77693 14.913 9.75968C14.9731 9.74244 15.036 9.73721 15.0982 9.74429C15.1604 9.75137 15.2205 9.77062 15.2752 9.80095C15.33 9.83128 15.3782 9.87209 15.4171 9.92105C15.4561 9.97001 15.485 10.0262 15.5022 10.0863C15.5195 10.1464 15.5247 10.2094 15.5176 10.2715C15.5105 10.3337 15.4913 10.3939 15.461 10.4486L13.2752 14.3943C13.6195 14.7048 13.8387 15.1302 13.8917 15.5907C13.9448 16.0512 13.8281 16.5153 13.5634 16.896C13.2988 17.2766 12.9045 17.5477 12.4543 17.6584C12.0041 17.7691 11.529 17.7118 11.1181 17.4973C10.7071 17.2827 10.3885 16.9257 10.2219 16.4931C10.0553 16.0605 10.0523 15.5819 10.2133 15.1472C10.3743 14.7125 10.6883 14.3514 11.0964 14.1316C11.5046 13.9118 11.9789 13.8484 12.4305 13.9533V13.9533ZM2 12C2 6.47714 6.47714 2 12 2C17.5229 2 22 6.47714 22 12C22 17.5229 17.5229 22 12 22C6.47714 22 2 17.5229 2 12ZM2.95238 12C2.95238 14.3996 3.90561 16.7009 5.60237 18.3976C7.29912 20.0944 9.60042 21.0476 12 21.0476C14.3996 21.0476 16.7009 20.0944 18.3976 18.3976C20.0944 16.7009 21.0476 14.3996 21.0476 12C21.0476 9.60042 20.0944 7.29912 18.3976 5.60237C16.7009 3.90561 14.3996 2.95238 12 2.95238C9.60042 2.95238 7.29912 3.90561 5.60237 5.60237C3.90561 7.29912 2.95238 9.60042 2.95238 12V12ZM12 16.7619C12.2526 16.7619 12.4948 16.6616 12.6734 16.483C12.852 16.3044 12.9524 16.0621 12.9524 15.8095C12.9524 15.5569 12.852 15.3147 12.6734 15.1361C12.4948 14.9575 12.2526 14.8571 12 14.8571C11.7474 14.8571 11.5052 14.9575 11.3266 15.1361C11.148 15.3147 11.0476 15.5569 11.0476 15.8095C11.0476 16.0621 11.148 16.3044 11.3266 16.483C11.5052 16.6616 11.7474 16.7619 12 16.7619V16.7619ZM19.1429 12C19.1429 12.1263 19.0927 12.2474 19.0034 12.3367C18.9141 12.426 18.793 12.4762 18.6667 12.4762C18.5404 12.4762 18.4193 12.426 18.3299 12.3367C18.2406 12.2474 18.1905 12.1263 18.1905 12C18.1905 10.3582 17.5383 8.78361 16.3773 7.62267C15.2164 6.46173 13.6418 5.80952 12 5.80952C10.3582 5.80952 8.78361 6.46173 7.62267 7.62267C6.46173 8.78361 5.80952 10.3582 5.80952 12C5.80952 12.1263 5.75935 12.2474 5.67005 12.3367C5.58075 12.426 5.45963 12.4762 5.33333 12.4762C5.20704 12.4762 5.08592 12.426 4.99662 12.3367C4.90731 12.2474 4.85714 12.1263 4.85714 12C4.85714 10.1056 5.60969 8.28878 6.94924 6.94924C8.28878 5.60969 10.1056 4.85714 12 4.85714C13.8944 4.85714 15.7112 5.60969 17.0508 6.94924C18.3903 8.28878 19.1429 10.1056 19.1429 12V12Z" fill="#000000"/>
</svg>
