<svg width="24" height="24" viewBox="0 0 24 24" fill="none" xmlns="http://www.w3.org/2000/svg">
<path d="M23 11.533C23 12.199 22.833 12.533 22.5 12.533C22.167 12.533 22 12.199 22 11.533V9C22 8.46957 21.7893 7.96086 21.4142 7.58579C21.0391 7.21071 20.5304 7 20 7H6C5.46957 7 4.96086 7.21071 4.58579 7.58579C4.21071 7.96086 4 8.46957 4 9V15C4 15.5304 4.21071 16.0391 4.58579 16.4142C4.96086 16.7893 5.46957 17 6 17H14.922C15.589 16.99 15.922 17.156 15.922 17.5C15.922 17.844 15.589 18.01 14.922 18H6C5.20435 18 4.44129 17.6839 3.87868 17.1213C3.31607 16.5587 3 15.7956 3 15V9C3 8.20435 3.31607 7.44129 3.87868 6.87868C4.44129 6.31607 5.20435 6 6 6H20C20.7956 6 21.5587 6.31607 22.1213 6.87868C22.6839 7.44129 23 8.20435 23 9V11.533ZM21.149 19.414L22.417 18.146C22.5109 18.0522 22.6382 17.9996 22.7709 17.9997C22.9035 17.9998 23.0307 18.0526 23.1245 18.1465C23.2183 18.2404 23.2709 18.3677 23.2708 18.5004C23.2707 18.633 23.2179 18.7602 23.124 18.854L21.002 20.974C20.9541 21.0222 20.8968 21.0601 20.8337 21.0854C20.7706 21.1107 20.703 21.1228 20.635 21.121C20.5671 21.1229 20.4995 21.111 20.4364 21.0859C20.3733 21.0608 20.316 21.023 20.268 20.975L18.146 18.854C18.0995 18.8075 18.0626 18.7523 18.0375 18.6916C18.0123 18.6308 17.9994 18.5657 17.9994 18.5C17.9994 18.4343 18.0123 18.3692 18.0375 18.3084C18.0626 18.2477 18.0995 18.1925 18.146 18.146C18.1925 18.0995 18.2477 18.0626 18.3084 18.0375C18.3692 18.0123 18.4343 17.9994 18.5 17.9994C18.5657 17.9994 18.6308 18.0123 18.6916 18.0375C18.7523 18.0626 18.8075 18.0995 18.854 18.146L20.149 19.442V14.5C20.149 14.3674 20.2017 14.2402 20.2954 14.1464C20.3892 14.0527 20.5164 14 20.649 14C20.7816 14 20.9088 14.0527 21.0026 14.1464C21.0963 14.2402 21.149 14.3674 21.149 14.5V19.414ZM20 7C20 6.46957 19.7893 5.96086 19.4142 5.58579C19.0391 5.21071 18.5304 5 18 5H4C3.46957 5 2.96086 5.21071 2.58579 5.58579C2.21071 5.96086 2 6.46957 2 7V13C2 13.5304 2.21071 14.0391 2.58579 14.4142C2.96086 14.7893 3.46957 15 4 15V16C3.20435 16 2.44129 15.6839 1.87868 15.1213C1.31607 14.5587 1 13.7956 1 13V7C1 6.20435 1.31607 5.44129 1.87868 4.87868C2.44129 4.31607 3.20435 4 4 4H18C18.7956 4 19.5587 4.31607 20.1213 4.87868C20.6839 5.44129 21 6.20435 21 7H20ZM13 15.5C12.0717 15.5 11.1815 15.1313 10.5251 14.4749C9.86875 13.8185 9.5 12.9283 9.5 12C9.5 11.0717 9.86875 10.1815 10.5251 9.52513C11.1815 8.86875 12.0717 8.5 13 8.5C13.9283 8.5 14.8185 8.86875 15.4749 9.52513C16.1313 10.1815 16.5 11.0717 16.5 12C16.5 12.9283 16.1313 13.8185 15.4749 14.4749C14.8185 15.1313 13.9283 15.5 13 15.5ZM13 14.5C13.663 14.5 14.2989 14.2366 14.7678 13.7678C15.2366 13.2989 15.5 12.663 15.5 12C15.5 11.337 15.2366 10.7011 14.7678 10.2322C14.2989 9.76339 13.663 9.5 13 9.5C12.337 9.5 11.7011 9.76339 11.2322 10.2322C10.7634 10.7011 10.5 11.337 10.5 12C10.5 12.663 10.7634 13.2989 11.2322 13.7678C11.7011 14.2366 12.337 14.5 13 14.5Z" fill="#000000"/>
</svg>
