<svg width="24" height="24" viewBox="0 0 24 24" fill="none" xmlns="http://www.w3.org/2000/svg">
<path fill-rule="evenodd" clip-rule="evenodd" d="M12 20C16.4183 20 20 16.4183 20 12C20 7.58172 16.4183 4 12 4C7.58172 4 4 7.58172 4 12C4 16.4183 7.58172 20 12 20ZM12 21C16.9706 21 21 16.9706 21 12C21 7.02944 16.9706 3 12 3C7.02944 3 3 7.02944 3 12C3 16.9706 7.02944 21 12 21Z" fill="#000000"/>
<path d="M10.5 9.5C10.5 10.3284 9.82843 11 9 11C8.17157 11 7.5 10.3284 7.5 9.5C7.5 8.67157 8.17157 8 9 8C9.82843 8 10.5 8.67157 10.5 9.5Z" fill="#000000"/>
<path d="M16.5 9.5C16.5 10.3284 15.8284 11 15 11C14.1716 11 13.5 10.3284 13.5 9.5C13.5 8.67157 14.1716 8 15 8C15.8284 8 16.5 8.67157 16.5 9.5Z" fill="#000000"/>
<path fill-rule="evenodd" clip-rule="evenodd" d="M11.9999 16C13.6066 16 14.8758 15.2295 15.32 14.2869C15.4378 14.0371 15.7357 13.93 15.9855 14.0477C16.2353 14.1654 16.3423 14.4634 16.2246 14.7131C15.5706 16.1009 13.8765 17 11.9999 17C10.1234 17 8.42927 16.1009 7.77526 14.7132C7.65754 14.4634 7.76461 14.1654 8.0144 14.0477C8.2642 13.93 8.56213 14.0371 8.67985 14.2869C9.12407 15.2295 10.3933 16 11.9999 16Z" fill="#000000"/>
</svg>
