<svg width="24" height="24" viewBox="0 0 24 24" fill="none" xmlns="http://www.w3.org/2000/svg">
<path fill-rule="evenodd" clip-rule="evenodd" d="M12.02 7.62823C12.394 7.6264 12.7356 7.41609 12.9057 7.08307C13.5041 5.91142 14.0431 5.16163 14.6471 4.69383C15.2179 4.25172 15.9278 4 17.0076 4C19.2424 4 21 5.73773 21 7.82741C21 9.69328 20.1141 11.6665 18.5735 13.7826C17.0394 15.8898 14.9444 18.0216 12.6981 20.2007C12.3163 20.5711 11.709 20.5718 11.3267 20.2028C9.06889 18.0236 6.96747 15.8912 5.43016 13.7838C3.88635 11.6674 3 9.69367 3 7.82741C3 5.73773 4.75763 4 6.99244 4C8.07161 4 8.78271 4.25146 9.35852 4.69526C9.96824 5.1652 10.5148 5.9176 11.1291 7.0918C11.3024 7.42313 11.6461 7.63007 12.02 7.62823ZM12.5915 5.59571C12.3963 5.91094 12.2057 6.25508 12.0151 6.62824C11.8208 6.25688 11.6273 5.91426 11.4297 5.60028C10.3353 3.86053 9.11984 3 6.99244 3C4.23903 3 2 5.15235 2 7.82741C2 12.1824 6.1153 16.5627 10.6322 20.9223C11.4029 21.6662 12.6256 21.6643 13.3944 20.9185C17.8871 16.5601 22 12.1811 22 7.82741C22 5.15235 19.761 3 17.0076 3C14.882 3 13.6668 3.85902 12.5915 5.59571Z" fill="#000000"/>
</svg>
