<svg width="24" height="24" viewBox="0 0 24 24" fill="none" xmlns="http://www.w3.org/2000/svg">
<path fill-rule="evenodd" clip-rule="evenodd" d="M19.739 3.64645C19.9342 3.84171 19.9342 4.15829 19.739 4.35355L17.0415 7.05102C19.2184 8.02139 20.7734 9.45616 21.7472 10.4344C22.331 11.0209 22.331 11.9791 21.7472 12.5656C20.1508 14.1693 16.9922 17 12.0925 17C10.4968 17 9.08567 16.6997 7.85309 16.2394L4.44606 19.6464C4.2508 19.8417 3.93422 19.8417 3.73895 19.6464C3.54369 19.4512 3.54369 19.1346 3.73895 18.9393L6.85995 15.8183C4.83098 14.8533 3.36876 13.5008 2.43784 12.5656C1.85405 11.9791 1.85405 11.0209 2.43784 10.4344C4.03418 8.83066 7.19284 6 12.0925 6C13.5582 6 14.8681 6.2533 16.027 6.6513L19.0318 3.64645C19.2271 3.45118 19.5437 3.45118 19.739 3.64645ZM15.231 7.44729C14.2856 7.16927 13.2406 7 12.0925 7C7.60865 7 4.69731 9.58195 3.14659 11.1399C2.95114 11.3362 2.95114 11.6638 3.14659 11.8601C4.10243 12.8204 5.57523 14.1698 7.61459 15.0637L8.48623 14.1921C7.92491 13.4413 7.59251 12.5095 7.59251 11.5C7.59251 9.01472 9.60722 7 12.0925 7C13.102 7 14.0338 7.3324 14.7846 7.89372L15.231 7.44729ZM14.0679 8.61036C13.5057 8.22527 12.8254 8 12.0925 8C10.1595 8 8.59251 9.567 8.59251 11.5C8.59251 12.2329 8.81778 12.9132 9.20287 13.4754L10.678 12.0003C10.6226 11.8438 10.5925 11.6754 10.5925 11.5C10.5925 10.6716 11.2641 10 12.0925 10C12.2679 10 12.4363 10.0301 12.5928 10.0855L14.0679 8.61036ZM13.3734 10.7191L14.8048 9.28771C15.2972 9.89065 15.5925 10.6608 15.5925 11.5C15.5925 13.433 14.0255 15 12.0925 15C11.2533 15 10.4832 14.7047 9.88022 14.2123L11.3116 12.7809C11.539 12.9199 11.8064 13 12.0925 13C12.9209 13 13.5925 12.3284 13.5925 11.5C13.5925 11.2139 13.5124 10.9465 13.3734 10.7191ZM12.0925 12L12.5925 11.5C12.5925 11.7761 12.3686 12 12.0925 12ZM9.1703 14.9222L8.63792 15.4546C9.66506 15.7904 10.815 16 12.0925 16C16.5764 16 19.4877 13.418 21.0384 11.8601C21.2339 11.6638 21.2339 11.3362 21.0384 11.1399C20.0377 10.1345 18.4702 8.70255 16.2791 7.81337L15.5147 8.5778C16.1867 9.36403 16.5925 10.3846 16.5925 11.5C16.5925 13.9853 14.5778 16 12.0925 16C10.9771 16 9.95654 15.5942 9.1703 14.9222Z" fill="#000000"/>
</svg>
