<svg width="24" height="24" viewBox="0 0 24 24" fill="none" xmlns="http://www.w3.org/2000/svg">
<path fill-rule="evenodd" clip-rule="evenodd" d="M12 21C16.9706 21 21 16.9706 21 12C21 7.02944 16.9706 3 12 3C7.02944 3 3 7.02944 3 12C3 16.9706 7.02944 21 12 21ZM12 22C17.5228 22 22 17.5228 22 12C22 6.47715 17.5228 2 12 2C6.47715 2 2 6.47715 2 12C2 17.5228 6.47715 22 12 22Z" fill="#000000"/>
<path d="M12.712 9.568V17.672H11.288V9.568H12.712ZM13.032 7.024C13.032 7.16267 13.0027 7.29333 12.944 7.416C12.8907 7.53333 12.816 7.64 12.72 7.736C12.6293 7.82667 12.5227 7.89867 12.4 7.952C12.2773 8.00533 12.1467 8.032 12.008 8.032C11.8693 8.032 11.7387 8.00533 11.616 7.952C11.4987 7.89867 11.392 7.82667 11.296 7.736C11.2053 7.64 11.1333 7.53333 11.08 7.416C11.0267 7.29333 11 7.16267 11 7.024C11 6.88533 11.0267 6.75467 11.08 6.632C11.1333 6.504 11.2053 6.39467 11.296 6.304C11.392 6.208 11.4987 6.13333 11.616 6.08C11.7387 6.02667 11.8693 6 12.008 6C12.1467 6 12.2773 6.02667 12.4 6.08C12.5227 6.13333 12.6293 6.208 12.72 6.304C12.816 6.39467 12.8907 6.504 12.944 6.632C13.0027 6.75467 13.032 6.88533 13.032 7.024Z" fill="#000000"/>
</svg>
