<svg width="24" height="24" viewBox="0 0 24 24" fill="none" xmlns="http://www.w3.org/2000/svg">
<path fill-rule="evenodd" clip-rule="evenodd" d="M14 3V6.5C14 7.32843 14.6716 8 15.5 8H19.5V9H15.5C14.1193 9 13 7.88071 13 6.5V3H14Z" fill="#000000"/>
<path d="M14 20H6C5.44771 20 5 19.5523 5 19V4C5 3.44772 5.44772 3 6 3H13.1716C13.4368 3 13.6911 3.10536 13.8787 3.29289L18.7071 8.12132C18.8946 8.30886 19 8.56321 19 8.82843V13H20V8.82843C20 8.29799 19.7893 7.78929 19.4142 7.41421L14.5858 2.58579C14.2107 2.21071 13.702 2 13.1716 2H6C4.89543 2 4 2.89543 4 4V19C4 20.1046 4.89543 21 6 21H14V20Z" fill="#000000"/>
<path fill-rule="evenodd" clip-rule="evenodd" d="M18.5 14.5C18.7761 14.5 19 14.7239 19 15V20.7929L20.1464 19.6464C20.3417 19.4512 20.6583 19.4512 20.8536 19.6464C21.0488 19.8417 21.0488 20.1583 20.8536 20.3535L18.8536 22.3535C18.7598 22.4473 18.6326 22.5 18.5 22.5C18.3674 22.5 18.2402 22.4473 18.1464 22.3535L16.1464 20.3535C15.9512 20.1583 15.9512 19.8417 16.1464 19.6464C16.3417 19.4512 16.6583 19.4512 16.8536 19.6464L18 20.7929V15C18 14.7239 18.2239 14.5 18.5 14.5Z" fill="#000000"/>
</svg>
