<svg width="24" height="24" viewBox="0 0 24 24" fill="none" xmlns="http://www.w3.org/2000/svg">
<path fill-rule="evenodd" clip-rule="evenodd" d="M12.5149 20.9855C12.3445 20.9951 12.1728 21 12 21C7.02944 21 3 16.9706 3 12C3 7.02944 7.02944 3 12 3C16.9706 3 21 7.02944 21 12C21 12.1728 20.9951 12.3445 20.9855 12.5149C21.3216 12.8137 21.6238 13.1497 21.8858 13.5165C21.961 13.022 22 12.5155 22 12C22 6.47715 17.5228 2 12 2C6.47715 2 2 6.47715 2 12C2 17.5228 6.47715 22 12 22C12.5155 22 13.022 21.961 13.5165 21.8858C13.1497 21.6238 12.8137 21.3216 12.5149 20.9855Z" fill="#000000"/>
<path fill-rule="evenodd" clip-rule="evenodd" d="M17 21C19.2091 21 21 19.2091 21 17C21 14.7909 19.2091 13 17 13C14.7909 13 13 14.7909 13 17C13 19.2091 14.7909 21 17 21ZM17 22C19.7614 22 22 19.7614 22 17C22 14.2386 19.7614 12 17 12C14.2386 12 12 14.2386 12 17C12 19.7614 14.2386 22 17 22Z" fill="#000000"/>
<path fill-rule="evenodd" clip-rule="evenodd" d="M12 4.5C12.2761 4.5 12.5 4.72386 12.5 5V12C12.5 12.1326 12.4473 12.2598 12.3536 12.3536L8.35355 16.3536C8.15829 16.5488 7.84171 16.5488 7.64645 16.3536C7.45118 16.1583 7.45118 15.8417 7.64645 15.6464L11.5 11.7929V5C11.5 4.72386 11.7239 4.5 12 4.5Z" fill="#000000"/>
<path d="M17.484 14.216V16.504C17.484 16.7467 17.472 16.9853 17.448 17.22C17.424 17.452 17.392 17.6987 17.352 17.96H16.684C16.644 17.6987 16.612 17.452 16.588 17.22C16.564 16.9853 16.552 16.7467 16.552 16.504V14.216H17.484ZM16.4 19.456C16.4 19.3733 16.4147 19.2947 16.444 19.22C16.476 19.1453 16.5187 19.0813 16.572 19.028C16.628 18.9747 16.6933 18.932 16.768 18.9C16.8427 18.868 16.9227 18.852 17.008 18.852C17.0907 18.852 17.1693 18.868 17.244 18.9C17.3187 18.932 17.3827 18.9747 17.436 19.028C17.4893 19.0813 17.532 19.1453 17.564 19.22C17.596 19.2947 17.612 19.3733 17.612 19.456C17.612 19.5413 17.596 19.6213 17.564 19.696C17.532 19.768 17.4893 19.8307 17.436 19.884C17.3827 19.9373 17.3187 19.9787 17.244 20.008C17.1693 20.04 17.0907 20.056 17.008 20.056C16.9227 20.056 16.8427 20.04 16.768 20.008C16.6933 19.9787 16.628 19.9373 16.572 19.884C16.5187 19.8307 16.476 19.768 16.444 19.696C16.4147 19.6213 16.4 19.5413 16.4 19.456Z" fill="#000000"/>
</svg>
