<svg width="24" height="24" viewBox="0 0 24 24" fill="none" xmlns="http://www.w3.org/2000/svg">
<path fill-rule="evenodd" clip-rule="evenodd" d="M18.9655 10.6284C19.1708 10.4436 19.4869 10.4603 19.6716 10.6655L22.6727 14L19.6716 17.3345C19.4869 17.5397 19.1708 17.5564 18.9655 17.3716C18.7603 17.1869 18.7436 16.8708 18.9284 16.6655L20.8773 14.5H13C12.7239 14.5 12.5 14.2761 12.5 14C12.5 13.7239 12.7239 13.5 13 13.5H20.8773L18.9284 11.3345C18.7436 11.1292 18.7603 10.8131 18.9655 10.6284Z" fill="#000000"/>
<path fill-rule="evenodd" clip-rule="evenodd" d="M4.5 6C4.5 4.067 6.067 2.5 8 2.5H14C15.933 2.5 17.5 4.067 17.5 6V8.5C17.5 8.77614 17.2761 9 17 9C16.7239 9 16.5 8.77614 16.5 8.5V6C16.5 4.61929 15.3807 3.5 14 3.5H8C6.61929 3.5 5.5 4.61929 5.5 6V19C5.5 20.3807 6.61929 21.5 8 21.5H14C15.3807 21.5 16.5 20.3807 16.5 19C16.5 18.7239 16.7239 18.5 17 18.5C17.2761 18.5 17.5 18.7239 17.5 19C17.5 20.933 15.933 22.5 14 22.5H8C6.067 22.5 4.5 20.933 4.5 19V6Z" fill="#000000"/>
</svg>
