<svg width="24" height="24" viewBox="0 0 24 24" fill="none" xmlns="http://www.w3.org/2000/svg">
<path d="M16.5 17H5C4.44772 17 4 17.4477 4 18C4 18.5523 4.44772 19 5 19H16.5C17.0523 19 17.5 18.5523 17.5 18C17.5 17.4477 17.0523 17 16.5 17Z" fill="#000000"/>
<path d="M16.5 5H5C4.44772 5 4 5.44772 4 6C4 6.55228 4.44772 7 5 7H16.5C17.0523 7 17.5 6.55228 17.5 6C17.5 5.44772 17.0523 5 16.5 5Z" fill="#000000"/>
<path d="M19 11H5C4.44772 11 4 11.4477 4 12C4 12.5523 4.44772 13 5 13H19C19.5523 13 20 12.5523 20 12C20 11.4477 19.5523 11 19 11Z" fill="#000000"/>
</svg>
