<svg width="24" height="24" viewBox="0 0 24 24" fill="none" xmlns="http://www.w3.org/2000/svg">
<path fill-rule="evenodd" clip-rule="evenodd" d="M20 9H4C3.44772 9 3 9.44772 3 10V18C3 18.5523 3.44772 19 4 19H20C20.5523 19 21 18.5523 21 18V10C21 9.44772 20.5523 9 20 9ZM4 8C2.89543 8 2 8.89543 2 10V18C2 19.1046 2.89543 20 4 20H20C21.1046 20 22 19.1046 22 18V10C22 8.89543 21.1046 8 20 8H4Z" fill="#000000"/>
<path d="M6 6H18C18.5523 6 19 6.44772 19 7H20C20 5.89543 19.1046 5 18 5H6C4.89543 5 4 5.89543 4 7H5C5 6.44772 5.44772 6 6 6Z" fill="#000000"/>
<path d="M9 3H15C15.5523 3 16 3.44772 16 4H17C17 2.89543 16.1046 2 15 2H9C7.89543 2 7 2.89543 7 4H8C8 3.44772 8.44772 3 9 3Z" fill="#000000"/>
<path d="M11.1738 14.7956C11.0689 14.7981 10.9868 14.7121 11.0018 14.6153L11.5387 11.1354C11.5507 11.0577 11.6221 11 11.7064 11H13.8304C13.9546 11 14.0366 11.1205 13.9836 11.2253L12.8962 13.3721L13.803 13.3718C13.9367 13.3718 14.0177 13.5092 13.9461 13.6143L11.6893 16.9262C11.5905 17.0712 11.3493 16.9856 11.3791 16.816L11.7365 14.7822L11.1738 14.7956Z" fill="#000000"/>
</svg>
