<svg width="24" height="24" viewBox="0 0 24 24" fill="none" xmlns="http://www.w3.org/2000/svg">
<path d="M11.7788 16.4028C12.1017 16.3751 12.3854 16.3104 12.63 16.2088C12.8746 16.1026 13.08 15.9687 13.2463 15.8071C13.4175 15.6455 13.5447 15.4585 13.6279 15.2461C13.7159 15.0291 13.76 14.7913 13.76 14.5328C13.76 14.3019 13.7135 14.1034 13.6205 13.9371C13.5325 13.7709 13.4102 13.6278 13.2537 13.5077C13.0971 13.3831 12.9137 13.2792 12.7034 13.1961C12.493 13.1083 12.268 13.0275 12.0283 12.9537L11.7788 16.4028ZM11.5367 8.39638C11.2187 8.42408 10.9423 8.48411 10.7075 8.57645C10.4776 8.6688 10.2869 8.78423 10.1352 8.92275C9.98358 9.06127 9.87107 9.21826 9.79769 9.39371C9.72432 9.56455 9.68763 9.74463 9.68763 9.93394C9.68763 10.1556 9.72921 10.3495 9.81237 10.5157C9.89553 10.6773 10.0105 10.8205 10.1572 10.9451C10.304 11.0698 10.4752 11.1783 10.6709 11.2706C10.8665 11.363 11.0793 11.4461 11.3092 11.52L11.5367 8.39638ZM12.1164 11.7624C12.4686 11.8686 12.8159 11.9817 13.1583 12.1018C13.5007 12.2218 13.8089 12.3765 14.0828 12.5658C14.3567 12.7551 14.5769 12.9929 14.7432 13.2792C14.9144 13.5608 15 13.914 15 14.3388C15 14.7544 14.9266 15.1446 14.7799 15.5093C14.6331 15.8741 14.4179 16.195 14.1342 16.472C13.8553 16.7491 13.5105 16.9753 13.0996 17.1508C12.6936 17.3216 12.2289 17.4232 11.7055 17.4555L11.6174 18.6676C11.6125 18.7553 11.5758 18.8315 11.5073 18.8961C11.4389 18.9654 11.3532 19 11.2505 19H10.7662L10.8763 17.4417C10.2844 17.3863 9.74389 17.2477 9.25472 17.0261C8.77044 16.7999 8.3522 16.5136 8 16.1673L8.39623 15.5994C8.43536 15.5486 8.48428 15.507 8.54298 15.4747C8.60168 15.4424 8.66527 15.4262 8.73375 15.4262C8.82669 15.4262 8.93187 15.4701 9.04927 15.5578C9.16667 15.6455 9.31097 15.7448 9.48218 15.8556C9.65828 15.9664 9.86373 16.0749 10.0985 16.1811C10.3382 16.2873 10.6244 16.3589 10.957 16.3958L11.2212 12.7182C10.8788 12.6212 10.5412 12.5127 10.2086 12.3926C9.88085 12.2726 9.58491 12.1133 9.32076 11.9148C9.0615 11.7162 8.85115 11.4692 8.68973 11.1737C8.53319 10.8782 8.45493 10.5065 8.45493 10.0586C8.45493 9.72154 8.52341 9.39371 8.66038 9.07512C8.80224 8.75191 9.00769 8.46564 9.27673 8.2163C9.54577 7.96697 9.87596 7.76381 10.2673 7.60682C10.6586 7.44521 11.1062 7.35518 11.6101 7.33671L11.6834 6.33937C11.6883 6.25164 11.7226 6.17315 11.7862 6.10389C11.8546 6.03463 11.9427 6 12.0503 6H12.5346L12.4392 7.36441C12.9479 7.42444 13.3882 7.5491 13.76 7.73841C14.1366 7.92772 14.4693 8.15859 14.7579 8.43101L14.4423 8.88812C14.3445 9.02664 14.232 9.0959 14.1048 9.0959C14.0363 9.0959 13.9507 9.06819 13.848 9.01279C13.7502 8.95276 13.6303 8.8835 13.4885 8.80501C13.3515 8.72651 13.1876 8.65033 12.9969 8.57645C12.811 8.50257 12.5982 8.44717 12.3585 8.41023L12.1164 11.7624Z" fill="#000000"/>
<path fill-rule="evenodd" clip-rule="evenodd" d="M12 21C16.9706 21 21 16.9706 21 12C21 7.02944 16.9706 3 12 3C7.02944 3 3 7.02944 3 12C3 16.9706 7.02944 21 12 21ZM12 22C17.5228 22 22 17.5228 22 12C22 6.47715 17.5228 2 12 2C6.47715 2 2 6.47715 2 12C2 17.5228 6.47715 22 12 22Z" fill="#000000"/>
</svg>
