<svg width="24" height="24" viewBox="0 0 24 24" fill="none" xmlns="http://www.w3.org/2000/svg">
<path d="M10.017 4.79301C7.354 5.63801 5.512 8.09901 5.512 10.914V15.89C5.512 16.92 4.668 17.756 3.629 17.756C3.46323 17.7555 3.30399 17.8206 3.18611 17.9372C3.06824 18.0537 3.00132 18.2122 3 18.378C3 18.721 3.282 19 3.632 19H20.368C20.717 19 21 18.72 21 18.378C20.9984 18.2123 20.9314 18.054 20.8136 17.9375C20.6958 17.821 20.5367 17.7557 20.371 17.756C20.1248 17.7573 19.8807 17.7101 19.6528 17.617C19.4248 17.5239 19.2175 17.3868 19.0426 17.2134C18.8677 17.0401 18.7287 16.834 18.6335 16.6069C18.5384 16.3799 18.4889 16.1362 18.488 15.89V10.914C18.488 8.10001 16.646 5.63801 13.983 4.79401L13.256 4.56201V3.24001C13.2534 2.90918 13.1197 2.5929 12.8842 2.36046C12.6488 2.12803 12.3308 1.99841 12 2.00001C11.6692 1.99841 11.3512 2.12803 11.1158 2.36046C10.8803 2.5929 10.7466 2.90918 10.744 3.24001V4.56201L10.017 4.79301ZM15.355 20C15.139 20.7219 14.6958 21.3549 14.0914 21.8049C13.487 22.255 12.7536 22.498 12 22.498C11.2464 22.498 10.513 22.255 9.90858 21.8049C9.30417 21.3549 8.86103 20.7219 8.645 20H3.632C3.41834 20.0007 3.20664 19.9592 3.00899 19.8781C2.81134 19.7969 2.63162 19.6776 2.48007 19.527C2.32853 19.3764 2.20813 19.1974 2.12576 19.0003C2.04339 18.8031 2.00066 18.5917 2 18.378C2 17.481 2.732 16.756 3.629 16.756C4.117 16.756 4.512 16.366 4.512 15.89V10.914C4.512 7.67601 6.624 4.82101 9.714 3.84001L9.744 3.24001C9.74665 2.64396 9.98569 2.07333 10.4087 1.65336C10.8316 1.23339 11.404 0.998413 12 1.00001C12.596 0.998413 13.1684 1.23339 13.5913 1.65336C14.0143 2.07333 14.2534 2.64396 14.256 3.24001V3.83001C17.376 4.82001 19.488 7.67701 19.488 10.914V15.89C19.488 16.368 19.88 16.756 20.371 16.756C21.267 16.756 22 17.481 22 18.378C22 19.276 21.265 20 20.368 20H15.355ZM14.292 20H9.708C9.90238 20.4463 10.2228 20.8261 10.6299 21.0928C11.0371 21.3595 11.5133 21.5016 12 21.5016C12.4867 21.5016 12.9629 21.3595 13.3701 21.0928C13.7772 20.8261 14.0976 20.4463 14.292 20Z" fill="#000000"/>
</svg>
