<svg width="24" height="24" viewBox="0 0 24 24" fill="none" xmlns="http://www.w3.org/2000/svg">
<path fill-rule="evenodd" clip-rule="evenodd" d="M6 9C6 8.72386 6.22386 8.5 6.5 8.5H9C9.27614 8.5 9.5 8.72386 9.5 9C9.5 9.27614 9.27614 9.5 9 9.5H6.5C6.22386 9.5 6 9.27614 6 9ZM19.5781 21.0909C19.996 20.8413 20.3731 20.5743 20.6328 20.3346C20.8925 20.0949 21 19.8579 21 19.8457V11.3507C20.1367 10.0084 19.5872 8.95377 19.4062 7.72956C19.2296 6.53467 19.414 5.1655 19.8984 3.23758L16.1406 2L12.75 6.91979V19.5019C12.856 19.7006 12.9966 19.8806 13.1875 20.0367C13.4921 20.3107 13.9296 20.6297 14.4062 20.9229C15.3596 21.5091 16.5168 22 17.1016 22C17.707 22 18.7423 21.5902 19.5781 21.0909ZM14.9301 20.071C14.4891 19.7998 14.104 19.516 13.8563 19.2932C13.8446 19.2827 13.8327 19.2725 13.8205 19.2625C13.7949 19.2416 13.7716 19.2199 13.75 19.1971V7.231L16.5391 3.18406L18.7139 3.9003C18.3758 5.43466 18.2434 6.7012 18.417 7.87581C18.6175 9.2318 19.2016 10.3757 20 11.6421V19.5545C19.9863 19.5692 19.9712 19.5844 19.9545 19.5999C19.7645 19.7752 19.4512 20.002 19.0654 20.2324C18.6958 20.4532 18.2817 20.6539 17.9019 20.7965C17.4986 20.948 17.2231 21 17.1016 21C17.0155 21 16.7329 20.9438 16.2691 20.755C15.8421 20.5812 15.3634 20.3375 14.9301 20.071ZM4.93472 20.2324C5.30428 20.4532 5.71828 20.6539 6.09813 20.7965C6.50142 20.948 6.77694 21 6.89844 21C6.9845 21 7.26713 20.9438 7.73091 20.755C8.1579 20.5812 8.63657 20.3375 9.06989 20.0711C9.50463 19.8037 9.88514 19.524 10.1331 19.3027C10.1467 19.2897 10.1604 19.2767 10.1728 19.265L10.1837 19.2547C10.2035 19.236 10.2209 19.2194 10.2375 19.2033C10.2418 19.1991 10.246 19.195 10.25 19.1911V7.231L7.46092 3.18406L5.28612 3.9003C5.62421 5.43466 5.75665 6.70119 5.583 7.87581C5.38254 9.23181 4.79842 10.3757 4 11.6421V19.5545C4.01366 19.5692 4.02883 19.5844 4.04555 19.5999C4.23549 19.7752 4.54891 20.002 4.93472 20.2324ZM7.85938 2L11.25 6.91979V19.5019C11.1766 19.6916 11.0043 19.8548 10.8599 19.9916L10.8125 20.0367C10.5079 20.3107 10.0704 20.6297 9.59375 20.9229C8.64044 21.5091 7.48324 22 6.89844 22C6.29304 22 5.25767 21.5902 4.42188 21.0909C4.00398 20.8413 3.62685 20.5743 3.36719 20.3346C3.10753 20.0949 3 19.858 3 19.8457V11.3507C3.86326 10.0084 4.41278 8.95377 4.59375 7.72956C4.7704 6.53467 4.58597 5.1655 4.10156 3.23758L7.85938 2Z" fill="#000000"/>
<path d="M16 11.5C16 11.7761 15.7761 12 15.5 12C15.2239 12 15 11.7761 15 11.5C15 11.2239 15.2239 11 15.5 11C15.7761 11 16 11.2239 16 11.5Z" fill="#000000"/>
<path d="M16 14.5C16 14.7761 15.7761 15 15.5 15C15.2239 15 15 14.7761 15 14.5C15 14.2239 15.2239 14 15.5 14C15.7761 14 16 14.2239 16 14.5Z" fill="#000000"/>
<path d="M16 17.5C16 17.7761 15.7761 18 15.5 18C15.2239 18 15 17.7761 15 17.5C15 17.2239 15.2239 17 15.5 17C15.7761 17 16 17.2239 16 17.5Z" fill="#000000"/>
<path fill-rule="evenodd" clip-rule="evenodd" d="M16.2428 3.43708C12.4429 5.54812 9.00188 4.3301 7.70935 3.40687L8.29059 2.59313C9.33139 3.33656 12.357 4.45188 15.7571 2.56292L16.2428 3.43708Z" fill="#000000"/>
<path fill-rule="evenodd" clip-rule="evenodd" d="M13 19H11V18H13V19Z" fill="#000000"/>
</svg>
