<svg width="24" height="24" viewBox="0 0 24 24" fill="none" xmlns="http://www.w3.org/2000/svg">
<path fill-rule="evenodd" clip-rule="evenodd" d="M18 12H6C5.44772 12 5 12.4477 5 13V20C5 20.5523 5.44772 21 6 21H18C18.5523 21 19 20.5523 19 20V13C19 12.4477 18.5523 12 18 12ZM6 11C4.89543 11 4 11.8954 4 13V20C4 21.1046 4.89543 22 6 22H18C19.1046 22 20 21.1046 20 20V13C20 11.8954 19.1046 11 18 11H6Z" fill="#000000"/>
<path fill-rule="evenodd" clip-rule="evenodd" d="M7.5 7C7.5 4.51472 9.51472 2.5 12 2.5C14.4853 2.5 16.5 4.51472 16.5 7V11H15.5V7C15.5 5.067 13.933 3.5 12 3.5C10.067 3.5 8.5 5.067 8.5 7V11H7.5V7Z" fill="#000000"/>
<path d="M13 15C13 15.5523 12.5523 16 12 16C11.4477 16 11 15.5523 11 15C11 14.4477 11.4477 14 12 14C12.5523 14 13 14.4477 13 15Z" fill="#000000"/>
<path fill-rule="evenodd" clip-rule="evenodd" d="M12 14.5C12.2761 14.5 12.5 14.7239 12.5 15V18C12.5 18.2761 12.2761 18.5 12 18.5C11.7239 18.5 11.5 18.2761 11.5 18V15C11.5 14.7239 11.7239 14.5 12 14.5Z" fill="#000000"/>
</svg>
