<svg width="24" height="24" viewBox="0 0 24 24" fill="none" xmlns="http://www.w3.org/2000/svg">
<path fill-rule="evenodd" clip-rule="evenodd" d="M12 21C16.9706 21 21 16.9706 21 12C21 7.02944 16.9706 3 12 3C7.02944 3 3 7.02944 3 12C3 16.9706 7.02944 21 12 21ZM12 22C17.5228 22 22 17.5228 22 12C22 6.47715 17.5228 2 12 2C6.47715 2 2 6.47715 2 12C2 17.5228 6.47715 22 12 22Z" fill="#000000"/>
<path fill-rule="evenodd" clip-rule="evenodd" d="M10 8.5C10.2761 8.5 10.5 8.72386 10.5 9V15C10.5 15.2761 10.2761 15.5 10 15.5C9.72386 15.5 9.5 15.2761 9.5 15V9C9.5 8.72386 9.72386 8.5 10 8.5Z" fill="#000000"/>
<path fill-rule="evenodd" clip-rule="evenodd" d="M14 8.5C14.2761 8.5 14.5 8.72386 14.5 9V15C14.5 15.2761 14.2761 15.5 14 15.5C13.7239 15.5 13.5 15.2761 13.5 15V9C13.5 8.72386 13.7239 8.5 14 8.5Z" fill="#000000"/>
</svg>
