<svg width="24" height="24" viewBox="0 0 24 24" fill="none" xmlns="http://www.w3.org/2000/svg">
<path fill-rule="evenodd" clip-rule="evenodd" d="M20 7H4C3.44772 7 3 7.44772 3 8V16C3 16.5523 3.44772 17 4 17H20C20.5523 17 21 16.5523 21 16V8C21 7.44772 20.5523 7 20 7ZM4 6C2.89543 6 2 6.89543 2 8V16C2 17.1046 2.89543 18 4 18H20C21.1046 18 22 17.1046 22 16V8C22 6.89543 21.1046 6 20 6H4Z" fill="#000000"/>
<path fill-rule="evenodd" clip-rule="evenodd" d="M21 9H3V8L21 8V9ZM21 13H3V12H21V13ZM3.5 15.5C3.5 15.2239 3.72386 15 4 15H12C12.2761 15 12.5 15.2239 12.5 15.5C12.5 15.7761 12.2761 16 12 16H4C3.72386 16 3.5 15.7761 3.5 15.5ZM15.5 15.5C15.5 15.2239 15.7239 15 16 15H20C20.2761 15 20.5 15.2239 20.5 15.5C20.5 15.7761 20.2761 16 20 16H16C15.7239 16 15.5 15.7761 15.5 15.5Z" fill="#000000"/>
</svg>
