<svg width="24" height="24" viewBox="0 0 24 24" fill="none" xmlns="http://www.w3.org/2000/svg">
<path fill-rule="evenodd" clip-rule="evenodd" d="M12 13C13.6569 13 15 11.6569 15 10C15 8.34315 13.6569 7 12 7C10.3431 7 9 8.34315 9 10C9 11.6569 10.3431 13 12 13ZM12 14C14.2091 14 16 12.2091 16 10C16 7.79086 14.2091 6 12 6C9.79086 6 8 7.79086 8 10C8 12.2091 9.79086 14 12 14Z" fill="#000000"/>
<path fill-rule="evenodd" clip-rule="evenodd" d="M18 21C19.6569 21 21 19.6569 21 18C21 16.3431 19.6569 15 18 15C16.3431 15 15 16.3431 15 18C15 19.6569 16.3431 21 18 21ZM18 22C20.2091 22 22 20.2091 22 18C22 15.7909 20.2091 14 18 14C15.7909 14 14 15.7909 14 18C14 20.2091 15.7909 22 18 22Z" fill="#000000"/>
<path fill-rule="evenodd" clip-rule="evenodd" d="M18.3171 13.0099C18.7588 11.8727 19 10.8354 19 10C19 6.13401 15.866 3 12 3C8.13401 3 5 6.13401 5 10C5 10.9191 5.29192 12.0825 5.8216 13.3546C6.34575 14.6133 7.07572 15.9142 7.8858 17.0893C8.69784 18.2671 9.56968 19.2885 10.364 20.0028C10.7615 20.3602 11.1197 20.6227 11.4232 20.7909C11.7385 20.9657 11.9253 21 12 21C12.0747 21 12.2615 20.9657 12.5768 20.7909C12.84 20.645 13.1444 20.4283 13.4798 20.1401C13.6255 20.4472 13.8016 20.7372 14.0042 21.006C13.2508 21.6301 12.5522 22 12 22C9.5 22 4 14.4183 4 10C4 5.58172 7.58172 2 12 2C16.4183 2 20 5.58172 20 10C20 10.9486 19.7465 12.0431 19.3235 13.177C19 13.0885 18.6633 13.0316 18.3171 13.0099Z" fill="#000000"/>
<path fill-rule="evenodd" clip-rule="evenodd" d="M18 15.5C18.2761 15.5 18.5 15.7239 18.5 16V17.5H20C20.2761 17.5 20.5 17.7239 20.5 18C20.5 18.2761 20.2761 18.5 20 18.5H18.5V20C18.5 20.2761 18.2761 20.5 18 20.5C17.7239 20.5 17.5 20.2761 17.5 20V18.5H16C15.7239 18.5 15.5 18.2761 15.5 18C15.5 17.7239 15.7239 17.5 16 17.5H17.5V16C17.5 15.7239 17.7239 15.5 18 15.5Z" fill="#000000"/>
</svg>
