<svg width="24" height="24" viewBox="0 0 24 24" fill="none" xmlns="http://www.w3.org/2000/svg">
<path fill-rule="evenodd" clip-rule="evenodd" d="M18.1784 13.3546C18.7081 12.0825 19 10.9191 19 10C19 6.13401 15.866 3 12 3C8.13401 3 5 6.13401 5 10C5 10.9191 5.29192 12.0825 5.8216 13.3546C6.34575 14.6133 7.07572 15.9142 7.8858 17.0893C8.69784 18.2671 9.56968 19.2885 10.364 20.0028C10.7615 20.3602 11.1197 20.6227 11.4232 20.7909C11.7385 20.9657 11.9253 21 12 21C12.0747 21 12.2615 20.9657 12.5768 20.7909C12.8803 20.6227 13.2385 20.3602 13.636 20.0028C14.4303 19.2885 15.3022 18.2671 16.1142 17.0893C16.9243 15.9142 17.6542 14.6133 18.1784 13.3546ZM12 22C14.5 22 20 14.4183 20 10C20 5.58172 16.4183 2 12 2C7.58172 2 4 5.58172 4 10C4 14.4183 9.5 22 12 22Z" fill="#000000"/>
<path fill-rule="evenodd" clip-rule="evenodd" d="M12 13C13.6569 13 15 11.6569 15 10C15 8.34315 13.6569 7 12 7C10.3431 7 9 8.34315 9 10C9 11.6569 10.3431 13 12 13ZM12 14C14.2091 14 16 12.2091 16 10C16 7.79086 14.2091 6 12 6C9.79086 6 8 7.79086 8 10C8 12.2091 9.79086 14 12 14Z" fill="#000000"/>
</svg>
