<svg width="24" height="24" viewBox="0 0 24 24" fill="none" xmlns="http://www.w3.org/2000/svg">
<path fill-rule="evenodd" clip-rule="evenodd" d="M12 21C16.9706 21 21 16.9706 21 12C21 7.02944 16.9706 3 12 3C7.02944 3 3 7.02944 3 12C3 16.9706 7.02944 21 12 21ZM12 22C17.5228 22 22 17.5228 22 12C22 6.47715 17.5228 2 12 2C6.47715 2 2 6.47715 2 12C2 17.5228 6.47715 22 12 22Z" fill="#000000"/>
<path d="M9.272 7.56C9.43733 7.40533 9.61867 7.25867 9.816 7.12C10.0187 6.98133 10.2373 6.85867 10.472 6.752C10.712 6.64533 10.968 6.56267 11.24 6.504C11.5173 6.44 11.816 6.408 12.136 6.408C12.5573 6.408 12.9467 6.46933 13.304 6.592C13.6667 6.71467 13.9787 6.888 14.24 7.112C14.5013 7.336 14.7067 7.608 14.856 7.928C15.0053 8.248 15.08 8.608 15.08 9.008C15.08 9.41333 15.0187 9.76267 14.896 10.056C14.7787 10.3493 14.6267 10.608 14.44 10.832C14.2587 11.0507 14.0587 11.2427 13.84 11.408C13.6213 11.568 13.416 11.72 13.224 11.864C13.0373 12.008 12.8747 12.152 12.736 12.296C12.6027 12.44 12.5253 12.6 12.504 12.776L12.36 14H11.384L11.288 12.672V12.584C11.288 12.36 11.3467 12.1627 11.464 11.992C11.5867 11.816 11.7387 11.6533 11.92 11.504C12.1067 11.3493 12.304 11.1973 12.512 11.048C12.7253 10.8933 12.9227 10.7253 13.104 10.544C13.2907 10.3573 13.4427 10.1467 13.56 9.912C13.6827 9.67733 13.744 9.4 13.744 9.08C13.744 8.85067 13.6987 8.64267 13.608 8.456C13.5173 8.26933 13.3947 8.112 13.24 7.984C13.0853 7.85067 12.9013 7.74933 12.688 7.68C12.48 7.61067 12.256 7.576 12.016 7.576C11.6907 7.576 11.4107 7.616 11.176 7.696C10.9467 7.776 10.752 7.864 10.592 7.96C10.432 8.056 10.3013 8.144 10.2 8.224C10.104 8.304 10.024 8.344 9.96 8.344C9.82667 8.344 9.72267 8.28267 9.648 8.16L9.272 7.56ZM10.84 17.12C10.84 16.9813 10.864 16.8507 10.912 16.728C10.9653 16.6053 11.0347 16.4987 11.12 16.408C11.2107 16.3173 11.3173 16.2453 11.44 16.192C11.5627 16.1387 11.6933 16.112 11.832 16.112C11.9707 16.112 12.1013 16.1387 12.224 16.192C12.3467 16.2453 12.4533 16.3173 12.544 16.408C12.6347 16.4987 12.704 16.6053 12.752 16.728C12.8053 16.8507 12.832 16.9813 12.832 17.12C12.832 17.264 12.8053 17.3973 12.752 17.52C12.704 17.6373 12.6347 17.7413 12.544 17.832C12.4533 17.9227 12.3467 17.992 12.224 18.04C12.1013 18.0933 11.9707 18.12 11.832 18.12C11.6933 18.12 11.5627 18.0933 11.44 18.04C11.3173 17.992 11.2107 17.9227 11.12 17.832C11.0347 17.7413 10.9653 17.6373 10.912 17.52C10.864 17.3973 10.84 17.264 10.84 17.12Z" fill="#000000"/>
</svg>
