<svg width="24" height="24" viewBox="0 0 24 24" fill="none" xmlns="http://www.w3.org/2000/svg">
<path fill-rule="evenodd" clip-rule="evenodd" d="M12 4.5C9.17689 4.5 6.71735 6.0596 5.4372 8.36659C5.30322 8.60805 4.99886 8.69518 4.7574 8.56119C4.51594 8.42721 4.42881 8.12285 4.5628 7.88139C6.01211 5.26955 8.79906 3.5 12 3.5C16.6944 3.5 20.5 7.30558 20.5 12C20.5 16.6944 16.6944 20.5 12 20.5C7.30558 20.5 3.5 16.6944 3.5 12C3.5 11.7239 3.72386 11.5 4 11.5C4.27614 11.5 4.5 11.7239 4.5 12C4.5 16.1421 7.85786 19.5 12 19.5C16.1421 19.5 19.5 16.1421 19.5 12C19.5 7.85786 16.1421 4.5 12 4.5Z" fill="#000000"/>
<path fill-rule="evenodd" clip-rule="evenodd" d="M4 11.2929L6.35355 13.6464C6.54882 13.8417 6.54882 14.1583 6.35355 14.3536C6.15829 14.5488 5.84171 14.5488 5.64645 14.3536L4 12.7071L2.35355 14.3536C2.15829 14.5488 1.84171 14.5488 1.64645 14.3536C1.45118 14.1583 1.45118 13.8417 1.64645 13.6464L4 11.2929Z" fill="#000000"/>
</svg>
