<svg width="24" height="24" viewBox="0 0 24 24" fill="none" xmlns="http://www.w3.org/2000/svg">
<path fill-rule="evenodd" clip-rule="evenodd" d="M12 20C16.4183 20 20 16.4183 20 12C20 7.58172 16.4183 4 12 4C7.58172 4 4 7.58172 4 12C4 16.4183 7.58172 20 12 20ZM12 21C16.9706 21 21 16.9706 21 12C21 7.02944 16.9706 3 12 3C7.02944 3 3 7.02944 3 12C3 16.9706 7.02944 21 12 21Z" fill="#000000"/>
<path d="M10.5 9.5C10.5 10.3284 9.82843 11 9 11C8.17157 11 7.5 10.3284 7.5 9.5C7.5 8.67157 8.17157 8 9 8C9.82843 8 10.5 8.67157 10.5 9.5Z" fill="#000000"/>
<path d="M16.5 9.5C16.5 10.3284 15.8284 11 15 11C14.1716 11 13.5 10.3284 13.5 9.5C13.5 8.67157 14.1716 8 15 8C15.8284 8 16.5 8.67157 16.5 9.5Z" fill="#000000"/>
<path fill-rule="evenodd" clip-rule="evenodd" d="M11.9999 14.5C10.3933 14.5 9.12406 15.2705 8.67983 16.2131C8.56211 16.4629 8.26418 16.57 8.01439 16.4523C7.7646 16.3346 7.65753 16.0366 7.77525 15.7869C8.42925 14.3991 10.1234 13.5 11.9999 13.5C13.8765 13.5 15.5706 14.3991 16.2246 15.7869C16.3423 16.0366 16.2353 16.3346 15.9855 16.4523C15.7357 16.57 15.4378 16.4629 15.32 16.2131C14.8758 15.2705 13.6066 14.5 11.9999 14.5Z" fill="#000000"/>
</svg>
