<svg width="24" height="24" viewBox="0 0 24 24" fill="none" xmlns="http://www.w3.org/2000/svg">
<path fill-rule="evenodd" clip-rule="evenodd" d="M10.0998 3.02833C10.108 2.52056 10.4955 2.09956 11.0008 2.04937C11.3297 2.0167 11.6631 2 12 2C12.3369 2 12.6703 2.0167 12.9992 2.04937C13.5045 2.09956 13.892 2.52056 13.9002 3.02833C13.9152 3.95395 14.6706 4.7 15.6 4.7C16.0744 4.7 16.502 4.50696 16.8115 4.19262C17.1675 3.83101 17.7379 3.7934 18.1384 4.10514C18.7941 4.61561 19.3844 5.20595 19.8949 5.86164C20.2066 6.26206 20.169 6.83249 19.8074 7.18853C19.493 7.49802 19.3 7.92556 19.3 8.4C19.3 9.32944 20.046 10.0848 20.9717 10.0998C21.4794 10.108 21.9004 10.4955 21.9506 11.0008C21.9833 11.3297 22 11.6631 22 12C22 12.3369 21.9833 12.6703 21.9506 12.9992C21.9004 13.5045 21.4794 13.892 20.9717 13.9002C20.046 13.9152 19.3 14.6706 19.3 15.6C19.3 16.0744 19.493 16.502 19.8074 16.8115C20.169 17.1675 20.2066 17.7379 19.8949 18.1384C19.3844 18.7941 18.7941 19.3844 18.1384 19.8949C17.7379 20.2066 17.1675 20.169 16.8115 19.8074C16.502 19.493 16.0744 19.3 15.6 19.3C14.6706 19.3 13.9152 20.046 13.9002 20.9717C13.892 21.4794 13.5045 21.9004 12.9992 21.9506C12.6703 21.9833 12.3369 22 12 22C11.6631 22 11.3297 21.9833 11.0008 21.9506C10.4955 21.9004 10.108 21.4794 10.0998 20.9717C10.0848 20.046 9.32944 19.3 8.4 19.3C7.92556 19.3 7.49802 19.493 7.18853 19.8074C6.83249 20.169 6.26206 20.2066 5.86164 19.8949C5.20595 19.3844 4.61561 18.7941 4.10514 18.1384C3.7934 17.7379 3.83101 17.1675 4.19262 16.8115C4.50696 16.502 4.7 16.0744 4.7 15.6C4.7 14.6706 3.95395 13.9152 3.02833 13.9002C2.52056 13.892 2.09956 13.5045 2.04937 12.9992C2.0167 12.6703 2 12.3369 2 12C2 11.6631 2.0167 11.3297 2.04937 11.0008C2.09956 10.4955 2.52056 10.108 3.02833 10.0998C3.95395 10.0848 4.7 9.32944 4.7 8.4C4.7 7.92555 4.50696 7.49802 4.19261 7.18853C3.83101 6.83249 3.7934 6.26206 4.10514 5.86164C4.61561 5.20595 5.20595 4.61561 5.86164 4.10514C6.26206 3.7934 6.83249 3.83101 7.18853 4.19261C7.49802 4.50696 7.92555 4.7 8.4 4.7C9.32944 4.7 10.0848 3.95395 10.0998 3.02833ZM6.47595 4.89421C6.96568 5.39161 7.64683 5.7 8.4 5.7C9.87632 5.7 11.0759 4.51513 11.0996 3.04447C11.3958 3.01506 11.6961 3 12 3C12.3039 3 12.6042 3.01506 12.9004 3.04447C12.9241 4.51513 14.1237 5.7 15.6 5.7C16.3532 5.7 17.0343 5.39161 17.5241 4.89421C18.1145 5.35387 18.6461 5.88551 19.1058 6.47595C18.6084 6.96568 18.3 7.64683 18.3 8.4C18.3 9.87632 19.4849 11.0759 20.9555 11.0996C20.9849 11.3958 21 11.6961 21 12C21 12.3039 20.9849 12.6042 20.9555 12.9004C19.4849 12.9241 18.3 14.1237 18.3 15.6C18.3 16.3532 18.6084 17.0343 19.1058 17.5241C18.6461 18.1145 18.1145 18.6461 17.5241 19.1058C17.0343 18.6084 16.3532 18.3 15.6 18.3C14.1237 18.3 12.9241 19.4849 12.9004 20.9555C12.6042 20.9849 12.3039 21 12 21C11.6961 21 11.3958 20.9849 11.0996 20.9555C11.0759 19.4849 9.87632 18.3 8.4 18.3C7.64683 18.3 6.96568 18.6084 6.47595 19.1058C5.88551 18.6461 5.35387 18.1145 4.89421 17.5241C5.39161 17.0343 5.7 16.3532 5.7 15.6C5.7 14.1237 4.51513 12.9241 3.04447 12.9004C3.01506 12.6042 3 12.3039 3 12C3 11.6961 3.01506 11.3958 3.04447 11.0996C4.51513 11.0759 5.7 9.87632 5.7 8.4C5.7 7.64683 5.39161 6.96568 4.89421 6.47595C5.35387 5.88551 5.88551 5.35387 6.47595 4.89421Z" fill="#000000"/>
<path fill-rule="evenodd" clip-rule="evenodd" d="M12 15C13.6569 15 15 13.6569 15 12C15 10.3431 13.6569 9 12 9C10.3431 9 9 10.3431 9 12C9 13.6569 10.3431 15 12 15ZM12 16C14.2091 16 16 14.2091 16 12C16 9.79086 14.2091 8 12 8C9.79086 8 8 9.79086 8 12C8 14.2091 9.79086 16 12 16Z" fill="#000000"/>
</svg>
