<svg width="24" height="24" viewBox="0 0 24 24" fill="none" xmlns="http://www.w3.org/2000/svg">
<path d="M11.8924 2.0068C12.0945 1.98071 12.2966 2.03027 12.465 2.14593C14.4245 3.50593 16.4656 4.3781 18.7662 4.91288C19.0626 4.98506 19.2975 5.21723 19.3826 5.5181C20.2886 8.65202 20.2011 12.0546 19.0963 14.9955C17.8904 18.1998 15.5453 20.6755 12.2924 21.9451C12.1034 22.0183 11.8952 22.0183 11.7063 21.9451C8.45592 20.6755 6.10992 18.1998 4.90493 14.9955C3.79845 12.0546 3.71172 8.65115 4.61694 5.51984C4.70283 5.21723 4.93692 4.98506 5.23754 4.91201C7.5347 4.3781 9.57586 3.50593 11.5354 2.14767C11.6424 2.07349 11.7646 2.02587 11.8924 2.00854V2.0068ZM5.42616 5.75984C4.57147 8.71897 4.65315 11.9242 5.68973 14.6807C6.80968 17.6581 8.97968 19.9503 12.0002 21.1294C15.0207 19.9494 17.1915 17.6581 18.3106 14.6807C19.3472 11.9242 19.4289 8.71897 18.575 5.76419C16.1852 5.20419 14.0481 4.29114 12.0002 2.87201C9.95227 4.29114 7.8151 5.20419 5.42616 5.75897V5.75984ZM13.7685 8.63897L12.8119 11.4085H13.9133C14.4969 11.4085 14.6308 11.7442 14.2131 12.159L10.6242 15.6372C10.2158 16.0329 10.0432 15.9059 10.2318 15.3607L11.1884 12.5911H10.087C9.50345 12.5911 9.36956 12.2555 9.78722 11.8407L13.3761 8.36245C13.7845 7.9668 13.9571 8.09375 13.7685 8.63897Z" fill="#000000"/>
</svg>
