<svg width="24" height="24" viewBox="0 0 24 24" fill="none" xmlns="http://www.w3.org/2000/svg">
<path fill-rule="evenodd" clip-rule="evenodd" d="M12.0925 7C7.60865 7 4.69731 9.58195 3.14659 11.1399C2.95114 11.3362 2.95114 11.6638 3.14659 11.8601C4.69731 13.418 7.60865 16 12.0925 16C16.5764 16 19.4877 13.418 21.0384 11.8601C21.2339 11.6638 21.2339 11.3362 21.0384 11.1399C19.4877 9.58195 16.5764 7 12.0925 7ZM12.0925 7C9.60722 7 7.59251 9.01472 7.59251 11.5C7.59251 13.9853 9.60722 16 12.0925 16C14.5778 16 16.5925 13.9853 16.5925 11.5C16.5925 9.01472 14.5778 7 12.0925 7ZM2.43784 10.4344C4.03418 8.83066 7.19284 6 12.0925 6C16.9922 6 20.1508 8.83066 21.7472 10.4344C22.331 11.0209 22.331 11.9791 21.7472 12.5656C20.1508 14.1693 16.9922 17 12.0925 17C7.19284 17 4.03418 14.1693 2.43784 12.5656C1.85405 11.9791 1.85405 11.0209 2.43784 10.4344ZM12.0925 8C10.1595 8 8.59251 9.567 8.59251 11.5C8.59251 13.433 10.1595 15 12.0925 15C14.0255 15 15.5925 13.433 15.5925 11.5C15.5925 9.567 14.0255 8 12.0925 8ZM12.0925 11C11.8164 11 11.5925 11.2239 11.5925 11.5C11.5925 11.7761 11.8164 12 12.0925 12C12.3686 12 12.5925 11.7761 12.5925 11.5C12.5925 11.2239 12.3686 11 12.0925 11ZM10.5925 11.5C10.5925 10.6716 11.2641 10 12.0925 10C12.9209 10 13.5925 10.6716 13.5925 11.5C13.5925 12.3284 12.9209 13 12.0925 13C11.2641 13 10.5925 12.3284 10.5925 11.5Z" fill="#000000"/>
</svg>
