<svg width="24" height="24" viewBox="0 0 24 24" fill="none" xmlns="http://www.w3.org/2000/svg">
<path fill-rule="evenodd" clip-rule="evenodd" d="M9.93699 3.5H22C22.2761 3.5 22.5 3.72386 22.5 4C22.5 4.27614 22.2761 4.5 22 4.5H9.93699C9.71497 5.36261 8.93192 6 8 6C7.06808 6 6.28503 5.36261 6.06301 4.5H2C1.72386 4.5 1.5 4.27614 1.5 4C1.5 3.72386 1.72386 3.5 2 3.5H6.06301C6.28503 2.63739 7.06808 2 8 2C8.93192 2 9.71497 2.63739 9.93699 3.5ZM2 11.5C1.72386 11.5 1.5 11.7239 1.5 12C1.5 12.2761 1.72386 12.5 2 12.5H14.063C14.285 13.3626 15.0681 14 16 14C16.9319 14 17.715 13.3626 17.937 12.5H22C22.2761 12.5 22.5 12.2761 22.5 12C22.5 11.7239 22.2761 11.5 22 11.5H17.937C17.715 10.6374 16.9319 10 16 10C15.0681 10 14.285 10.6374 14.063 11.5H2ZM1.5 20C1.5 19.7239 1.72386 19.5 2 19.5H3.06301C3.28503 18.6374 4.06808 18 5 18C5.93192 18 6.71497 18.6374 6.93699 19.5H22C22.2761 19.5 22.5 19.7239 22.5 20C22.5 20.2761 22.2761 20.5 22 20.5H6.93699C6.71497 21.3626 5.93192 22 5 22C4.06808 22 3.28503 21.3626 3.06301 20.5H2C1.72386 20.5 1.5 20.2761 1.5 20Z" fill="#000000"/>
</svg>
