<svg width="24" height="24" viewBox="0 0 24 24" fill="none" xmlns="http://www.w3.org/2000/svg">
<path fill-rule="evenodd" clip-rule="evenodd" d="M4.5 10.5V6C4.5 5.72386 4.72386 5.5 5 5.5H9.5C9.77614 5.5 10 5.72386 10 6C10 6.27614 9.77614 6.5 9.5 6.5H6.20711L10.3536 10.6464C10.5488 10.8417 10.5488 11.1583 10.3536 11.3536C10.1583 11.5488 9.84171 11.5488 9.64645 11.3536L5.5 7.20711V10.5C5.5 10.7761 5.27614 11 5 11C4.72386 11 4.5 10.7761 4.5 10.5ZM14.5 5.5H19C19.2761 5.5 19.5 5.72386 19.5 6V10.5C19.5 10.7761 19.2761 11 19 11C18.7239 11 18.5 10.7761 18.5 10.5V7.20711L14.1109 11.5962C13.0795 12.6276 12.5 14.0266 12.5 15.4853V20C12.5 20.2761 12.2761 20.5 12 20.5C11.7239 20.5 11.5 20.2761 11.5 20V15.4853C11.5 13.7614 12.1848 12.1081 13.4038 10.8891L17.7929 6.5H14.5C14.2239 6.5 14 6.27614 14 6C14 5.72386 14.2239 5.5 14.5 5.5Z" fill="#000000"/>
</svg>
