<svg width="24" height="24" viewBox="0 0 24 24" fill="none" xmlns="http://www.w3.org/2000/svg">
<path d="M0 0H24V24H0V0Z" fill="white"/>
<path d="M12.9675 2.53957C12.5943 1.82014 11.5652 1.82014 11.1921 2.53957L8.69847 7.34724C8.5583 7.61748 8.30266 7.80916 8.00396 7.86797L2.80769 8.89113C2.04613 9.04108 1.73831 9.96374 2.25728 10.5409L5.94511 14.6423C6.13865 14.8576 6.22943 15.1461 6.19398 15.4334L5.50964 20.9787C5.41195 21.7704 6.23499 22.3522 6.9487 21.9959L11.6332 19.6578C11.9144 19.5175 12.2452 19.5175 12.5264 19.6578L17.2109 21.9959C17.9246 22.3522 18.7476 21.7704 18.6499 20.9787L17.9656 15.4334C17.9301 15.1461 18.0209 14.8576 18.2145 14.6423L21.9023 10.5409C22.4213 9.96373 22.1134 9.04108 21.3519 8.89113L16.1556 7.86797C15.8569 7.80916 15.6013 7.61748 15.4611 7.34724L12.9675 2.53957Z" fill="#000000"/>
</svg>
