<svg width="24" height="24" viewBox="0 0 24 24" fill="none" xmlns="http://www.w3.org/2000/svg">
<path fill-rule="evenodd" clip-rule="evenodd" d="M12.5149 20.9855C12.3445 20.9951 12.1728 21 12 21C7.02944 21 3 16.9706 3 12C3 7.02944 7.02944 3 12 3C16.9706 3 21 7.02944 21 12C21 12.1728 20.9951 12.3445 20.9855 12.5149C21.3216 12.8137 21.6238 13.1497 21.8858 13.5165C21.961 13.022 22 12.5155 22 12C22 6.47715 17.5228 2 12 2C6.47715 2 2 6.47715 2 12C2 17.5228 6.47715 22 12 22C12.5155 22 13.022 21.961 13.5165 21.8858C13.1497 21.6238 12.8137 21.3216 12.5149 20.9855Z" fill="#000000"/>
<path fill-rule="evenodd" clip-rule="evenodd" d="M12 4.5C12.2761 4.5 12.5 4.72386 12.5 5V12C12.5 12.1326 12.4473 12.2598 12.3536 12.3536L8.35355 16.3536C8.15829 16.5488 7.84171 16.5488 7.64645 16.3536C7.45118 16.1583 7.45118 15.8417 7.64645 15.6464L11.5 11.7929V5C11.5 4.72386 11.7239 4.5 12 4.5Z" fill="#000000"/>
<path fill-rule="evenodd" clip-rule="evenodd" d="M16.6464 12.6464C16.8417 12.4512 17.1583 12.4512 17.3536 12.6464L20.3536 15.6464C20.5488 15.8417 20.5488 16.1583 20.3536 16.3536C20.1583 16.5488 19.8417 16.5488 19.6464 16.3536L17.5 14.2071V22C17.5 22.2761 17.2761 22.5 17 22.5C16.7239 22.5 16.5 22.2761 16.5 22V14.2071L14.3536 16.3536C14.1583 16.5488 13.8417 16.5488 13.6464 16.3536C13.4512 16.1583 13.4512 15.8417 13.6464 15.6464L16.6464 12.6464Z" fill="#000000"/>
</svg>
