<svg width="24" height="24" viewBox="0 0 24 24" fill="none" xmlns="http://www.w3.org/2000/svg">
<path d="M5 7H20C20.5523 7 21 7.44772 21 8V16C21 16.5523 20.5523 17 20 17H5C4.44772 17 4 16.5523 4 16V15.5C4 15.2239 3.77614 15 3.5 15C3.22386 15 3 15.2239 3 15.5V16C3 17.1046 3.89543 18 5 18H20C21.1046 18 22 17.1046 22 16V8C22 6.89543 21.1046 6 20 6H5C3.89543 6 3 6.89543 3 8V8.5C3 8.77614 3.22386 9 3.5 9C3.77614 9 4 8.77614 4 8.5V8C4 7.44772 4.44772 7 5 7Z" fill="#000000"/>
<path fill-rule="evenodd" clip-rule="evenodd" d="M1.5 10C1.5 9.72386 1.72386 9.5 2 9.5H7.04C7.31614 9.5 7.54 9.72386 7.54 10C7.54 10.2761 7.31614 10.5 7.04 10.5H2C1.72386 10.5 1.5 10.2761 1.5 10ZM3.46 12C3.46 11.7239 3.68386 11.5 3.96 11.5H9C9.27614 11.5 9.5 11.7239 9.5 12C9.5 12.2761 9.27614 12.5 9 12.5H3.96C3.68386 12.5 3.46 12.2761 3.46 12ZM2.46 14C2.46 13.7239 2.68386 13.5 2.96 13.5H8C8.27614 13.5 8.5 13.7239 8.5 14C8.5 14.2761 8.27614 14.5 8 14.5H2.96C2.68386 14.5 2.46 14.2761 2.46 14Z" fill="#000000"/>
<path fill-rule="evenodd" clip-rule="evenodd" d="M16 12C16 13.6569 14.6569 15 13 15C11.3431 15 10 13.6569 10 12C10 10.3431 11.3431 9 13 9C14.6569 9 16 10.3431 16 12ZM13 14C14.1046 14 15 13.1046 15 12C15 10.8954 14.1046 10 13 10C11.8954 10 11 10.8954 11 12C11 13.1046 11.8954 14 13 14Z" fill="#000000"/>
</svg>
