<svg width="24" height="24" viewBox="0 0 24 24" fill="none" xmlns="http://www.w3.org/2000/svg">
<path fill-rule="evenodd" clip-rule="evenodd" d="M18 7H6V19C6 19.5523 6.44772 20 7 20H17C17.5523 20 18 19.5523 18 19V7ZM5 6V19C5 20.1046 5.89543 21 7 21H17C18.1046 21 19 20.1046 19 19V6H5Z" fill="#000000"/>
<path fill-rule="evenodd" clip-rule="evenodd" d="M9 8.5C9.27614 8.5 9.5 8.72386 9.5 9V18C9.5 18.2761 9.27614 18.5 9 18.5C8.72386 18.5 8.5 18.2761 8.5 18V9C8.5 8.72386 8.72386 8.5 9 8.5Z" fill="#000000"/>
<path fill-rule="evenodd" clip-rule="evenodd" d="M12 8.5C12.2761 8.5 12.5 8.72386 12.5 9V18C12.5 18.2761 12.2761 18.5 12 18.5C11.7239 18.5 11.5 18.2761 11.5 18V9C11.5 8.72386 11.7239 8.5 12 8.5Z" fill="#000000"/>
<path fill-rule="evenodd" clip-rule="evenodd" d="M15 8.5C15.2761 8.5 15.5 8.72386 15.5 9V18C15.5 18.2761 15.2761 18.5 15 18.5C14.7239 18.5 14.5 18.2761 14.5 18V9C14.5 8.72386 14.7239 8.5 15 8.5Z" fill="#000000"/>
<path fill-rule="evenodd" clip-rule="evenodd" d="M3 6.5C3 6.22386 3.22386 6 3.5 6H20.5C20.7761 6 21 6.22386 21 6.5C21 6.77614 20.7761 7 20.5 7H3.5C3.22386 7 3 6.77614 3 6.5Z" fill="#000000"/>
<path fill-rule="evenodd" clip-rule="evenodd" d="M7.98862 4.71376C8.44043 3.96075 9.2542 3.5 10.1324 3.5H13.8676C14.7458 3.5 15.5595 3.96075 16.0113 4.71376L16.9287 6.24275L16.0712 6.75725L15.1538 5.22826C14.8827 4.77645 14.3945 4.5 13.8676 4.5H10.1324C9.60546 4.5 9.1172 4.77645 8.84612 5.22826L7.92872 6.75725L7.07123 6.24275L7.98862 4.71376Z" fill="#000000"/>
</svg>
