<svg width="24" height="24" viewBox="0 0 24 24" fill="none" xmlns="http://www.w3.org/2000/svg">
<path fill-rule="evenodd" clip-rule="evenodd" d="M12 11C14.2092 11 16 9.20914 16 7C16 4.79086 14.2092 3 12 3C9.79088 3 8.00002 4.79086 8.00002 7C8.00002 9.20914 9.79088 11 12 11ZM12 12C14.7614 12 17 9.76142 17 7C17 4.23858 14.7614 2 12 2C9.23859 2 7.00002 4.23858 7.00002 7C7.00002 9.76142 9.23859 12 12 12Z" fill="#000000"/>
<path fill-rule="evenodd" clip-rule="evenodd" d="M12 15C8.42142 15 5.32868 17.0885 3.87787 20.1177C3.77897 20.3242 3.80926 20.5068 3.93161 20.6694C4.0673 20.8498 4.32331 21 4.64682 21H19.3532C19.6767 21 19.9327 20.8498 20.0684 20.6694C20.1908 20.5068 20.2211 20.3242 20.1222 20.1177C18.6714 17.0885 15.5786 15 12 15ZM19.3532 22C20.6176 22 21.5702 20.8261 21.024 19.6857C19.4133 16.3226 15.9779 14 12 14C8.02214 14 4.58674 16.3226 2.97598 19.6857C2.42979 20.8261 3.38238 22 4.64682 22H19.3532Z" fill="#000000"/>
</svg>
