<svg width="24" height="24" viewBox="0 0 24 24" fill="none" xmlns="http://www.w3.org/2000/svg">
<path fill-rule="evenodd" clip-rule="evenodd" d="M20 8.94168H3V18.9417C3 19.494 3.44772 19.9417 4 19.9417H20C20.5523 19.9417 21 19.494 21 18.9417V9.94168C21 9.3894 20.5523 8.94168 20 8.94168ZM2 7.94168V18.9417C2 20.0462 2.89543 20.9417 4 20.9417H20C21.1046 20.9417 22 20.0462 22 18.9417V9.94168C22 8.83711 21.1046 7.94168 20 7.94168H2Z" fill="#000000"/>
<path fill-rule="evenodd" clip-rule="evenodd" d="M21 12.9417H16.5C15.6716 12.9417 15 13.6133 15 14.4417C15 15.2701 15.6716 15.9417 16.5 15.9417H21V12.9417ZM16.5 11.9417C15.1193 11.9417 14 13.061 14 14.4417C14 15.8224 15.1193 16.9417 16.5 16.9417H21C21.5523 16.9417 22 16.494 22 15.9417V12.9417C22 12.3894 21.5523 11.9417 21 11.9417H16.5Z" fill="#000000"/>
<path d="M17 14.4417C17 14.7178 16.7761 14.9417 16.5 14.9417C16.2239 14.9417 16 14.7178 16 14.4417C16 14.1655 16.2239 13.9417 16.5 13.9417C16.7761 13.9417 17 14.1655 17 14.4417Z" fill="#000000"/>
<path d="M7.83333 4.94168H4C2.89543 4.94168 2 5.83711 2 6.94168V8.94168H18C18.5523 8.94168 19 8.49397 19 7.94168V5.94168C19 5.3894 18.5523 4.94168 18 4.94168H12.2083L13.2917 5.94168H18V7.94168H15.4583L16 8.44168H5.5L5.83333 7.94168H4C3.44772 7.94168 3 7.49397 3 6.94168C3 6.3894 3.44772 5.94168 4 5.94168H7.16667L7.83333 4.94168Z" fill="#000000"/>
<path fill-rule="evenodd" clip-rule="evenodd" d="M10.8822 4.39795C10.2045 3.77243 9.12825 3.90078 8.6167 4.66811L6.43431 7.94168H14.7212L10.8822 4.39795ZM7.78465 4.11341C8.63724 2.83452 10.4311 2.62061 11.5605 3.66315L17.2789 8.94168H4.5658L7.78465 4.11341Z" fill="#000000"/>
</svg>
