<svg width="24" height="24" viewBox="0 0 24 24" fill="none" xmlns="http://www.w3.org/2000/svg">
<path fill-rule="evenodd" clip-rule="evenodd" d="M12 21C16.9706 21 21 16.9706 21 12C21 7.02944 16.9706 3 12 3C7.02944 3 3 7.02944 3 12C3 16.9706 7.02944 21 12 21ZM12 22C17.5228 22 22 17.5228 22 12C22 6.47715 17.5228 2 12 2C6.47715 2 2 6.47715 2 12C2 17.5228 6.47715 22 12 22Z" fill="#000000"/>
<path d="M11.32 14.104L11.32 6H12.744L12.744 14.104H11.32ZM11 16.648C11 16.5093 11.0293 16.3787 11.088 16.256C11.1413 16.1387 11.216 16.032 11.312 15.936C11.4027 15.8453 11.5093 15.7733 11.632 15.72C11.7547 15.6667 11.8853 15.64 12.024 15.64C12.1627 15.64 12.2933 15.6667 12.416 15.72C12.5333 15.7733 12.64 15.8453 12.736 15.936C12.8267 16.032 12.8987 16.1387 12.952 16.256C13.0053 16.3787 13.032 16.5093 13.032 16.648C13.032 16.7867 13.0053 16.9173 12.952 17.04C12.8987 17.168 12.8267 17.2773 12.736 17.368C12.64 17.464 12.5333 17.5387 12.416 17.592C12.2933 17.6453 12.1627 17.672 12.024 17.672C11.8853 17.672 11.7547 17.6453 11.632 17.592C11.5093 17.5387 11.4027 17.464 11.312 17.368C11.216 17.2773 11.1413 17.168 11.088 17.04C11.0293 16.9173 11 16.7867 11 16.648Z" fill="#000000"/>
</svg>
