<svg width="24" height="24" viewBox="0 0 24 24" fill="none" xmlns="http://www.w3.org/2000/svg">
<path fill-rule="evenodd" clip-rule="evenodd" d="M11.5799 10.9076L15.1128 10.9063L13.2676 13.8119C13.7557 13.4929 14.3029 13.2568 14.8892 13.1238L16.4192 10.7144C16.6418 10.364 16.3899 9.90588 15.9748 9.90602L13.1579 9.90702L16.5357 2.7509C16.7005 2.40181 16.4458 2 16.0598 2H9.46189C9.20018 2 8.97823 2.19231 8.94099 2.45136L7.27304 14.0511C7.22666 14.3737 7.48163 14.6605 7.80742 14.6521L9.55554 14.6074L8.44525 21.3868C8.35269 21.9519 9.10184 22.2374 9.40885 21.7539L11.1144 19.0682C11.0395 18.724 11 18.3666 11 18C11 17.7652 11.0162 17.5342 11.0475 17.3081L9.8065 19.2623L10.7377 13.5768L8.34272 13.6381L9.87238 3H15.3123L11.5799 10.9076Z" fill="#000000"/>
<path fill-rule="evenodd" clip-rule="evenodd" d="M16 21C17.6569 21 19 19.6569 19 18C19 16.3431 17.6569 15 16 15C14.3431 15 13 16.3431 13 18C13 19.6569 14.3431 21 16 21ZM16 22C18.2091 22 20 20.2091 20 18C20 15.7909 18.2091 14 16 14C13.7909 14 12 15.7909 12 18C12 20.2091 13.7909 22 16 22Z" fill="#000000"/>
<path fill-rule="evenodd" clip-rule="evenodd" d="M16 15.5C16.2761 15.5 16.5 15.7239 16.5 16V17.5H18C18.2761 17.5 18.5 17.7239 18.5 18C18.5 18.2761 18.2761 18.5 18 18.5H16.5V20C16.5 20.2761 16.2761 20.5 16 20.5C15.7239 20.5 15.5 20.2761 15.5 20V18.5H14C13.7239 18.5 13.5 18.2761 13.5 18C13.5 17.7239 13.7239 17.5 14 17.5H15.5V16C15.5 15.7239 15.7239 15.5 16 15.5Z" fill="#000000"/>
</svg>
