<svg width="24" height="24" viewBox="0 0 24 24" fill="none" xmlns="http://www.w3.org/2000/svg">
<path fill-rule="evenodd" clip-rule="evenodd" d="M12.3133 10.4425C12.1298 10.1531 12.1073 9.79 12.2535 9.48017L15.3122 3H9.87226L8.3426 13.6381L9.52982 13.6077C9.82766 13.6001 10.1134 13.7257 10.3092 13.9502C10.505 14.1748 10.5904 14.475 10.5423 14.769L9.80638 19.2623L15.1126 10.9063L13.1582 10.907C12.8156 10.9071 12.4967 10.7318 12.3133 10.4425ZM16.5356 2.7509C16.7003 2.40181 16.4457 2 16.0597 2H9.46177C9.20006 2 8.97811 2.19231 8.94086 2.45136L7.27292 14.0511C7.22654 14.3737 7.48151 14.6605 7.8073 14.6521L9.55542 14.6074L8.44513 21.3868C8.35256 21.9519 9.10172 22.2374 9.40873 21.7539L16.4191 10.7144C16.6416 10.364 16.3898 9.90588 15.9747 9.90602L13.1578 9.90702L16.5356 2.7509Z" fill="#000000"/>
</svg>
