<svg width="24" height="24" viewBox="0 0 24 24" fill="none" xmlns="http://www.w3.org/2000/svg">
<path d="M11.3908 9.16959V18H4L11.3908 9.16959Z" fill="#000000"/>
<path d="M11.3908 6C11.3908 6.96991 11.0015 7.90009 10.3085 8.58592C9.61543 9.27174 8.67549 9.65704 7.69541 9.65704C6.71533 9.65704 5.77538 9.27174 5.08236 8.58592C4.38934 7.90009 4 6.96991 4 6H11.3908Z" fill="#000000"/>
<path d="M12.6084 18C12.6084 17.0301 12.9977 16.0999 13.6908 15.4141C14.3838 14.7283 15.3237 14.343 16.3038 14.343C17.2839 14.343 18.2238 14.7283 18.9168 15.4141C19.6099 16.0999 19.9992 17.0301 19.9992 18H12.6084Z" fill="#000000"/>
<path d="M12.6084 14.8304V6H20L12.6084 14.8304Z" fill="#000000"/>
</svg>
