<svg width="56" height="56" viewBox="0 0 56 56" fill="none" xmlns="http://www.w3.org/2000/svg">
<path d="M39.2675 28.2278C37.8767 28.2278 36.5491 27.7072 35.506 26.7635C34.4945 27.6746 33.1669 28.2278 31.776 28.2278C30.3536 28.2278 29.026 27.7072 28.0145 26.7635C26.9714 27.6746 25.6438 28.2278 24.253 28.2278C22.8306 28.2278 21.503 27.7072 20.4915 26.7635C19.4484 27.6746 18.1208 28.2278 16.7299 28.2278C16.1294 28.2278 15.5288 28.1301 14.9598 27.9349C14.6121 27.8373 14.3276 27.7072 14.0115 27.5119V41.7961C14.0115 42.4469 14.5489 43 15.1811 43H29.7846V32.5228C29.7846 32.295 29.9743 32.1323 30.164 32.1323H36.233C36.4542 32.1323 36.6123 32.3276 36.6123 32.5228V43H40.7847C41.4169 43 41.9543 42.4469 41.9543 41.7961V27.5119C41.6698 27.7072 41.3537 27.8373 41.006 27.9349C40.4686 28.1301 39.8681 28.2278 39.2675 28.2278ZM26.2128 36.3297C26.2128 36.5575 26.0231 36.7202 25.8335 36.7202H19.7961C19.5748 36.7202 19.4167 36.525 19.4167 36.3297V32.5228C19.4167 32.295 19.6064 32.1323 19.7961 32.1323H25.8019C26.0231 32.1323 26.1812 32.3276 26.1812 32.5228V36.3297H26.2128Z" fill="#000000"/>
<path d="M42.3019 19.7354L38.2243 13.846C37.845 13.3254 37.276 13 36.6439 13H19.4167C18.7845 13 18.1839 13.3254 17.8362 13.846L13.727 19.7354C13.2529 20.4187 13 21.2647 13 22.1106C13 23.8352 13.9799 25.4946 15.5604 25.9827C17.3305 26.5358 19.0058 25.7874 19.8909 24.4208C20.1753 23.9653 20.8075 23.9653 21.1236 24.4208C21.7874 25.4621 22.957 26.1779 24.253 26.1779C25.5806 26.1779 26.7185 25.4946 27.3823 24.4208C27.6668 23.9653 28.299 23.9653 28.6151 24.4208C29.2789 25.4621 30.4484 26.1779 31.7444 26.1779C33.072 26.1779 34.2099 25.4946 34.8737 24.4208C35.1582 23.9653 35.7904 23.9653 36.1065 24.4208C36.9599 25.7874 38.6353 26.5358 40.437 25.9827C42.0175 25.4946 42.9974 23.8026 42.9974 22.1106C43.029 21.2647 42.7761 20.4512 42.3019 19.7354Z" fill="#000000"/>
</svg>
