<svg width="56" height="56" viewBox="0 0 56 56" fill="none" xmlns="http://www.w3.org/2000/svg">
<path d="M44.2409 39.7116L43.5927 38.9501L43.5927 38.9501L44.2409 39.7116ZM44.1283 39.8075L44.7765 40.569L44.7765 40.5689L44.1283 39.8075ZM11.4095 39.614L10.7049 40.3236H10.7049L11.4095 39.614ZM44.9752 20.2788L44.2092 20.9216V20.9216L44.9752 20.2788ZM34.3117 16.8571L33.4185 17.3069V17.3069L34.3117 16.8571ZM21.2208 16.8571L22.114 17.3069V17.3069L21.2208 16.8571ZM11.4095 20.1003L10.7049 19.3907H10.7049L11.4095 20.1003ZM32.2704 32.1727C31.9841 32.645 32.1349 33.26 32.6072 33.5462C33.0795 33.8325 33.6945 33.6817 33.9808 33.2094L32.2704 32.1727ZM33.9208 29.1134L32.9266 29.2208L33.9208 29.1134ZM32.3782 25.77L31.6495 26.4548L32.3782 25.77ZM29.2941 23.0174C28.7506 22.9192 28.2304 23.2802 28.1322 23.8237C28.0341 24.3672 28.395 24.8874 28.9385 24.9855L29.2941 23.0174ZM36.1604 33.4413C36.694 33.2985 37.0107 32.7503 36.868 32.2168C36.7253 31.6833 36.1771 31.3665 35.6436 31.5092L36.1604 33.4413ZM32.2311 33.4573L31.2651 33.7157L31.5235 34.6818L32.4895 34.4233L32.2311 33.4573ZM32.2151 29.5279C32.0723 28.9944 31.5241 28.6776 30.9906 28.8204C30.4571 28.9631 30.1403 29.5113 30.283 30.0448L32.2151 29.5279ZM23.6316 26.7454C23.9179 26.2731 23.7671 25.6581 23.2948 25.3719C22.8225 25.0856 22.2075 25.2364 21.9212 25.7087L23.6316 26.7454ZM21.9812 29.8047L22.9754 29.6973V29.6973L21.9812 29.8047ZM23.5238 33.1481L24.2525 32.4633L23.5238 33.1481ZM26.6079 35.9007C27.1514 35.9989 27.6716 35.6379 27.7697 35.0944C27.8679 34.5509 27.5069 34.0307 26.9635 33.9325L26.6079 35.9007ZM19.7416 25.4768C19.208 25.6196 18.8912 26.1678 19.034 26.7013C19.1767 27.2348 19.7249 27.5516 20.2584 27.4089L19.7416 25.4768ZM23.6709 25.4608L24.6369 25.2024L24.3785 24.2363L23.4125 24.4948L23.6709 25.4608ZM23.6869 29.3901C23.8297 29.9237 24.3779 30.2405 24.9114 30.0977C25.4449 29.955 25.7617 29.4068 25.619 28.8733L23.6869 29.3901ZM11 36.2278V23.4864H9V36.2278H11ZM14.7722 19.7143H18.2065V17.7143H14.7722V19.7143ZM24.2351 16H31.2974V14H24.2351V16ZM37.326 19.7143H41.62V17.7143H37.326V19.7143ZM45 23.0943V35.9042H47V23.0943H45ZM43.5927 38.9501L43.4801 39.046L44.7765 40.5689L44.8891 40.4731L43.5927 38.9501ZM40.8874 40H14.7722V42H40.8874V40ZM14.7722 40C13.7763 40 12.8208 39.6062 12.1141 38.9044L10.7049 40.3236C11.7862 41.3974 13.2482 42 14.7722 42V40ZM43.4801 39.046C42.7566 39.6618 41.8375 40 40.8874 40V42C42.3126 42 43.6912 41.4927 44.7765 40.569L43.4801 39.046ZM45 35.9042C45 37.0767 44.4856 38.1902 43.5927 38.9501L44.889 40.4731C46.2283 39.3331 47 37.6629 47 35.9042H45ZM44.2092 20.9216C44.72 21.5303 45 22.2996 45 23.0943H47C47 21.8294 46.5543 20.6049 45.7412 19.6359L44.2092 20.9216ZM41.62 19.7143C42.6191 19.7143 43.5669 20.1563 44.2092 20.9216L45.7412 19.6359C44.719 18.4178 43.2102 17.7143 41.62 17.7143V19.7143ZM33.4185 17.3069C34.1617 18.783 35.6733 19.7143 37.326 19.7143V17.7143C36.4289 17.7143 35.6083 17.2087 35.2049 16.4074L33.4185 17.3069ZM31.2974 16C32.1945 16 33.0151 16.5056 33.4185 17.3069L35.2049 16.4074C34.4616 14.9313 32.95 14 31.2974 14V16ZM22.114 17.3069C22.5174 16.5056 23.338 16 24.2351 16V14C22.5824 14 21.0708 14.9313 20.3276 16.4074L22.114 17.3069ZM18.2065 19.7143C19.8591 19.7143 21.3707 18.783 22.114 17.3069L20.3276 16.4074C19.9242 17.2087 19.1036 17.7143 18.2065 17.7143V19.7143ZM12.1141 20.8098C12.8208 20.1081 13.7763 19.7143 14.7722 19.7143V17.7143C13.2482 17.7143 11.7862 18.3169 10.7049 19.3907L12.1141 20.8098ZM11 23.4864C11 22.4814 11.401 21.518 12.1141 20.8098L10.7049 19.3907C9.61367 20.4743 9 21.9486 9 23.4864H11ZM9 36.2278C9 37.7657 9.61367 39.24 10.7049 40.3236L12.1141 38.9044C11.401 38.1963 11 37.2328 11 36.2278H9ZM33.9808 33.2094C34.7454 31.9479 35.0734 30.4725 34.915 29.0061L32.9266 29.2208C33.0378 30.2507 32.8076 31.2864 32.2704 32.1727L33.9808 33.2094ZM34.915 29.0061C34.7567 27.5398 34.121 26.1642 33.1069 25.0851L31.6495 26.4548C32.3683 27.2196 32.8153 28.1907 32.9266 29.2208L34.915 29.0061ZM33.1069 25.0851C32.0929 24.0062 30.7547 23.2813 29.2941 23.0174L28.9385 24.9855C29.9793 25.1736 30.9306 25.6899 31.6495 26.4548L33.1069 25.0851ZM35.6436 31.5092L31.9726 32.4913L32.4895 34.4233L36.1604 33.4413L35.6436 31.5092ZM33.1971 33.1989L32.2151 29.5279L30.283 30.0448L31.2651 33.7157L33.1971 33.1989ZM21.9212 25.7087C21.1566 26.9702 20.8286 28.4456 20.987 29.912L22.9754 29.6973C22.8642 28.6674 23.0943 27.6317 23.6316 26.7454L21.9212 25.7087ZM20.987 29.912C21.1453 31.3783 21.7809 32.7539 22.7951 33.833L24.2525 32.4633C23.5337 31.6985 23.0866 30.7274 22.9754 29.6973L20.987 29.912ZM22.7951 33.833C23.8091 34.9119 25.1473 35.6368 26.6079 35.9007L26.9635 33.9325C25.9227 33.7445 24.9714 33.2282 24.2525 32.4633L22.7951 33.833ZM20.2584 27.4089L23.9293 26.4268L23.4125 24.4948L19.7416 25.4768L20.2584 27.4089ZM22.7049 25.7192L23.6869 29.3901L25.619 28.8733L24.6369 25.2024L22.7049 25.7192Z" fill="#000000"/>
</svg>
