<svg width="56" height="56" viewBox="0 0 56 56" fill="none" xmlns="http://www.w3.org/2000/svg">
<path fill-rule="evenodd" clip-rule="evenodd" d="M15.4395 41.5594C14.8537 40.9736 14.8537 40.0238 15.4395 39.438L39.4382 15.4393C40.024 14.8536 40.9737 14.8536 41.5595 15.4393C42.1453 16.0251 42.1453 16.9749 41.5595 17.5607L17.5608 41.5594C16.975 42.1452 16.0253 42.1452 15.4395 41.5594Z" fill="#000000"/>
<path fill-rule="evenodd" clip-rule="evenodd" d="M41.5594 41.5594C40.9736 42.1451 40.0238 42.1451 39.438 41.5594L15.4393 17.5607C14.8536 16.9749 14.8536 16.0251 15.4393 15.4393C16.0251 14.8536 16.9749 14.8536 17.5607 15.4393L41.5594 39.438C42.1452 40.0238 42.1452 40.9736 41.5594 41.5594Z" fill="#000000"/>
</svg>
