<svg width="56" height="56" viewBox="0 0 56 56" fill="none" xmlns="http://www.w3.org/2000/svg">
<path fill-rule="evenodd" clip-rule="evenodd" d="M28 13.5C25.1322 13.5 22.3288 14.3504 19.9442 15.9437C17.5597 17.537 15.7012 19.8016 14.6038 22.4511C13.5063 25.1006 13.2191 28.0161 13.7786 30.8288C14.3381 33.6415 15.7191 36.2252 17.747 38.253C19.7748 40.2809 22.3585 41.6619 25.1712 42.2214C27.9839 42.7809 30.8994 42.4937 33.5489 41.3963C36.1984 40.2988 38.463 38.4403 40.0563 36.0558C41.6496 33.6713 42.5 30.8678 42.5 28C42.5 27.1716 43.1716 26.5 44 26.5C44.8284 26.5 45.5 27.1716 45.5 28C45.5 31.4612 44.4737 34.8446 42.5507 37.7225C40.6278 40.6003 37.8947 42.8434 34.697 44.1679C31.4993 45.4924 27.9806 45.839 24.5859 45.1637C21.1913 44.4885 18.0731 42.8218 15.6256 40.3744C13.1782 37.927 11.5115 34.8087 10.8363 31.4141C10.161 28.0194 10.5076 24.5007 11.8321 21.303C13.1566 18.1053 15.3997 15.3722 18.2775 13.4493C21.1554 11.5264 24.5388 10.5 28 10.5C28.8284 10.5 29.5 11.1716 29.5 12C29.5 12.8284 28.8284 13.5 28 13.5Z" fill="#000000"/>
</svg>
