<svg width="56" height="56" viewBox="0 0 56 56" fill="none" xmlns="http://www.w3.org/2000/svg">
<path d="M20 15.94C20.4533 15.54 20.9467 15.16 21.48 14.8C22.0267 14.44 22.6133 14.1267 23.24 13.86C23.8667 13.5933 24.5467 13.3867 25.28 13.24C26.0133 13.08 26.8067 13 27.66 13C28.82 13 29.8733 13.16 30.82 13.48C31.78 13.8 32.6 14.26 33.28 14.86C33.96 15.4467 34.4867 16.16 34.86 17C35.2333 17.84 35.42 18.78 35.42 19.82C35.42 20.8333 35.2733 21.7133 34.98 22.46C34.6867 23.1933 34.3133 23.8333 33.86 24.38C33.42 24.9267 32.94 25.4 32.42 25.8C31.9 26.2 31.4067 26.58 30.94 26.94C30.4733 27.2867 30.0667 27.6333 29.72 27.98C29.3867 28.3133 29.1867 28.6933 29.12 29.12L28.66 32.04H25.28L24.94 28.78C24.9267 28.7133 24.92 28.66 24.92 28.62C24.92 28.5667 24.92 28.5067 24.92 28.44C24.92 27.8533 25.0667 27.3467 25.36 26.92C25.6533 26.48 26.02 26.0733 26.46 25.7C26.9 25.3133 27.3733 24.94 27.88 24.58C28.3867 24.22 28.86 23.8333 29.3 23.42C29.74 22.9933 30.1067 22.5133 30.4 21.98C30.6933 21.4467 30.84 20.82 30.84 20.1C30.84 19.62 30.7467 19.1933 30.56 18.82C30.3867 18.4333 30.14 18.1067 29.82 17.84C29.5 17.56 29.1133 17.3467 28.66 17.2C28.22 17.0533 27.74 16.98 27.22 16.98C26.46 16.98 25.8133 17.0667 25.28 17.24C24.76 17.4 24.3133 17.5867 23.94 17.8C23.58 18 23.2733 18.1867 23.02 18.36C22.7667 18.52 22.54 18.6 22.34 18.6C21.86 18.6 21.5133 18.4 21.3 18L20 15.94ZM23.78 39.52C23.78 39.1067 23.8533 38.7133 24 38.34C24.16 37.9667 24.3733 37.6467 24.64 37.38C24.92 37.1133 25.2467 36.9 25.62 36.74C25.9933 36.58 26.3933 36.5 26.82 36.5C27.2333 36.5 27.6267 36.58 28 36.74C28.3733 36.9 28.6933 37.1133 28.96 37.38C29.2267 37.6467 29.44 37.9667 29.6 38.34C29.76 38.7133 29.84 39.1067 29.84 39.52C29.84 39.9467 29.76 40.3467 29.6 40.72C29.44 41.08 29.2267 41.3933 28.96 41.66C28.6933 41.9267 28.3733 42.1333 28 42.28C27.6267 42.44 27.2333 42.52 26.82 42.52C26.3933 42.52 25.9933 42.44 25.62 42.28C25.2467 42.1333 24.92 41.9267 24.64 41.66C24.3733 41.3933 24.16 41.08 24 40.72C23.8533 40.3467 23.78 39.9467 23.78 39.52Z" fill="#000000"/>
</svg>
