<svg width="56" height="56" viewBox="0 0 56 56" fill="none" xmlns="http://www.w3.org/2000/svg">
<path fill-rule="evenodd" clip-rule="evenodd" d="M45.5059 17.8218C46.2219 17.1718 47.3299 17.2288 47.9779 17.9448C48.6259 18.6618 48.5699 19.7688 47.8529 20.4168L41.6409 26.0398C41.3849 26.2718 41.0669 26.4228 40.7249 26.4738L35.3709 27.2748C35.2479 27.5818 35.0999 27.8838 34.8999 28.1688L30.2519 34.8078C29.7449 35.5308 21.9319 47.4978 21.9319 47.4978C21.5619 48.1428 20.8879 48.5038 20.1949 48.5038C19.8579 48.5038 19.5149 48.4178 19.2019 48.2378C18.2439 47.6898 17.9129 46.4668 18.4619 45.5078L24.2479 35.4178L24.2299 35.4048L16.7279 44.2928C16.3329 44.7618 15.7669 45.0038 15.1989 45.0038C14.7429 45.0038 14.2849 44.8478 13.9099 44.5308C13.0669 43.8188 12.9589 42.5578 13.6719 41.7128C13.6719 41.7128 21.9339 30.2498 22.5299 29.3998L27.1779 22.7608C27.4209 22.4138 27.7109 22.1278 28.0199 21.8768L26.9999 16.8608C26.9319 16.5228 26.9639 16.1718 27.0939 15.8528L30.2549 8.09085C30.6189 7.19585 31.6389 6.76485 32.5359 7.12985C33.4309 7.49385 33.8609 8.51485 33.4969 9.40985L30.5369 16.6808L31.4389 21.1208C31.7319 21.2138 32.0159 21.3338 32.2769 21.5168L32.7819 21.8708L34.3259 22.9518C34.6459 23.1768 34.8969 23.4618 35.1059 23.7748L39.6849 23.0898L45.5059 17.8218ZM34.1612 21.2406C35.9022 22.4596 38.6462 21.5446 40.0172 19.5856C41.3882 17.6266 40.8692 15.3676 39.1272 14.1486C37.3862 12.9276 35.0842 13.2126 33.7122 15.1716C32.3422 17.1296 32.4202 20.0216 34.1612 21.2406ZM15.7 37.1885C18.141 33.7975 21.351 29.3375 21.71 28.8265L26.358 22.1885C26.522 21.9545 26.71 21.7315 26.925 21.5175L26.612 19.9785C25.347 20.1085 24.01 20.6035 22.754 21.7755C22.109 22.377 21.4777 22.9906 20.8541 23.5967L20.8539 23.5969L20.8538 23.597L20.8538 23.597C17.3398 27.0126 14.0731 30.1878 10 29.5865C10 29.5865 11.819 34.7065 15.7 37.1885ZM25.8089 27.7864L31.6622 24.537L29.94 27.52L31.9286 28.6681L26.0753 31.9175L27.7975 28.9346L25.8089 27.7864Z" fill="#000000"/>
</svg>
