<svg width="56" height="56" viewBox="0 0 56 56" fill="none" xmlns="http://www.w3.org/2000/svg">
<path d="M0 0H56V56H0V0Z" fill="white"/>
<path fill-rule="evenodd" clip-rule="evenodd" d="M15.0607 27.9394C15.6465 27.3536 16.5962 27.3536 17.182 27.9394L25.3032 36.0312C25.889 36.617 25.889 37.5668 25.3032 38.1526C24.7175 38.7383 23.7677 38.7383 23.1819 38.1526L15.0607 30.0607C14.4749 29.4749 14.4749 28.5251 15.0607 27.9394Z" fill="#000000"/>
<path fill-rule="evenodd" clip-rule="evenodd" d="M42.2738 19.0607C42.8596 19.6465 42.8596 20.5962 42.2738 21.182L25.3032 38.1526C24.7175 38.7383 23.7677 38.7383 23.1819 38.1526C22.5961 37.5668 22.5961 36.617 23.1819 36.0312L40.1525 19.0607C40.7383 18.4749 41.688 18.4749 42.2738 19.0607Z" fill="#000000"/>
</svg>
