<svg width="56" height="56" viewBox="0 0 56 56" fill="none" xmlns="http://www.w3.org/2000/svg">
<path fill-rule="evenodd" clip-rule="evenodd" d="M14.1351 16H41.8649V39.5C41.8649 42.5376 39.3359 45 36.2162 45H19.7838C16.6641 45 14.1351 42.5376 14.1351 39.5V16ZM17.2162 19V39.5C17.2162 40.8807 18.3658 42 19.7838 42H36.2162C37.6342 42 38.7838 40.8807 38.7838 39.5V19H17.2162Z" fill="#000000"/>
<path fill-rule="evenodd" clip-rule="evenodd" d="M9 17.5C9 16.6716 9.68972 16 10.5405 16H45.4595C46.3103 16 47 16.6716 47 17.5C47 18.3284 46.3103 19 45.4595 19H10.5405C9.68972 19 9 18.3284 9 17.5Z" fill="#000000"/>
<path fill-rule="evenodd" clip-rule="evenodd" d="M21.8378 22C22.6887 22 23.3784 22.6716 23.3784 23.5L23.3784 37.5C23.3784 38.3284 22.6887 39 21.8378 39C20.987 39 20.2973 38.3284 20.2973 37.5L20.2973 23.5C20.2973 22.6716 20.987 22 21.8378 22Z" fill="#000000"/>
<path fill-rule="evenodd" clip-rule="evenodd" d="M28 22C28.8508 22 29.5405 22.6716 29.5405 23.5V37.5C29.5405 38.3284 28.8508 39 28 39C27.1492 39 26.4595 38.3284 26.4595 37.5V23.5C26.4595 22.6716 27.1492 22 28 22Z" fill="#000000"/>
<path fill-rule="evenodd" clip-rule="evenodd" d="M34.1622 22C35.013 22 35.7027 22.6716 35.7027 23.5V37.5C35.7027 38.3284 35.013 39 34.1622 39C33.3113 39 32.6216 38.3284 32.6216 37.5V23.5C32.6216 22.6716 33.3113 22 34.1622 22Z" fill="#000000"/>
<path fill-rule="evenodd" clip-rule="evenodd" d="M21.4766 11.979C22.5498 10.725 24.1396 10 25.816 10H30.184C31.8604 10 33.4502 10.725 34.5234 11.979L40.5324 19H15.4676L21.4766 11.979ZM25.816 13C25.054 13 24.3314 13.3296 23.8436 13.8995L22.0459 16H33.9541L32.1564 13.8995C31.6686 13.3296 30.946 13 30.184 13H25.816Z" fill="#000000"/>
</svg>
