<svg width="56" height="56" viewBox="0 0 56 56" fill="none" xmlns="http://www.w3.org/2000/svg">
<path fill-rule="evenodd" clip-rule="evenodd" d="M28 20C31.3137 20 34 17.3137 34 14C34 10.6863 31.3137 8 28 8C24.6863 8 22 10.6863 22 14C22 17.3137 24.6863 20 28 20ZM28 23C32.9706 23 37 18.9706 37 14C37 9.02944 32.9706 5 28 5C23.0294 5 19 9.02944 19 14C19 18.9706 23.0294 23 28 23Z" fill="#000000"/>
<path fill-rule="evenodd" clip-rule="evenodd" d="M28 30C19.9919 30 13.5 36.4919 13.5 44.5C13.5 45.3284 12.8284 46 12 46C11.1716 46 10.5 45.3284 10.5 44.5C10.5 34.835 18.335 27 28 27C37.665 27 45.5 34.835 45.5 44.5C45.5 45.3284 44.8284 46 44 46C43.1716 46 42.5 45.3284 42.5 44.5C42.5 36.4919 36.0081 30 28 30Z" fill="#000000"/>
</svg>
