<svg width="56" height="56" viewBox="0 0 56 56" fill="none" xmlns="http://www.w3.org/2000/svg">
<path fill-rule="evenodd" clip-rule="evenodd" d="M28 42.9143C36.2369 42.9143 42.9143 36.2369 42.9143 28C42.9143 19.7631 36.2369 13.0857 28 13.0857C19.7631 13.0857 13.0857 19.7631 13.0857 28C13.0857 36.2369 19.7631 42.9143 28 42.9143ZM28 46C37.9411 46 46 37.9411 46 28C46 18.0589 37.9411 10 28 10C18.0589 10 10 18.0589 10 28C10 37.9411 18.0589 46 28 46Z" fill="#000000"/>
<path d="M26.4571 18.2286H29.5429V33.6571H26.4571V18.2286Z" fill="#000000"/>
<path d="M29.5429 37.2571C29.5429 38.1092 28.8521 38.8 28 38.8C27.1479 38.8 26.4571 38.1092 26.4571 37.2571C26.4571 36.405 27.1479 35.7143 28 35.7143C28.8521 35.7143 29.5429 36.405 29.5429 37.2571Z" fill="#000000"/>
</svg>
