<svg width="32" height="32" viewBox="0 0 32 32" fill="none" xmlns="http://www.w3.org/2000/svg">
<path fill-rule="evenodd" clip-rule="evenodd" d="M23.4916 11.5405H6.45776L8.03762 21.9868C8.35093 24.0584 10.1932 25.5946 12.3643 25.5946H17.585C19.7561 25.5946 21.5984 24.0584 21.9117 21.9868L23.4916 11.5405ZM6.45776 10.1351C5.5691 10.1351 4.8873 10.8954 5.01554 11.7434L6.5954 22.1896C7.01314 24.9518 9.46948 27 12.3643 27H17.585C20.4798 27 22.9362 24.9518 23.3539 22.1896L24.9338 11.7434C25.062 10.8954 24.3802 10.1351 23.4916 10.1351H6.45776Z" fill="#000000"/>
<path fill-rule="evenodd" clip-rule="evenodd" d="M26.94 16.1317C26.4007 15.5373 25.4 15.0541 23.7195 15.0541V13.6486C25.6827 13.6486 27.1415 14.2195 28.0369 15.2062C28.9327 16.1934 29.1615 17.4844 28.8965 18.7109C28.37 21.1478 25.8834 23.4865 22.2621 23.4865V22.0811C25.1993 22.0811 27.0852 20.2035 27.4696 18.4242C27.6601 17.5426 27.479 16.7256 26.94 16.1317Z" fill="#000000"/>
<path fill-rule="evenodd" clip-rule="evenodd" d="M14.9747 1C15.3771 1 15.7034 1.31461 15.7034 1.7027V7.32432C15.7034 7.71242 15.3771 8.02703 14.9747 8.02703C14.5722 8.02703 14.2459 7.71242 14.2459 7.32432V1.7027C14.2459 1.31461 14.5722 1 14.9747 1ZM19.3471 2.12432C19.7496 2.12432 20.0758 2.43894 20.0758 2.82703V6.52689C20.0758 6.91498 19.7496 7.22959 19.3471 7.22959C18.9446 7.22959 18.6184 6.91498 18.6184 6.52689V2.82703C18.6184 2.43894 18.9446 2.12432 19.3471 2.12432ZM10.6022 3.24865C11.0047 3.24865 11.331 3.56326 11.331 3.95135V7.32432C11.331 7.71242 11.0047 8.02703 10.6022 8.02703C10.1998 8.02703 9.87349 7.71242 9.87349 7.32432V3.95135C9.87349 3.56326 10.1998 3.24865 10.6022 3.24865Z" fill="#000000"/>
</svg>
