<svg width="32" height="32" viewBox="0 0 32 32" fill="none" xmlns="http://www.w3.org/2000/svg">
<path fill-rule="evenodd" clip-rule="evenodd" d="M6.44414 15.1111V25.5278C6.44414 26.6784 7.36092 27.6111 8.49182 27.6111H23.5081C24.639 27.6111 25.5558 26.6784 25.5558 25.5278V15.1111H26.9209V25.5278C26.9209 27.4454 25.393 29 23.5081 29H8.49182C6.60698 29 5.07902 27.4454 5.07902 25.5278V15.1111H6.44414Z" fill="#000000"/>
<path fill-rule="evenodd" clip-rule="evenodd" d="M9.84206 5.38889C9.63143 5.38889 9.4326 5.48783 9.30328 5.65699L3.49777 13.2512C3.33606 13.4627 3.35212 13.6446 3.39956 13.7276C3.87349 14.5564 4.75428 15.1111 5.76161 15.1111C7.06265 15.1111 8.1526 14.1845 8.42581 12.944C8.50227 12.5968 8.80581 12.3333 9.1744 12.3333C9.543 12.3333 9.84654 12.5968 9.923 12.944C10.1962 14.1845 11.2862 15.1111 12.5872 15.1111C13.8882 15.1111 14.9782 14.1845 15.2514 12.944C15.3279 12.5968 15.6314 12.3333 16 12.3333C16.3686 12.3333 16.6721 12.5968 16.7486 12.944C17.0218 14.1845 18.1118 15.1111 19.4128 15.1111C20.7138 15.1111 21.8038 14.1845 22.077 12.944C22.1535 12.5968 22.457 12.3333 22.8256 12.3333C23.1942 12.3333 23.4977 12.5968 23.5742 12.944C23.8474 14.1845 24.9373 15.1111 26.2384 15.1111C27.2457 15.1111 28.1265 14.5564 28.6004 13.7276C28.6479 13.6446 28.6639 13.4627 28.5022 13.2512L22.6967 5.65699C22.5674 5.48783 22.3686 5.38889 22.1579 5.38889H9.84206ZM8.22572 4.80429C8.61367 4.29682 9.21017 4 9.84206 4H22.1579C22.7898 4 23.3863 4.29682 23.7743 4.80429L29.5798 12.3985C29.9738 12.9139 30.1881 13.713 29.7804 14.426C29.0721 15.6647 27.7515 16.5 26.2384 16.5C24.8134 16.5 23.5591 15.7599 22.8256 14.6371C22.0921 15.7599 20.8378 16.5 19.4128 16.5C17.9878 16.5 16.7335 15.7599 16 14.6371C15.2665 15.7599 14.0122 16.5 12.5872 16.5C11.1622 16.5 9.90792 15.7599 9.17441 14.6371C8.44089 15.7599 7.18663 16.5 5.76161 16.5C4.24848 16.5 2.92789 15.6647 2.21959 14.426C1.81189 13.713 2.02623 12.9139 2.42021 12.3985L8.22572 4.80429Z" fill="#000000"/>
<path fill-rule="evenodd" clip-rule="evenodd" d="M13.2697 20.6667C13.2697 19.5161 14.1865 18.5833 15.3174 18.5833H20.7779C21.9088 18.5833 22.8256 19.5161 22.8256 20.6667V27.6111H21.4605V20.6667C21.4605 20.2831 21.1549 19.9722 20.7779 19.9722H15.3174C14.9404 19.9722 14.6349 20.2831 14.6349 20.6667V27.6111H13.2697V20.6667Z" fill="#000000"/>
<path d="M20.0953 24.1389C20.0953 24.5224 19.7897 24.8333 19.4128 24.8333C19.0358 24.8333 18.7302 24.5224 18.7302 24.1389C18.7302 23.7554 19.0358 23.4444 19.4128 23.4444C19.7897 23.4444 20.0953 23.7554 20.0953 24.1389Z" fill="#000000"/>
</svg>
