<svg width="32" height="32" viewBox="0 0 32 32" fill="none" xmlns="http://www.w3.org/2000/svg">
<path d="M5.85714 23.1429L6.2107 22.7893L5.85714 23.1429ZM25.8915 23.2358L25.5661 22.8562L25.8915 23.2358ZM26.3772 11.2526L26.7613 10.9325V10.9325L26.3772 11.2526ZM11.8571 9.14286L12.3044 9.36646V9.36646L11.8571 9.14286ZM5.85714 11.1429L6.2107 11.4964L5.85714 11.1429ZM18.7039 18.629C18.5615 18.8656 18.6379 19.1728 18.8744 19.3152C19.111 19.4576 19.4183 19.3813 19.5607 19.1447L18.7039 18.629ZM19.6183 16.6852L19.1211 16.7385L19.6183 16.6852ZM18.6756 14.6277L19.0411 14.2865L18.6756 14.6277ZM16.7717 13.0475C16.5 12.998 16.2397 13.1782 16.1903 13.4499C16.1408 13.7216 16.321 13.9819 16.5927 14.0313L16.7717 13.0475ZM20.959 19.2368C21.2257 19.1649 21.3836 18.8905 21.3118 18.6239C21.2399 18.3573 20.9655 18.1993 20.6989 18.2712L20.959 19.2368ZM18.5856 19.3583L18.1024 19.4867L18.2312 19.9716L18.7157 19.8411L18.5856 19.3583ZM18.4687 16.9709C18.3978 16.704 18.124 16.5452 17.8571 16.6161C17.5902 16.687 17.4313 16.9608 17.5023 17.2277L18.4687 16.9709ZM13.2361 15.1668C13.3786 14.9302 13.3022 14.623 13.0656 14.4806C12.829 14.3382 12.5218 14.4145 12.3794 14.6511L13.2361 15.1668ZM12.3218 17.1106L12.8189 17.0573L12.3218 17.1106ZM15.1684 20.7483C15.4401 20.7977 15.7004 20.6176 15.7498 20.3459C15.7992 20.0742 15.6191 19.8139 15.3474 19.7645L15.1684 20.7483ZM10.981 14.559C10.7144 14.6308 10.5565 14.9052 10.6283 15.1718C10.7001 15.4385 10.9745 15.5964 11.2412 15.5245L10.981 14.559ZM13.3544 14.4374L13.8377 14.309L13.7088 13.8241L13.2244 13.9546L13.3544 14.4374ZM13.4713 16.8248C13.5422 17.0917 13.8161 17.2506 14.083 17.1797C14.3498 17.1088 14.5087 16.8349 14.4378 16.5681L13.4713 16.8248ZM5.5 21.0735V13.2122H4.5V21.0735H5.5ZM7.92647 10.7857H10.008V9.78571H7.92647V10.7857ZM13.7063 8.5H18.008V7.5H13.7063V8.5ZM21.7063 10.7857H24.3128V9.78571H21.7063V10.7857ZM26.5 12.9729V20.8258H27.5V12.9729H26.5ZM23.8258 23.5H7.92647V24.5H23.8258V23.5ZM7.92647 23.5C7.28293 23.5 6.66575 23.2444 6.2107 22.7893L5.50359 23.4964C6.14618 24.139 7.01771 24.5 7.92647 24.5V23.5ZM25.5661 22.8562C25.0815 23.2716 24.4641 23.5 23.8258 23.5V24.5C24.7029 24.5 25.551 24.1863 26.2169 23.6155L25.5661 22.8562ZM26.5 20.8258C26.5 21.6065 26.1589 22.3481 25.5661 22.8562L26.2169 23.6155C27.0313 22.9174 27.5 21.8984 27.5 20.8258H26.5ZM25.9931 11.5727C26.3206 11.9658 26.5 12.4612 26.5 12.9729H27.5C27.5 12.2273 27.2386 11.5053 26.7613 10.9325L25.9931 11.5727ZM24.3128 10.7857C24.9619 10.7857 25.5775 11.074 25.9931 11.5727L26.7613 10.9325C26.1557 10.2059 25.2587 9.78571 24.3128 9.78571V10.7857ZM19.4099 9.36646C19.8448 10.2363 20.7338 10.7857 21.7063 10.7857V9.78571C21.1126 9.78571 20.5699 9.45028 20.3044 8.91925L19.4099 9.36646ZM18.008 8.5C18.6017 8.5 19.1444 8.83544 19.4099 9.36646L20.3044 8.91925C19.8695 8.04944 18.9804 7.5 18.008 7.5V8.5ZM12.3044 9.36646C12.5699 8.83544 13.1126 8.5 13.7063 8.5V7.5C12.7338 7.5 11.8448 8.04944 11.4099 8.91925L12.3044 9.36646ZM10.008 10.7857C10.9804 10.7857 11.8695 10.2363 12.3044 9.36646L11.4099 8.91925C11.1444 9.45028 10.6017 9.78571 10.008 9.78571V10.7857ZM6.2107 11.4964C6.66575 11.0414 7.28293 10.7857 7.92647 10.7857V9.78571C7.01771 9.78571 6.14618 10.1467 5.50359 10.7893L6.2107 11.4964ZM5.5 13.2122C5.5 12.5686 5.75565 11.9515 6.2107 11.4964L5.50359 10.7893C4.861 11.4319 4.5 12.3034 4.5 13.2122H5.5ZM4.5 21.0735C4.5 21.9823 4.861 22.8538 5.50359 23.4964L6.2107 22.7893C5.75564 22.3343 5.5 21.7171 5.5 21.0735H4.5ZM19.5607 19.1447C20.0148 18.3902 20.2094 17.5083 20.1154 16.6319L19.1211 16.7385C19.1919 17.3984 19.0454 18.0617 18.7039 18.629L19.5607 19.1447ZM20.1154 16.6319C20.0214 15.7556 19.6441 14.9327 19.0411 14.2865L18.31 14.9689C18.766 15.4574 19.0504 16.0786 19.1211 16.7385L20.1154 16.6319ZM19.0411 14.2865C18.4381 13.6405 17.6417 13.2058 16.7717 13.0475L16.5927 14.0313C17.2513 14.1511 17.854 14.4803 18.31 14.9689L19.0411 14.2865ZM20.6989 18.2712L18.4556 18.8755L18.7157 19.8411L20.959 19.2368L20.6989 18.2712ZM19.0689 19.2299L18.4687 16.9709L17.5023 17.2277L18.1024 19.4867L19.0689 19.2299ZM12.3794 14.6511C11.9252 15.4056 11.7307 16.2875 11.8246 17.1639L12.8189 17.0573C12.7482 16.3974 12.8947 15.7341 13.2361 15.1668L12.3794 14.6511ZM11.8246 17.1639C11.9186 18.0402 12.2959 18.8631 12.899 19.5092L13.63 18.8269C13.174 18.3384 12.8897 17.7172 12.8189 17.0573L11.8246 17.1639ZM12.899 19.5092C13.502 20.1553 14.2984 20.59 15.1684 20.7483L15.3474 19.7645C14.6888 19.6446 14.0861 19.3155 13.63 18.8269L12.899 19.5092ZM11.2412 15.5245L13.4845 14.9202L13.2244 13.9546L10.981 14.559L11.2412 15.5245ZM12.8712 14.5658L13.4713 16.8248L14.4378 16.5681L13.8377 14.309L12.8712 14.5658Z" fill="#000000"/>
</svg>
