<svg width="32" height="32" viewBox="0 0 32 32" fill="none" xmlns="http://www.w3.org/2000/svg">
<path fill-rule="evenodd" clip-rule="evenodd" d="M16.0276 9.49762C15.6522 9.49946 15.3074 9.29088 15.1347 8.95752C14.8522 8.41202 14.5748 7.91677 14.2958 7.46865C13.5204 6.22364 12.753 5.37702 11.8717 4.83196C11.0022 4.2942 9.94048 4 8.48865 4C4.88681 4 2 6.83731 2 10.3146C2 13.3059 3.40349 16.4062 5.74411 19.6474C8.07863 22.8803 11.2595 26.1382 14.6464 29.4404C15.4131 30.188 16.6263 30.1864 17.3916 29.4364C20.761 26.1346 23.9322 22.8775 26.2617 19.6453C28.5972 16.4046 30 13.3052 30 10.3146C30 6.83731 27.1132 4 23.5113 4C22.0604 4 21.0001 4.29385 20.1353 4.82975C19.2595 5.37253 18.4999 6.21559 17.7398 7.45571C17.4645 7.90474 17.1919 8.40138 16.9151 8.94882C16.7457 9.28385 16.403 9.49579 16.0276 9.49762ZM15.4454 7.44094C15.6387 7.77425 15.8305 8.12647 16.0227 8.49763C16.2113 8.12466 16.3998 7.77082 16.5904 7.43608C16.6887 7.26334 16.7876 7.09568 16.8872 6.9331C18.5002 4.30162 20.323 3 23.5113 3C27.6415 3 31 6.26131 31 10.3146C31 16.9115 24.8307 23.5467 18.0916 30.1507C16.9383 31.2807 15.1044 31.2836 13.9483 30.1564C7.17295 23.5506 1 16.9134 1 10.3146C1 6.26131 4.35855 3 8.48865 3C11.6798 3 13.503 4.3039 15.1446 6.94002C15.2455 7.10196 15.3456 7.26893 15.4454 7.44094Z" fill="#000000"/>
</svg>
