<svg width="32" height="32" viewBox="0 0 32 32" fill="none" xmlns="http://www.w3.org/2000/svg">
<path fill-rule="evenodd" clip-rule="evenodd" d="M16.0139 6.44435C16.0071 6.43335 16.0003 6.42236 15.9935 6.41139C15.1271 5.02028 14.1621 3.89689 12.9237 3.13097C11.6734 2.35775 10.2279 2 8.48866 2C3.83029 2 0 5.6853 0 10.3146C0 13.9222 1.68298 17.4399 4.12268 20.8183C6.56848 24.2053 9.8618 27.5688 13.2502 30.8724C14.7956 32.3791 17.2504 32.3751 18.7915 30.8649C22.1612 27.5628 25.4442 24.2002 27.8842 20.8147C30.3181 17.4375 32 13.921 32 10.3146C32 5.6853 28.1697 2 23.5113 2C21.774 2 20.3288 2.35696 19.0818 3.12973C17.8459 3.89564 16.8875 5.01913 16.0346 6.4105C16.0277 6.42176 16.0208 6.43305 16.0139 6.44435Z" fill="#000000"/>
</svg>
