<svg width="32" height="32" viewBox="0 0 32 32" fill="none" xmlns="http://www.w3.org/2000/svg">
<path fill-rule="evenodd" clip-rule="evenodd" d="M23.7782 1C24.3305 1 24.7782 1.44772 24.7782 2V8.8436L18.5884 11.8968C18.0931 12.1411 17.4935 11.9377 17.2492 11.4424C17.0048 10.9471 17.2083 10.3475 17.7036 10.1032L21.9871 7.99029C20.5336 6.90389 18.8039 6.22778 16.9802 6.04816C14.6778 5.82139 12.3679 6.39997 10.4443 7.68531C8.52065 8.97065 7.10219 10.8832 6.4306 13.0972C5.75901 15.3111 5.87585 17.6894 6.76121 19.8268C7.64657 21.9643 9.24566 23.7286 11.286 24.8192C13.3264 25.9098 15.6818 26.2592 17.9509 25.8079C20.22 25.3565 22.2624 24.1323 23.7301 22.3439C25.1978 20.5555 26 18.3136 26 16C26 15.4477 26.4477 15 27 15C27.5523 15 28 15.4477 28 16C28 18.7763 27.0374 21.4666 25.2761 23.6127C23.5149 25.7588 21.064 27.2278 18.3411 27.7694C15.6182 28.3111 12.7917 27.8918 10.3432 26.5831C7.8948 25.2743 5.97588 23.1571 4.91345 20.5922C3.85102 18.0273 3.71081 15.1733 4.51672 12.5166C5.32263 9.85987 7.02478 7.56478 9.33316 6.02237C11.6415 4.47996 14.4133 3.78567 17.1762 4.05779C19.1972 4.25683 21.1219 4.96394 22.7782 6.09764V2C22.7782 1.44772 23.2259 1 23.7782 1Z" fill="#000000"/>
</svg>
