<svg width="32" height="32" viewBox="0 0 32 32" fill="none" xmlns="http://www.w3.org/2000/svg">
<path d="M17.0555 2.5132L20.6283 9.75264C20.7594 10.0183 21.0128 10.2024 21.306 10.245L29.2952 11.4059C30.1974 11.537 30.5577 12.6457 29.9048 13.2821L24.1238 18.9173C23.9117 19.124 23.8149 19.4219 23.8649 19.7139L25.2297 27.6708C25.3838 28.5694 24.4406 29.2546 23.6336 28.8304L16.4879 25.0736C16.2257 24.9358 15.9124 24.9358 15.6502 25.0736L8.50449 28.8304C7.6975 29.2546 6.75433 28.5694 6.90845 27.6708L8.27316 19.7139C8.32324 19.4219 8.22644 19.124 8.01433 18.9173L2.23329 13.2821C1.58042 12.6457 1.94069 11.537 2.84293 11.4059L10.8321 10.245C11.1253 10.2024 11.3787 10.0183 11.5098 9.75264L15.0826 2.5132C15.4861 1.69563 16.652 1.69563 17.0555 2.5132Z" fill="#000000"/>
</svg>
