<svg width="32" height="32" viewBox="0 0 32 32" fill="none" xmlns="http://www.w3.org/2000/svg">
<path fill-rule="evenodd" clip-rule="evenodd" d="M19.6419 10.2394L16.069 3L12.4962 10.2394C12.2048 10.8297 11.6417 11.2389 10.9903 11.3335L3.00109 12.4944L8.78213 18.1295C9.2535 18.589 9.4686 19.251 9.35732 19.8998L7.9926 27.8567L15.1384 24.1C15.721 23.7936 16.4171 23.7936 16.9997 24.1L24.1455 27.8567L22.7808 19.8998C22.6695 19.251 22.8846 18.589 23.3559 18.1295L29.137 12.4944L21.1478 11.3335C20.4964 11.2389 19.9332 10.8297 19.6419 10.2394ZM16.9658 2.55744C16.599 1.81419 15.5391 1.81419 15.1723 2.55743L11.5994 9.79687C11.4538 10.092 11.1722 10.2966 10.8465 10.3439L2.8573 11.5048C2.03708 11.624 1.70956 12.632 2.30308 13.2105L8.08412 18.8456C8.3198 19.0754 8.42735 19.4064 8.37171 19.7307L7.007 27.6877C6.86689 28.5046 7.72432 29.1275 8.45794 28.7418L15.6037 24.9851C15.895 24.8319 16.2431 24.8319 16.5344 24.9851L23.6801 28.7418C24.4138 29.1275 25.2712 28.5046 25.1311 27.6877L23.7664 19.7308C23.7107 19.4064 23.8183 19.0754 24.054 18.8456L29.835 13.2105C30.4285 12.632 30.101 11.624 29.2808 11.5048L21.2916 10.3439C20.9659 10.2966 20.6843 10.092 20.5387 9.79687L16.9658 2.55744Z" fill="#000000"/>
</svg>
