<svg width="16" height="16" viewBox="0 0 16 16" fill="none" xmlns="http://www.w3.org/2000/svg">
<path d="M13.9998 12.0099L13.9393 9.31648C13.9376 9.24805 13.9192 9.1813 13.8861 9.12289C13.8531 9.06447 13.8063 9.01644 13.7507 8.98356C13.695 8.95068 13.6323 8.93411 13.5688 8.93551C13.5054 8.9369 13.4434 8.95621 13.389 8.9915L11.2565 10.3953C11.2018 10.431 11.1568 10.4817 11.1261 10.5422C11.0953 10.6027 11.0799 10.6709 11.0815 10.7399C11.083 10.8088 11.1014 10.8762 11.1348 10.935C11.1682 10.9938 11.2154 11.0421 11.2716 11.075L11.6844 11.3183C11.0777 12.2935 10.157 12.991 9.10064 13.2757V5.91377C9.58135 5.64658 9.96485 5.21288 10.1896 4.68233C10.4143 4.15178 10.4672 3.55516 10.3397 2.9883C10.2123 2.42143 9.91188 1.91722 9.48681 1.55663C9.06174 1.19604 8.53665 1 7.99587 1C7.45509 1 6.93 1.19604 6.50493 1.55663C6.07986 1.91722 5.77948 2.42143 5.65204 2.9883C5.52459 3.55516 5.57747 4.15178 5.80218 4.68233C6.02689 5.21288 6.4104 5.64658 6.89111 5.91377V13.2757C5.83919 12.9902 4.92233 12.2951 4.31699 11.3243L4.72973 11.0809C4.78598 11.0481 4.83318 10.9998 4.86657 10.9409C4.89996 10.8821 4.91836 10.8148 4.91989 10.7458C4.92143 10.6768 4.90605 10.6087 4.87532 10.5482C4.84458 10.4877 4.79958 10.437 4.74487 10.4013L2.61513 8.99743C2.56075 8.96214 2.49874 8.94284 2.43528 8.94144C2.37182 8.94005 2.30913 8.95662 2.25346 8.98949C2.19779 9.02237 2.15108 9.07041 2.11798 9.12882C2.08488 9.18724 2.06655 9.25399 2.06481 9.32242L2.00015 12.0099C1.99831 12.0789 2.01339 12.1471 2.04388 12.2078C2.07437 12.2685 2.11918 12.3194 2.17378 12.3554C2.22838 12.3914 2.29083 12.4112 2.3548 12.4128C2.41877 12.4144 2.482 12.3978 2.53809 12.3645L3.02787 12.0766C3.56394 12.9735 4.29995 13.711 5.16858 14.2217C6.03721 14.7324 7.01071 15 8 15C8.98929 15 9.96279 14.7324 10.8314 14.2217C11.7 13.711 12.4361 12.9735 12.9721 12.0766L13.4619 12.3645C13.518 12.3978 13.5812 12.4144 13.6452 12.4128C13.7092 12.4112 13.7716 12.3914 13.8262 12.3554C13.8808 12.3194 13.9256 12.2685 13.9561 12.2078C13.9866 12.1471 14.0017 12.0789 13.9998 12.0099ZM8 4.52924C7.8302 4.52924 7.66422 4.47494 7.52304 4.37319C7.38187 4.27144 7.27183 4.12682 7.20685 3.95762C7.14187 3.78841 7.12487 3.60223 7.158 3.4226C7.19112 3.24298 7.27289 3.07799 7.39295 2.94848C7.51301 2.81898 7.66598 2.73079 7.83252 2.69506C7.99905 2.65933 8.17166 2.67767 8.32853 2.74775C8.4854 2.81784 8.61948 2.93653 8.71381 3.0888C8.80815 3.24108 8.8585 3.42011 8.8585 3.60326C8.8585 3.84884 8.76805 4.08437 8.60705 4.25803C8.44605 4.43168 8.22769 4.52924 8 4.52924Z" fill="#000000"/>
</svg>
