<svg width="16" height="16" viewBox="0 0 16 16" fill="none" xmlns="http://www.w3.org/2000/svg">
<path fill-rule="evenodd" clip-rule="evenodd" d="M12.0163 5.67568H2.78962L3.64538 11.3006C3.81508 12.4161 4.81298 13.2432 5.98899 13.2432H8.8169C9.99291 13.2432 10.9908 12.4161 11.1605 11.3006L12.0163 5.67568ZM2.78962 4.91892C2.30826 4.91892 1.93895 5.3283 2.00842 5.78488L2.86417 11.4098C3.09045 12.8971 4.42097 14 5.98899 14H8.8169C10.3849 14 11.7154 12.8971 11.9417 11.4098L12.7975 5.78488C12.8669 5.3283 12.4976 4.91892 12.0163 4.91892H2.78962Z" fill="#000000"/>
<path fill-rule="evenodd" clip-rule="evenodd" d="M13.8842 8.14781C13.5921 7.82778 13.05 7.56757 12.1397 7.56757V6.81081C13.2031 6.81081 13.9933 7.11817 14.4783 7.64949C14.9635 8.18104 15.0875 8.87624 14.9439 9.53663C14.6587 10.8488 13.3119 12.1081 11.3503 12.1081V11.3514C12.9413 11.3514 13.9628 10.3404 14.1711 9.38229C14.2742 8.90755 14.1761 8.46761 13.8842 8.14781Z" fill="#000000"/>
<path fill-rule="evenodd" clip-rule="evenodd" d="M7.40294 0C7.62095 0 7.79768 0.169406 7.79768 0.378378V3.40541C7.79768 3.61438 7.62095 3.78378 7.40294 3.78378C7.18494 3.78378 7.00821 3.61438 7.00821 3.40541V0.378378C7.00821 0.169406 7.18494 0 7.40294 0ZM9.77134 0.605405C9.98935 0.605405 10.1661 0.774811 10.1661 0.983784V2.97602C10.1661 3.18499 9.98935 3.3544 9.77134 3.3544C9.55334 3.3544 9.37661 3.18499 9.37661 2.97602V0.983784C9.37661 0.774811 9.55334 0.605405 9.77134 0.605405ZM5.03454 1.21081C5.25255 1.21081 5.42927 1.38022 5.42927 1.58919V3.40541C5.42927 3.61438 5.25255 3.78378 5.03454 3.78378C4.81654 3.78378 4.63981 3.61438 4.63981 3.40541V1.58919C4.63981 1.38022 4.81654 1.21081 5.03454 1.21081Z" fill="#000000"/>
</svg>
