<svg width="16" height="16" viewBox="0 0 16 16" fill="none" xmlns="http://www.w3.org/2000/svg">
<path fill-rule="evenodd" clip-rule="evenodd" d="M2.31307 2.31312C2.50833 2.11786 2.82492 2.11786 3.02018 2.31312L7.99996 7.2929L12.9797 2.31312C13.175 2.11786 13.4916 2.11786 13.6868 2.31312C13.8821 2.50838 13.8821 2.82496 13.6868 3.02023L8.70707 8L13.6868 12.9798C13.8821 13.175 13.8821 13.4916 13.6868 13.6869C13.4916 13.8822 13.175 13.8822 12.9797 13.6869L7.99996 8.70711L3.02018 13.6869C2.82492 13.8822 2.50833 13.8822 2.31307 13.6869C2.11781 13.4916 2.11781 13.175 2.31307 12.9798L7.29285 8L2.31307 3.02023C2.11781 2.82496 2.11781 2.50838 2.31307 2.31312Z" fill="#000000"/>
</svg>
