<svg width="16" height="16" viewBox="0 0 16 16" fill="none" xmlns="http://www.w3.org/2000/svg">
<path fill-rule="evenodd" clip-rule="evenodd" d="M1.95952 1.95956C2.35004 1.56904 2.98321 1.56904 3.37373 1.95956L7.99996 6.58579L12.6262 1.95956C13.0167 1.56904 13.6499 1.56904 14.0404 1.95956C14.4309 2.35009 14.4309 2.98325 14.0404 3.37378L9.41417 8L14.0404 12.6262C14.4309 13.0168 14.4309 13.6499 14.0404 14.0404C13.6499 14.431 13.0167 14.431 12.6262 14.0404L7.99996 9.41422L3.37373 14.0404C2.98321 14.431 2.35004 14.431 1.95952 14.0404C1.56899 13.6499 1.56899 13.0168 1.95952 12.6262L6.58575 8L1.95952 3.37378C1.56899 2.98325 1.56899 2.35009 1.95952 1.95956Z" fill="#000000"/>
</svg>
