<svg width="16" height="16" viewBox="0 0 16 16" fill="none" xmlns="http://www.w3.org/2000/svg">
<path fill-rule="evenodd" clip-rule="evenodd" d="M8 2C4.68629 2 2 4.68629 2 8C2 11.3137 4.68629 14 8 14C11.3137 14 14 11.3137 14 8C14 4.68629 11.3137 2 8 2ZM8 1C4.13401 1 1 4.13401 1 8C1 11.866 4.13401 15 8 15C11.866 15 15 11.866 15 8C15 4.13401 11.866 1 8 1Z" fill="#000000"/>
<path d="M7.635 11.8815V8.7355C7.635 8.5705 7.63867 8.40917 7.646 8.2515C7.64967 8.09383 7.657 7.93433 7.668 7.773C7.679 7.61533 7.69367 7.45217 7.712 7.2835C7.72667 7.1185 7.745 6.94067 7.767 6.75H8.4325C8.4545 6.94067 8.47467 7.1185 8.493 7.2835C8.50767 7.45217 8.5205 7.61533 8.5315 7.773C8.5425 7.93433 8.55167 8.09383 8.559 8.2515C8.56267 8.40917 8.5645 8.5705 8.5645 8.7355V11.8815H7.635ZM8.801 4.605C8.801 4.70033 8.7845 4.79017 8.7515 4.8745C8.71483 4.95883 8.66717 5.03217 8.6085 5.0945C8.54617 5.15683 8.47283 5.20633 8.3885 5.243C8.30417 5.27967 8.21433 5.298 8.119 5.298C8.02367 5.298 7.93383 5.27967 7.8495 5.243C7.76517 5.20633 7.69183 5.15683 7.6295 5.0945C7.56717 5.03217 7.5195 4.95883 7.4865 4.8745C7.44983 4.79017 7.4315 4.70033 7.4315 4.605C7.4315 4.506 7.44983 4.41433 7.4865 4.33C7.5195 4.24933 7.56717 4.17783 7.6295 4.1155C7.69183 4.05317 7.76517 4.0055 7.8495 3.9725C7.93383 3.93583 8.02367 3.9175 8.119 3.9175C8.21433 3.9175 8.30417 3.93583 8.3885 3.9725C8.47283 4.0055 8.54617 4.05317 8.6085 4.1155C8.66717 4.17783 8.71483 4.24933 8.7515 4.33C8.7845 4.41433 8.801 4.506 8.801 4.605Z" fill="#000000"/>
</svg>
