<svg width="16" height="16" viewBox="0 0 16 16" fill="none" xmlns="http://www.w3.org/2000/svg">
<path fill-rule="evenodd" clip-rule="evenodd" d="M5.32409 10.6731C5.63585 10.9872 5.52248 11.5867 5.069 12.0436C4.54467 12.586 3.26925 12.9286 3.21257 12.9429L3 13L3.05668 12.7859C3.07086 12.7288 3.45348 11.4154 3.94947 10.9301C4.21873 10.6588 4.55884 10.5018 4.85644 10.5018C5.04066 10.4875 5.19655 10.5589 5.32409 10.6731ZM13 3.28807C13 5.79219 12.511 7.67028 10.1332 9.86985C10.1669 11.0542 9.81282 12.0017 9.05396 12.7631L8.81788 13L7.35076 10.8343L6.99447 10.7342C6.1479 10.4965 5.48844 9.83158 5.2578 8.98305L5.15852 8.61779L3 7.12885L3.25295 6.89197C4.0118 6.13058 4.97302 5.77527 6.15346 5.82603C8.36256 3.45726 10.2344 2.98351 12.7302 3.00043H13V3.28807ZM9.92343 4.87695C9.24542 4.83825 8.66426 5.38004 8.62552 6.07663C8.60615 6.75386 9.12919 7.33435 9.82657 7.37305C10.524 7.41175 11.0857 6.86996 11.1245 6.17337C11.1439 5.49614 10.6208 4.91565 9.92343 4.87695Z" fill="#000000"/>
</svg>
