<svg width="16" height="16" viewBox="0 0 16 16" fill="none" xmlns="http://www.w3.org/2000/svg">
<path d="M5 4C5 3.44772 5.44772 3 6 3H13C13.5523 3 14 3.44772 14 4C14 4.55228 13.5523 5 13 5H6C5.44772 5 5 4.55228 5 4Z" fill="#000000"/>
<path d="M2 4C2 3.44772 2.44772 3 3 3C3.55228 3 4 3.44772 4 4C4 4.55228 3.55228 5 3 5C2.44772 5 2 4.55228 2 4Z" fill="#000000"/>
<path d="M5 8C5 7.44772 5.44772 7 6 7H13C13.5523 7 14 7.44772 14 8C14 8.55228 13.5523 9 13 9H6C5.44772 9 5 8.55228 5 8Z" fill="#000000"/>
<path d="M2 8C2 7.44772 2.44772 7 3 7C3.55228 7 4 7.44772 4 8C4 8.55228 3.55228 9 3 9C2.44772 9 2 8.55228 2 8Z" fill="#000000"/>
<path d="M5 12C5 11.4477 5.44772 11 6 11H13C13.5523 11 14 11.4477 14 12C14 12.5523 13.5523 13 13 13H6C5.44772 13 5 12.5523 5 12Z" fill="#000000"/>
<path d="M2 12C2 11.4477 2.44772 11 3 11C3.55228 11 4 11.4477 4 12C4 12.5523 3.55228 13 3 13C2.44772 13 2 12.5523 2 12Z" fill="#000000"/>
</svg>
