<svg width="16" height="16" viewBox="0 0 16 16" fill="none" xmlns="http://www.w3.org/2000/svg">
<path fill-rule="evenodd" clip-rule="evenodd" d="M8 3C7.0111 3 6.0444 3.29324 5.22215 3.84265C4.39991 4.39206 3.75904 5.17295 3.3806 6.08658C3.00217 7.00021 2.90315 8.00555 3.09608 8.97545C3.289 9.94536 3.76521 10.8363 4.46447 11.5355C5.16373 12.2348 6.05465 12.711 7.02455 12.9039C7.99446 13.0969 8.99979 12.9978 9.91342 12.6194C10.8271 12.241 11.6079 11.6001 12.1574 10.7779C12.7068 9.95561 13 8.98891 13 8C13 7.72386 13.2239 7.5 13.5 7.5C13.7761 7.5 14 7.72386 14 8C14 9.18669 13.6481 10.3467 12.9888 11.3334C12.3295 12.3201 11.3925 13.0892 10.2961 13.5433C9.19975 13.9974 7.99335 14.1162 6.82946 13.8847C5.66557 13.6532 4.59648 13.0818 3.75736 12.2426C2.91825 11.4035 2.3468 10.3344 2.11529 9.17054C1.88378 8.00666 2.0026 6.80026 2.45673 5.7039C2.91085 4.60754 3.67989 3.67047 4.66658 3.01118C5.65328 2.35189 6.81331 2 8 2C8.27614 2 8.5 2.22386 8.5 2.5C8.5 2.77614 8.27614 3 8 3Z" fill="#000000"/>
</svg>
