<svg width="16" height="16" viewBox="0 0 16 16" fill="none" xmlns="http://www.w3.org/2000/svg">
<path d="M11.9977 9.39833C11.9977 8.83367 11.5622 8.37656 11.0253 8.37778H10.7377L10.7365 5.97122C10.7354 4.33222 9.46492 2.99878 7.90335 3C6.34178 3.00122 5.07249 4.33467 5.07249 5.97367L5.07365 8.38022H4.97234C4.43552 8.38144 4 8.83856 4 9.402L4.00233 12.9794C4.00233 13.5429 4.43785 14 4.97467 14L11.0277 13.9963C11.5645 13.9963 12 13.5392 12 12.9758L11.9977 9.39833ZM6.1182 8.38022L6.11703 5.97367C6.11587 4.93845 6.91819 4.09633 7.90335 4.09511C8.88967 4.09511 9.69199 4.93722 9.69316 5.97122L9.69432 8.37778L6.1182 8.38022Z" fill="#000000"/>
</svg>
