<svg width="16" height="16" viewBox="0 0 16 16" fill="none" xmlns="http://www.w3.org/2000/svg">
<path fill-rule="evenodd" clip-rule="evenodd" d="M2.5 6C2.5 5.72386 2.72386 5.5 3 5.5H13C13.2761 5.5 13.5 5.72386 13.5 6C13.5 6.27614 13.2761 6.5 13 6.5H3C2.72386 6.5 2.5 6.27614 2.5 6ZM2.5 9C2.5 8.72386 2.72386 8.5 3 8.5H6C6.27614 8.5 6.5 8.72386 6.5 9C6.5 9.27614 6.27614 9.5 6 9.5H3C2.72386 9.5 2.5 9.27614 2.5 9Z" fill="#000000"/>
<path d="M11.6667 11.2464H9.33333V13.5H8V8H9.33333V10.1905H11.6667V8H13V13.5H11.6667V11.2464Z" fill="#000000"/>
</svg>
