<svg width="16" height="16" viewBox="0 0 16 16" fill="none" xmlns="http://www.w3.org/2000/svg">
<path d="M5 3.14532C5.17639 2.9895 5.36835 2.84146 5.57588 2.70122C5.78859 2.56098 6.01686 2.43891 6.2607 2.33503C6.50454 2.23114 6.76913 2.15063 7.05447 2.0935C7.33982 2.03117 7.64851 2 7.98054 2C8.43191 2 8.84176 2.06233 9.21012 2.18699C9.58366 2.31165 9.90272 2.49085 10.1673 2.72459C10.4319 2.95314 10.6368 3.23103 10.7821 3.55826C10.9274 3.8855 11 4.25169 11 4.65684C11 5.0516 10.9429 5.39442 10.8288 5.6853C10.7147 5.97098 10.572 6.2203 10.4008 6.43326C10.2296 6.64623 10.0402 6.83062 9.83268 6.98645C9.63035 7.14228 9.43839 7.29031 9.25681 7.43055C9.07523 7.5656 8.91699 7.70065 8.7821 7.8357C8.6524 7.96556 8.57458 8.11359 8.54864 8.27981L8.36965 9.41734H7.05447L6.92218 8.14736C6.89105 7.90323 6.92477 7.69027 7.02335 7.50847C7.12711 7.32148 7.262 7.15266 7.42802 7.00203C7.59922 6.84621 7.78859 6.69817 7.99611 6.55793C8.20363 6.41249 8.39818 6.25666 8.57977 6.09045C8.76135 5.91904 8.9118 5.72945 9.03113 5.52168C9.15564 5.30872 9.2179 5.0568 9.2179 4.76592C9.2179 4.57893 9.18158 4.41271 9.10895 4.26728C9.0415 4.11664 8.94553 3.98939 8.82101 3.8855C8.6965 3.77642 8.54604 3.69331 8.36965 3.63618C8.19844 3.57904 8.01167 3.55047 7.80934 3.55047C7.51362 3.55047 7.262 3.58424 7.05447 3.65176C6.85214 3.71409 6.67834 3.78681 6.53307 3.86992C6.393 3.94783 6.27367 4.02055 6.1751 4.08808C6.07652 4.15041 5.98833 4.18157 5.91051 4.18157C5.72374 4.18157 5.58885 4.10366 5.50584 3.94783L5 3.14532ZM6.47082 12.3313C6.47082 12.1703 6.49935 12.017 6.55642 11.8716C6.61868 11.7262 6.70169 11.6015 6.80545 11.4976C6.90921 11.3937 7.03372 11.3106 7.17899 11.2483C7.32425 11.186 7.4799 11.1548 7.64591 11.1548C7.81193 11.1548 7.96498 11.186 8.10506 11.2483C8.25032 11.3106 8.37484 11.3937 8.4786 11.4976C8.58755 11.6015 8.67315 11.7262 8.73541 11.8716C8.79767 12.017 8.82879 12.1703 8.82879 12.3313C8.82879 12.4975 8.79767 12.6533 8.73541 12.7988C8.67315 12.939 8.58755 13.0611 8.4786 13.165C8.37484 13.2689 8.25032 13.3494 8.10506 13.4065C7.96498 13.4688 7.81193 13.5 7.64591 13.5C7.4799 13.5 7.32425 13.4688 7.17899 13.4065C7.03372 13.3494 6.90921 13.2689 6.80545 13.165C6.70169 13.0611 6.61868 12.939 6.55642 12.7988C6.49935 12.6533 6.47082 12.4975 6.47082 12.3313Z" fill="#000000"/>
</svg>
