<svg width="16" height="16" viewBox="0 0 16 16" fill="none" xmlns="http://www.w3.org/2000/svg">
<path fill-rule="evenodd" clip-rule="evenodd" d="M8 14C11.3137 14 14 11.3137 14 8C14 4.68629 11.3137 2 8 2C4.68629 2 2 4.68629 2 8C2 11.3137 4.68629 14 8 14ZM8 15C11.866 15 15 11.866 15 8C15 4.13401 11.866 1 8 1C4.13401 1 1 4.13401 1 8C1 11.866 4.13401 15 8 15Z" fill="#000000"/>
<path d="M6.187 4.8225C6.30067 4.71617 6.42533 4.61533 6.561 4.52C6.70033 4.42467 6.85067 4.34033 7.012 4.267C7.177 4.19367 7.353 4.13683 7.54 4.0965C7.73067 4.0525 7.936 4.0305 8.156 4.0305C8.44567 4.0305 8.71333 4.07267 8.959 4.157C9.20833 4.24133 9.42283 4.3605 9.6025 4.5145C9.78217 4.6685 9.92333 4.8555 10.026 5.0755C10.1287 5.2955 10.18 5.543 10.18 5.818C10.18 6.09667 10.1378 6.33683 10.0535 6.5385C9.97283 6.74017 9.86833 6.918 9.74 7.072C9.61533 7.22233 9.47783 7.35433 9.3275 7.468C9.17717 7.578 9.036 7.6825 8.904 7.7815C8.77567 7.8805 8.66383 7.9795 8.5685 8.0785C8.47683 8.1775 8.42367 8.2875 8.409 8.4085L8.31 9.25H7.639L7.573 8.337V8.2765C7.573 8.1225 7.61333 7.98683 7.694 7.8695C7.77833 7.7485 7.88283 7.63667 8.0075 7.534C8.13583 7.42767 8.2715 7.32317 8.4145 7.2205C8.56117 7.11417 8.69683 6.99867 8.8215 6.874C8.94983 6.74567 9.05433 6.60083 9.135 6.4395C9.21933 6.27817 9.2615 6.0875 9.2615 5.8675C9.2615 5.70983 9.23033 5.56683 9.168 5.4385C9.10567 5.31017 9.02133 5.202 8.915 5.114C8.80867 5.02233 8.68217 4.95267 8.5355 4.905C8.3925 4.85733 8.2385 4.8335 8.0735 4.8335C7.84983 4.8335 7.65733 4.861 7.496 4.916C7.33833 4.971 7.2045 5.0315 7.0945 5.0975C6.9845 5.1635 6.89467 5.224 6.825 5.279C6.759 5.334 6.704 5.3615 6.66 5.3615C6.56833 5.3615 6.49683 5.31933 6.4455 5.235L6.187 4.8225ZM7.265 11.395C7.265 11.2997 7.2815 11.2098 7.3145 11.1255C7.35117 11.0412 7.39883 10.9678 7.4575 10.9055C7.51983 10.8432 7.59317 10.7937 7.6775 10.757C7.76183 10.7203 7.85167 10.702 7.947 10.702C8.04233 10.702 8.13217 10.7203 8.2165 10.757C8.30083 10.7937 8.37417 10.8432 8.4365 10.9055C8.49883 10.9678 8.5465 11.0412 8.5795 11.1255C8.61617 11.2098 8.6345 11.2997 8.6345 11.395C8.6345 11.494 8.61617 11.5857 8.5795 11.67C8.5465 11.7507 8.49883 11.8222 8.4365 11.8845C8.37417 11.9468 8.30083 11.9945 8.2165 12.0275C8.13217 12.0642 8.04233 12.0825 7.947 12.0825C7.85167 12.0825 7.76183 12.0642 7.6775 12.0275C7.59317 11.9945 7.51983 11.9468 7.4575 11.8845C7.39883 11.8222 7.35117 11.7507 7.3145 11.67C7.2815 11.5857 7.265 11.494 7.265 11.395Z" fill="#000000"/>
</svg>
