<svg width="16" height="16" viewBox="0 0 16 16" fill="none" xmlns="http://www.w3.org/2000/svg">
<path fill-rule="evenodd" clip-rule="evenodd" d="M9.73172 5.04453L8 1.69641L6.26828 5.04453C6.0736 5.42093 5.71854 5.6879 5.30367 5.76982L1.69507 6.48236L4.25612 9.33864C4.52494 9.63845 4.65102 10.0404 4.60177 10.4405L4.12653 14.3023L7.37973 12.674C7.77027 12.4785 8.22973 12.4785 8.62027 12.674L11.8735 14.3023L11.3982 10.4405C11.349 10.0404 11.4751 9.63845 11.7439 9.33864L14.3049 6.48236L10.6963 5.76982C10.2815 5.6879 9.9264 5.42093 9.73172 5.04453ZM8.61647 1.37577C8.35733 0.874746 7.64267 0.874744 7.38353 1.37576L5.65181 4.72388C5.55447 4.91208 5.37694 5.04557 5.16951 5.08653L1.56091 5.79907C1.03204 5.9035 0.818267 6.54605 1.17867 6.948L3.73972 9.80427C3.87413 9.95418 3.93717 10.1551 3.91254 10.3552L3.4373 14.217C3.36946 14.7683 3.94103 15.1735 4.43667 14.9254L7.68987 13.2971C7.88514 13.1994 8.11486 13.1994 8.31013 13.2971L11.5633 14.9254C12.059 15.1735 12.6305 14.7683 12.5627 14.217L12.0875 10.3552C12.0628 10.1551 12.1259 9.95418 12.2603 9.80427L14.8213 6.948C15.1817 6.54604 14.968 5.9035 14.4391 5.79907L10.8305 5.08653C10.6231 5.04557 10.4455 4.91208 10.3482 4.72388L8.61647 1.37577Z" fill="#000000"/>
</svg>
