<svg width="16" height="16" viewBox="0 0 16 16" fill="none" xmlns="http://www.w3.org/2000/svg">
<path fill-rule="evenodd" clip-rule="evenodd" d="M1.3536 8.64645C1.54886 8.45118 1.86544 8.45118 2.06071 8.64645L6.3536 12.9393C6.54886 13.1346 6.54886 13.4512 6.3536 13.6464C6.15834 13.8417 5.84176 13.8417 5.64649 13.6464L1.3536 9.35355C1.15834 9.15829 1.15834 8.84171 1.3536 8.64645Z" fill="#000000"/>
<path fill-rule="evenodd" clip-rule="evenodd" d="M5.64649 13.6464C5.45123 13.4512 5.45123 13.1346 5.64649 12.9393L13.9394 4.64645C14.1346 4.45118 14.4512 4.45118 14.6465 4.64645C14.8418 4.84171 14.8418 5.15829 14.6465 5.35355L6.3536 13.6464C6.15834 13.8417 5.84176 13.8417 5.64649 13.6464Z" fill="#000000"/>
</svg>
