<svg width="16" height="16" viewBox="0 0 16 16" fill="none" xmlns="http://www.w3.org/2000/svg">
<path fill-rule="evenodd" clip-rule="evenodd" d="M1.70708 8.29289C2.0976 7.90237 2.73077 7.90237 3.12129 8.29289L6.70708 11.8787C7.0976 12.2692 7.0976 12.9024 6.70708 13.2929C6.31655 13.6834 5.68339 13.6834 5.29286 13.2929L1.70708 9.70711C1.31655 9.31658 1.31655 8.68342 1.70708 8.29289Z" fill="#000000"/>
<path fill-rule="evenodd" clip-rule="evenodd" d="M5.29286 13.2929C4.90234 12.9024 4.90234 12.2692 5.29286 11.8787L12.8787 4.29289C13.2692 3.90237 13.9023 3.90237 14.2929 4.29289C14.6834 4.68342 14.6834 5.31658 14.2929 5.70711L6.70708 13.2929C6.31655 13.6834 5.68339 13.6834 5.29286 13.2929Z" fill="#000000"/>
</svg>
