<svg width="16" height="16" viewBox="0 0 16 16" fill="none" xmlns="http://www.w3.org/2000/svg">
<path fill-rule="evenodd" clip-rule="evenodd" d="M8 14C11.3137 14 14 11.3137 14 8C14 4.68629 11.3137 2 8 2C4.68629 2 2 4.68629 2 8C2 11.3137 4.68629 14 8 14ZM8 15C11.866 15 15 11.866 15 8C15 4.13401 11.866 1 8 1C4.13401 1 1 4.13401 1 8C1 11.866 4.13401 15 8 15Z" fill="#000000"/>
<path d="M8.365 4.1185V7.2645C8.365 7.4295 8.36133 7.59083 8.354 7.7485C8.35033 7.90617 8.343 8.06567 8.332 8.227C8.321 8.38467 8.30633 8.54783 8.288 8.7165C8.27333 8.8815 8.255 9.05933 8.233 9.25H7.5675C7.5455 9.05933 7.52533 8.8815 7.507 8.7165C7.49233 8.54783 7.4795 8.38467 7.4685 8.227C7.4575 8.06567 7.44833 7.90617 7.441 7.7485C7.43733 7.59083 7.4355 7.4295 7.4355 7.2645V4.1185H8.365ZM7.199 11.395C7.199 11.2997 7.2155 11.2098 7.2485 11.1255C7.28517 11.0412 7.33283 10.9678 7.3915 10.9055C7.45383 10.8432 7.52717 10.7937 7.6115 10.757C7.69583 10.7203 7.78567 10.702 7.881 10.702C7.97633 10.702 8.06617 10.7203 8.1505 10.757C8.23483 10.7937 8.30817 10.8432 8.3705 10.9055C8.43283 10.9678 8.4805 11.0412 8.5135 11.1255C8.55017 11.2098 8.5685 11.2997 8.5685 11.395C8.5685 11.494 8.55017 11.5857 8.5135 11.67C8.4805 11.7507 8.43283 11.8222 8.3705 11.8845C8.30817 11.9468 8.23483 11.9945 8.1505 12.0275C8.06617 12.0642 7.97633 12.0825 7.881 12.0825C7.78567 12.0825 7.69583 12.0642 7.6115 12.0275C7.52717 11.9945 7.45383 11.9468 7.3915 11.8845C7.33283 11.8222 7.28517 11.7507 7.2485 11.67C7.2155 11.5857 7.199 11.494 7.199 11.395Z" fill="#000000"/>
</svg>
